SplineFontDB: 3.0
FontName: ume-stroke-stroke-condensed-int-100-ext-100
FullName: ume-stroke-stroke-condensed-int-100-ext-100
FamilyName: ume-stroke-stroke-condensed-int-100-ext-100
Weight: Book
Copyright: OSP
Version: Look update time of this file.
ItalicAngle: 0
UnderlinePosition: -180
UnderlineWidth: 24
Ascent: 1760
Descent: 288
InvalidEm: 0
sfntRevision: 0x00000000
LayerCount: 2
Layer: 0 0 "Arri+AOgA-re" 1
Layer: 1 0 "Avant" 0
XUID: [1021 622 -412722398 5248084]
StyleMap: 0x0000
FSType: 0
OS2Version: 3
OS2_WeightWidthSlopeOnly: 0
OS2_UseTypoMetrics: 0
CreationTime: 1493334908
ModificationTime: 1498138071
PfmFamily: 17
TTFWeight: 400
TTFWidth: 5
LineGap: 184
VLineGap: 0
Panose: 2 0 5 3 0 0 0 0 0 0
OS2TypoAscent: 1760
OS2TypoAOffset: 0
OS2TypoDescent: -288
OS2TypoDOffset: 0
OS2TypoLinegap: 184
OS2WinAscent: 2260
OS2WinAOffset: 0
OS2WinDescent: 309
OS2WinDOffset: 0
HheadAscent: 2260
HheadAOffset: 0
HheadDescent: -309
HheadDOffset: 0
OS2SubXSize: 1331
OS2SubYSize: 1433
OS2SubXOff: 0
OS2SubYOff: 286
OS2SupXSize: 1331
OS2SupYSize: 1433
OS2SupXOff: 0
OS2SupYOff: 983
OS2StrikeYSize: 102
OS2StrikeYPos: 530
OS2CapHeight: 1552
OS2XHeight: 1176
OS2Vendor: 'PfEd'
OS2CodePages: 00000001.00000000
OS2UnicodeRanges: 80000027.4000200a.00000000.00000000
MarkAttachClasses: 1
DEI: 91125
LangName: 1033
Encoding: UnicodeBmp
UnicodeInterp: none
NameList: AGL For New Fonts
DisplaySize: -72
AntiAlias: 1
FitToEm: 0
WinInfo: 36 18 7
BeginPrivate: 7
BlueValues 25 [0 0 1176 1176 1552 1552]
OtherBlues 11 [-288 -288]
BlueShift 1 0
StdHW 4 [80]
StdVW 5 [141]
StemSnapH 32 [54 61 65 80 86 114 120 138 145]
StemSnapV 35 [40 47 52 58 63 67 100 132 136 141]
EndPrivate
BeginChars: 65538 232

StartChar: .notdef
Encoding: 65536 -1 0
Width: 748
Flags: HW
LayerCount: 2
Fore
SplineSet
136 68 m 1
 544 68 l 1
 544 1297 l 1
 136 1297 l 1
 136 68 l 1
68 0 m 1
 68 1365 l 1
 612 1365 l 1
 612 0 l 1
 68 0 l 1
EndSplineSet
Validated: 1
EndChar

StartChar: exclam
Encoding: 33 33 3
Width: 448
GlyphClass: 2
Flags: HMW
VStem: 150.73 137.77<-0.610352 262.492 -0.610352 262.492 444.438 465.228> 188.5 62.2305<-0.610352 262.492 -0.610352 262.492 444.438 466.698> 208.5 22.2305<1535.34 1550>
LayerCount: 2
Fore
SplineSet
308.5 1550 m 1
 130.73046875 1550 l 1
 130.73046875 1503.0703125 150.73046875 487.5390625 150.73046875 444.4375 c 1
 288.5 444.4375 l 1
 288.5 486.017578125 308.5 1517.56835938 308.5 1550 c 1
288.5 262.4921875 m 1
 150.73046875 262.4921875 l 1
 150.73046875 -0.6103515625 l 1
 288.5 -0.6103515625 l 1
 288.5 262.4921875 l 1
EndSplineSet
Validated: 8912905
EndChar

StartChar: quotedbl
Encoding: 34 34 4
Width: 1024
GlyphClass: 2
Flags: HMW
HStem: 1289 2.93457<308.5 320.73 308.5 320.73 308.5 329.5 329.5 353 353 358.5 308.5 329.5 329.5 353 353 358.5 320.73 329.5 329.5 353 353 369 369 370.73 320.73 329.5 329.5 353 353 369 369 370.73 358.5 369 369 408.5 358.5 369 369 408.5 370.73 370.73 370.73 370.73 608.5 620.73 608.5 653 653 658.5 620.73 653 653 669 669 670.73 658.5 669 669 708.5 670.73 670.73>
LayerCount: 2
Fore
SplineSet
708.5 1249.35644531 m 1
 708.5 1349.57096354 708.5 1449.78548177 708.5 1550 c 1
 570.73046875 1550 l 1
 570.73046875 1289 l 1
 608.5 1289 l 1
 608.5 1279.15136719 l 1
 515.065429688 1136.35351562 l 1
 542.958658854 1118.10286458 570.851888021 1099.85221354 598.745117188 1081.6015625 c 1
 635.477436392 1137.37540443 671.947029526 1193.42715796 708.5 1249.35644531 c 1
408.5 1249.35644531 m 1
 408.5 1349.57096354 408.5 1449.78548177 408.5 1550 c 1
 270.73046875 1550 l 1
 270.73046875 1289 l 1
 308.5 1289 l 1
 308.5 1279.15136719 l 1
 215.065429688 1136.35351562 l 1
 242.958658854 1118.10286458 270.851888021 1099.85221354 298.745117188 1081.6015625 c 1
 299.058612915 1082.08068515 l 1
 299.135742188 1082.03027344 l 1
 408.5 1249.35644531 l 1
EndSplineSet
Validated: 524297
EndChar

StartChar: numbersign
Encoding: 35 35 5
Width: 1024
GlyphClass: 2
Flags: HW
LayerCount: 2
Fore
SplineSet
343 576 m 1
 607 576 l 1
 684 1040 l 1
 420 1040 l 1
 343 576 l 1
24 464 m 1
 24 576 l 1
 199 576 l 1
 276 1040 l 1
 88 1040 l 1
 88 1152 l 1
 294 1152 l 1
 360 1552 l 1
 504 1552 l 1
 438 1152 l 1
 702 1152 l 1
 768 1552 l 1
 912 1552 l 1
 846 1152 l 1
 1000 1152 l 1
 1000 1040 l 1
 828 1040 l 1
 751 576 l 1
 928 576 l 1
 928 464 l 1
 732 464 l 1
 656 0 l 1
 512 0 l 1
 588 464 l 1
 324 464 l 1
 248 0 l 1
 104 0 l 1
 180 464 l 1
 24 464 l 1
EndSplineSet
Validated: 1
EndChar

StartChar: dollar
Encoding: 36 36 6
Width: 1024
GlyphClass: 2
Flags: HW
LayerCount: 2
Fore
SplineSet
584 148 m 1
 729.356090616 167.063093851 800 240.661556298 800 408 c 0
 800 499 772 567 716 612 c 0
 667 652 623 679 584 692 c 1
 584 148 l 1
440 1412 m 1
 284.208826839 1394.92699472 232 1304.68850305 232 1136 c 0
 232 969.905085347 310.210500874 888.601113836 440 859 c 1
 440 1412 l 1
440 6 m 1
 295.221058947 26.6827058648 159.853614927 95.1063531944 80 184 c 1
 80 376 l 1
 160 285 237 224 312 192 c 0
 357 172 400 158 440 151 c 1
 440 722 l 1
 395 733 345 749 292 772 c 0
 236 796 187 839 144 900 c 0
 101 961 80 1040 80 1136 c 0
 80 1259 109 1359 168 1436 c 0
 218 1503 309 1541 440 1550 c 1
 440 1760 l 1
 584 1760 l 1
 584 1548 l 1
 739.839813001 1531.59580916 842.401405645 1469.59859435 936 1376 c 1
 936 1160 l 1
 861 1251 795 1316 736 1356 c 0
 693 1385 643 1404 584 1412 c 1
 584 822 l 1
 714.129949163 798.533943594 846.551814009 715.21029019 900 612 c 0
 929 556 944 488 944 408 c 0
 944 144.778358596 831.917772766 21.0705979051 584 2 c 1
 584 -288 l 1
 440 -288 l 1
 440 6 l 1
EndSplineSet
Validated: 524289
EndChar

StartChar: percent
Encoding: 37 37 7
Width: 1024
GlyphClass: 2
Flags: HMW
HStem: 40.3203 114.563<4.29497e+09 4.29497e+09> 54.8838 85.4365<-180.161 -146.653 -180.161 -98.7764> 590.073 87.4365<-180.161 -146.653> 1030.15 114.563<-674.12 -666.009 -682.229 -606.183> 1044.72 85.4365<-690.874 -657.366 -690.874 -609.489> 1579.91 87.4365<-690.874 -674.119 -738.961 -657.366>
VStem: -877.465 121.634<1287.94 1422.29 1287.94 1432.5> -855.831 78.3662<1289.39 1420.49> -592.408 121.634<1287.95 1422.3> -570.774 78.3662<1289.38 1420.48 1289.38 1429.37> -366.753 121.634<298.111 365.197 298.111 442.666> -345.119 78.3662<299.561 365.196> -81.6963 121.634<298.121 432.469> -60.0625 78.3662<299.552 430.646 299.552 439.541>
LayerCount: 2
Fore
SplineSet
-81.6962890625 365.197265625 m 0
 -81.6962890625 231.043945312 -147.184570312 154.883789062 -163.407226562 154.883789062 c 0
 -179.625976562 154.883789062 -245.119140625 231.025390625 -245.119140625 365.197265625 c 0
 -245.120117188 499.709960938 -179.208984375 577.509765625 -163.407226562 577.509765625 c 0
 -147.61328125 577.509765625 -81.6962890625 499.740234375 -81.6962890625 365.197265625 c 0
39.9375 365.197265625 m 0
 39.9375 520.12890625 -27.5341796875 690.07421875 -163.408203125 690.073242188 c 0
 -299.280273438 690.072265625 -366.752929688 520.1328125 -366.752929688 365.198242188 c 0
 -366.752929688 210.264648438 -299.280273438 40.3193359375 -163.40625 40.3203125 c 0
 -27.5341796875 40.3193359375 39.9375 210.262695312 39.9375 365.197265625 c 0
-592.408203125 1355.02832031 m 0
 -592.408203125 1220.87695312 -657.897460938 1144.71582031 -674.120117188 1144.71582031 c 0
 -690.338867188 1144.71582031 -755.831054688 1220.85742188 -755.831054688 1355.02832031 c 0
 -755.831054688 1489.54296875 -689.920898438 1567.34179688 -674.120117188 1567.34179688 c 0
 -658.326171875 1567.34179688 -592.408203125 1489.57226562 -592.408203125 1355.02832031 c 0
-470.774414062 1355.02929688 m 0
 -470.774414062 1509.96191406 -538.247070312 1679.90625 -674.120117188 1679.90527344 c 0
 -809.993164062 1679.90625 -877.46484375 1509.96289062 -877.46484375 1355.02832031 c 0
 -877.46484375 1200.09667969 -809.9921875 1030.15332031 -674.120117188 1030.15234375 c 0
 -538.24609375 1030.15234375 -470.774414062 1200.09277344 -470.774414062 1355.02929688 c 0
28.9814453125 1747.61914062 m 1
 -1.4814453125 1761.15169271 -31.9443359375 1774.68424479 -62.4072265625 1788.21679688 c 1
 -64.1781577899 1784.23030853 l 1
 -95.744140625 1796.91503906 l 1
 -448.424401843 919.265508542 l 1
 -842.120117188 33.029296875 l 1
 -811.657707906 19.4965889691 -781.195145039 5.96403464853 -750.732421875 -7.568359375 c 1
 -749.715008569 -5.27809471169 l 1
 -717.395507812 -18.265625 l 1
 -356.298937836 880.327508455 l 1
 28.9814453125 1747.61914062 l 1
EndSplineSet
Validated: 8912937
EndChar

StartChar: ampersand
Encoding: 38 38 8
Width: 1216
GlyphClass: 2
Flags: HMW
HStem: -20 135<396.725 540.277 396.725 565.685> 15 65<396.07 545.522 396.07 559.278> 1418 132<483.041 485.348 485.348 583.959 431.234 594.473> 1450 68<485.348 583.959 583.959 607.374>
VStem: 66.3066 133.238<303.58 372.395 303.58 464.525> 99.5449 66.7617<273.873 371.945> 198.307 129.192<1121.69 1171.75> 227.499 70.8086 741.808 129.192<1062.44 1151.52 1039.88 1246.18> 771 70.8076 945.576 144.104<0 40.6387> 989.681 55.8955<0 37.1851>
LayerCount: 2
Fore
SplineSet
431.0078125 709.931640625 m 1
 506.633789062 642.639648438 668.045898438 507.087890625 790.131835938 350.435546875 c 1
 709.912109375 209.943359375 605.553710938 115 475 115 c 0
 318.450195312 115 199.544921875 234.764648438 199.544921875 372.39453125 c 0
 198.314453125 509.419921875 280.022460938 641.673828125 431.0078125 709.931640625 c 1
942.25 350.333007812 m 1
 1038.13769531 543.506835938 1085.30078125 764.506835938 1085.30078125 904.133789062 c 1
 1052.44726562 904.186523438 l 1
 1019.11393229 904.186523438 985.780598958 904.186523437 952.447265625 904.186523438 c 1
 952.447265625 834.615547907 919.893251385 640.59166187 846.243136538 465.120404217 c 1
 736.948058404 584.678886275 615.549724302 687.9886342 538.758789062 752.440429688 c 1
 706.413085938 822.12109375 871 928.235351562 871 1151.51660156 c 1
 865.262695312 1442.57910156 694.125976562 1550 583.958984375 1550 c 2
 485.34765625 1550 l 2
 377.12109375 1550 206.380859375 1448.75292969 198.306640625 1171.75195312 c 1
 198.306640625 1020.9375 257.3125 901.536132812 357.502929688 787.122070312 c 1
 186.37109375 705.701171875 66.306640625 565.89453125 66.306640625 363.15625 c 0
 66.306640625 104.950195312 280.7578125 -20 474.653320312 -20 c 0
 646.70212316 -20 778.428875937 90.9039516289 872.385896223 229.695192137 c 1
 917.859389544 150.601974959 945.576171852 71.6829477445 945.576171875 0 c 1
 993.611002604 -0 1041.64583333 0 1089.68066406 0 c 1
 1089.68066406 120.892578125 1024.52832031 241.028320312 942.25 350.333007812 c 1
456.079361998 827.30088039 m 1
 377.748037724 910.799688907 327.499023439 1074.02369596 327.499023438 1173.11621094 c 0
 327.499023438 1352.4921875 431.774414062 1418 534.306640625 1418 c 0
 654.638671875 1418 741.807617188 1339.23535156 741.807617188 1153.11621094 c 0
 741.807617188 972.020387021 627.475541541 894.316352666 456.079361998 827.30088039 c 1
EndSplineSet
Validated: 8912937
EndChar

StartChar: quotesingle
Encoding: 39 39 9
Width: 416
GlyphClass: 2
Flags: HMW
HStem: 1289 2.93457<188.5 200.73 188.5 209.5 209.5 233 233 238.5 200.73 209.5 209.5 233 233 249 249 250.73 238.5 249 249 288.5 250.73 250.73>
LayerCount: 2
Fore
SplineSet
288.5 1249.35644531 m 1
 288.5 1349.57096354 288.5 1449.78548177 288.5 1550 c 1
 150.73046875 1550 l 1
 150.73046875 1289 l 1
 188.5 1289 l 1
 188.5 1279.15136719 l 1
 95.0654296875 1136.35351562 l 1
 122.958658854 1118.10286458 150.851888021 1099.85221354 178.745117188 1081.6015625 c 1
 215.477436392 1137.37540443 251.947029526 1193.42715796 288.5 1249.35644531 c 1
EndSplineSet
Validated: 524297
EndChar

StartChar: parenleft
Encoding: 40 40 10
Width: 624
GlyphClass: 2
Flags: HMW
VStem: 100.793 142.229<468.835 755.398 468.835 758.351> 143.021 57.7715<472.399 755.896>
LayerCount: 2
Fore
SplineSet
434.596679688 -262.483398438 m 0
 459.346679688 -240.155273438 484.096679687 -217.827148437 508.846679688 -195.499023438 c 1
 488.834960938 -173.31640625 243.021484375 182.271484375 243.021484375 755.3984375 c 1
 248.0390625 1259.72753906 466.974609375 1611.28613281 510.568359375 1672.94628906 c 1
 483.350260417 1692.1891276 456.132161458 1711.43196615 428.9140625 1730.67480469 c 0
 428.425913128 1729.98435075 427.922199794 1729.26801932 427.40325336 1728.52591518 c 2
 426.53515625 1729.13964844 l 1
 377.995117188 1660.48144531 106.127929688 1294.57519531 100.79296875 758.350585938 c 1
 100.79296875 152.493164062 395.180664062 -222.962890625 432.217773438 -264.017578125 c 1
 434.293149814 -262.145284665 l 2
 434.395598858 -262.25995936 434.496777782 -262.372664404 434.596679688 -262.483398438 c 0
EndSplineSet
Validated: 8912905
EndChar

StartChar: parenright
Encoding: 41 41 11
Width: 624
GlyphClass: 2
Flags: HMW
VStem: 392.34 142.229<468.835 755.398> 434.568 57.7715<472.399 755.896 454.079 757.853>
LayerCount: 2
Fore
SplineSet
126.514648438 -195.499023438 m 1
 151.264648438 -217.827148437 176.014648437 -240.155273438 200.764648438 -262.483398438 c 0
 200.864548979 -262.372663249 200.965726578 -262.259957009 201.068174335 -262.145281077 c 2
 203.143554688 -264.017578125 l 1
 240.180664062 -222.962890625 534.568359375 152.493164062 534.568359375 758.350585938 c 1
 529.233398438 1294.57519531 257.366210938 1660.48144531 208.826171875 1729.13964844 c 1
 207.958074936 1728.5259153 l 2
 207.439128362 1729.26801939 206.935414971 1729.98435079 206.447265625 1730.67480469 c 0
 179.229166667 1711.43196615 152.011067708 1692.1891276 124.79296875 1672.94628906 c 1
 168.38671875 1611.28613281 387.323242188 1259.72753906 392.33984375 755.3984375 c 1
 392.33984375 182.271484375 146.52734375 -173.31640625 126.514648438 -195.499023438 c 1
EndSplineSet
Validated: 8912905
EndChar

StartChar: asterisk
Encoding: 42 42 12
Width: 1024
GlyphClass: 2
Flags: HW
LayerCount: 2
Fore
SplineSet
80 512 m 1
 392 776 l 1
 80 1048 l 1
 192 1208 l 1
 448 920 l 1
 424 1552 l 1
 600 1552 l 1
 576 920 l 1
 840 1208 l 1
 944 1048 l 1
 640 776 l 1
 952 512 l 1
 840 344 l 1
 576 648 l 1
 600 0 l 1
 424 0 l 1
 448 648 l 1
 192 344 l 1
 80 512 l 1
EndSplineSet
Validated: 1
EndChar

StartChar: plus
Encoding: 43 43 13
Width: 1024
GlyphClass: 2
Flags: HW
LayerCount: 2
Fore
SplineSet
-2821.11328125 2260.57421875 m 1
 -2854.44661458 2260.57421875 -2887.77994792 2260.57421875 -2921.11328125 2260.57421875 c 1
 -2921.11328125 1548.57421875 l 1
 -2887.77994792 1548.57421875 -2854.44661458 1548.57421875 -2821.11328125 1548.57421875 c 1
 -2821.11328125 2260.57421875 l 1
167.48828125 636.1875 m 1
 167.48828125 602.854166667 167.48828125 569.520833333 167.48828125 536.1875 c 1
 879.48828125 536.1875 l 1
 879.48828125 569.520833333 879.48828125 602.854166667 879.48828125 636.1875 c 1
 167.48828125 636.1875 l 1
EndSplineSet
Validated: 524289
EndChar

StartChar: comma
Encoding: 44 44 14
Width: 416
GlyphClass: 2
Flags: HMW
HStem: -0.350586 2.93457<188.5 200.73 188.5 209.5 209.5 233 233 238.5 200.73 209.5 209.5 233 233 249 249 250.73 238.5 249 249 288.5 250.73 250.73>
LayerCount: 2
Fore
SplineSet
288.5 -39.9931640625 m 1
 288.5 60.2210286458 288.5 160.435221354 288.5 260.649414062 c 1
 150.73046875 260.649414062 l 1
 150.73046875 -0.3505859375 l 1
 188.5 -0.3505859375 l 1
 188.5 -10.1982421875 l 1
 95.0654296875 -152.997070312 l 1
 122.958658854 -171.247721354 150.851888021 -189.498372396 178.745117188 -207.749023438 c 1
 215.477426263 -151.974851952 251.946889541 -95.9226656088 288.5 -39.9931640625 c 1
EndSplineSet
Validated: 524297
EndChar

StartChar: hyphen
Encoding: 45 45 15
Width: 1024
GlyphClass: 2
Flags: HMW
HStem: 536.188 100<167.488 879.488 167.488 879.488 167.488 879.488 167.488 879.488>
LayerCount: 2
Fore
SplineSet
167.48828125 636.1875 m 1
 167.48828125 602.854166667 167.48828125 569.520833333 167.48828125 536.1875 c 1
 879.48828125 536.1875 l 1
 879.48828125 569.520833333 879.48828125 602.854166667 879.48828125 636.1875 c 1
 167.48828125 636.1875 l 1
EndSplineSet
Validated: 524289
EndChar

StartChar: period
Encoding: 46 46 16
Width: 416
GlyphClass: 2
Flags: HMW
HStem: 0.389648 261.103<150.874 200.874 188.356 200.874 200.874 238.356 200.874 238.356 238.356 250.874 238.356 250.874 250.874 288.356 250.874 250.874 150.874 288.356>
VStem: 150.874 137.482<0.389648 261.492 0.389648 261.492>
LayerCount: 2
Fore
SplineSet
288.356445312 261.4921875 m 1
 150.874023438 261.4921875 l 1
 150.874023438 0.3896484375 l 1
 288.356445312 0.3896484375 l 1
 288.356445312 261.4921875 l 1
EndSplineSet
Validated: 524289
EndChar

StartChar: slash
Encoding: 47 47 17
Width: 1024
GlyphClass: 2
Flags: HW
LayerCount: 2
Fore
SplineSet
16.5869140625 1628.83984375 m 1
 -13.8759765625 1642.37239583 -44.3388671875 1655.90494792 -74.8017578125 1669.4375 c 1
 -76.5731766897 1665.44991891 l 1
 -108.138671875 1678.13378906 l 1
 -460.805132358 800.518366364 l 1
 -854.515625 -85.75 l 1
 -824.052904077 -99.2823962648 -793.590336728 -112.814946103 -763.127929688 -126.34765625 c 1
 -762.110735485 -124.057887673 l 1
 -729.790039062 -137.045898438 l 1
 -368.684781685 761.568853721 l 1
 16.5869140625 1628.83984375 l 1
EndSplineSet
Validated: 524297
EndChar

StartChar: zero
Encoding: 48 48 18
Width: 1024
GlyphClass: 2
Flags: HMW
HStem: -19.9971 142.348 22.3506 57.6465<517 517> 1420.14 140.434 1460.58 59.5664
VStem: 104.745 148.291<767.745 970.383> 153.036 51.709<767.916 968.873> 782.577 147.807<583.097 970.388 553.425 988.426> 830.384 52.1934<594.01 977.09>
LayerCount: 2
Fore
SplineSet
104.745117188 771.701171875 m 0
 104.745117188 336.309242709 230.318067842 -23.0870348115 519.124023438 -19.9970703125 c 0
 805.689453125 -16.931640625 930.383789062 335.149414062 930.383789062 771.701171875 c 0
 930.383789062 1169.07519531 808.915039062 1560.57714844 546.614257812 1560.57714844 c 2
 488.515625 1560.57714844 l 2
 226.116210938 1560.57714844 104.745117188 1169.06542969 104.745117188 771.701171875 c 0
253.036132812 770.471679688 m 0
 253.036132812 1185.1875 352.1328125 1420.25 518.474609375 1420.14355469 c 0
 686.135742188 1420.03613281 782.577148438 1205.36816406 782.577148438 771.483398438 c 0
 782.577148438 394.7109375 691.611328125 122.350585938 517.080078125 122.350585938 c 0
 343.241210938 122.350585938 253.036132812 394.590820312 253.036132812 770.471679688 c 0
EndSplineSet
Validated: 8912937
EndChar

StartChar: one
Encoding: 49 49 19
Width: 1024
GlyphClass: 2
Flags: HMW
HStem: 95 5<200 820 480.122 530.122 530.122 580.122 580.122 580.122 200 820> 1199.38 136.904<199.422 253.872> 1236.28 63.0957<199.422 251.64 199.422 251.64> 1236.28 100<199.422 251.64 199.422 251.64>
VStem: 480.122 64.0107<50.0049 1315.65 50.0049 95>
LayerCount: 2
Fore
SplineSet
200 145 m 1
 200 0 l 1
 820 0 l 1
 820 145 l 1
 580.122070312 145 l 1
 580.122070312 1550 l 1
 544 1550.00488281 l 1
 522.707356769 1550.00256175 501.41471354 1550.00108144 480.122070308 1549.99864473 c 0
 468.081380205 1549.99864473 456.040690103 1549.99511719 444 1549.99511719 c 1
 444 1519.97526042 444.007974024 1489.95540365 444 1459.93554688 c 0
 444 1383.2578125 314.047851562 1336.28222656 199.421875 1336.28222656 c 1
 199.416015625 1299.37792969 l 0
 199.416015625 1266.04459635 199.416015625 1232.71126302 199.416015625 1199.37792969 c 1
 291.092025232 1199.37792969 376.514303316 1230.65143086 444.023589351 1283.57421396 c 1
 444.124400609 145 l 1
 200 145 l 1
EndSplineSet
Validated: 8912905
EndChar

StartChar: two
Encoding: 50 50 20
Width: 1024
GlyphClass: 2
Flags: HMW
HStem: 1430 120<434.836 451.455 451.455 562.815 371.816 572.387> 1450 80<451.455 562.815 562.815 589.504 392.396 613.876>
VStem: 148.896 144.058<1144.89 1212.32 1144.89 1264.02> 192.954 55.9424<1144.89 1220.84> 738.011 136.733<1087.56 1191.15 1087.56 1288.72> 774.744 63.2666
LayerCount: 2
Fore
SplineSet
148.896484375 1144.88964844 m 1
 292.954101562 1144.88964844 l 1
 292.954101562 1279.74121094 353.572265625 1430 516.099609375 1430 c 0
 628.673828125 1430 738.010742188 1397.32421875 738.010742188 1180.10839844 c 0
 738.010742188 967.442256599 617.27520478 825.421798126 512.676228268 691.919375627 c 0
 374.133287474 520.62582537 142.58007837 281.881019295 142.580078125 50 c 2
 142.580078125 0 l 1
 385.534505208 -0 628.488932292 0 871.443359375 0 c 1
 871.473632812 40 l 1
 871.473632812 73.3333333333 871.473632812 106.666666667 871.473632812 140 c 1
 306.219726562 140 l 1
 325.324280902 325.031430455 461.196602131 465.836137838 603.836914062 645.772460938 c 0
 747.68359375 827.229492188 874.744140625 983.96484375 874.744140625 1191.14941406 c 1
 870.154296875 1428.71191406 720.83984375 1550 562.815429688 1550 c 2
 451.455078125 1550 l 2
 292.177734375 1550 148.896484375 1383.15234375 148.896484375 1144.88964844 c 1
EndSplineSet
Validated: 8912905
EndChar

StartChar: three
Encoding: 51 51 21
Width: 1024
GlyphClass: 2
Flags: HMW
HStem: -20 140 20 60<472.347 576.626 379.877 600.057>
VStem: 748.905 142.23<363.295 625.817> 791.136 57.7695<358.923 623.546>
LayerCount: 2
Fore
SplineSet
120.256835938 92.3203125 m 1
 150.502929688 74.7294921875 287.369140625 -20 474.954101562 -20 c 0
 750.110351562 -20 891.135742188 206.793945312 891.135742188 481.717773438 c 0
 891.135742188 790.76953125 697.958984375 918.958007812 475.159179688 941.479492188 c 1
 872.122070312 1409.65625 l 1
 872.122070312 1550 l 1
 156.755859375 1550 l 1
 156.755859375 1515 l 1
 156.228515625 1515 l 1
 156.228515625 1415 l 1
 705.731445312 1415 l 1
 340 948.102539062 l 1
 340 832.443359375 l 1
 390 832.443359375 l 2
 593.3515625 832.443359375 748.905273438 774.733398438 748.905273438 476.901367188 c 0
 748.905273438 249.688476562 655.327148438 120.400390625 473.438476562 120 c 1
 283.618164062 124.87109375 214.0390625 243.985351562 137.328125 243.985351562 c 1
 137.328125 193.985351562 l 1
 119.012695312 147.436523438 l 1
 123.010145289 144.873633525 128.738354959 140.90471675 136.092414668 135.928168143 c 1
 120.256835938 92.3203125 l 1
EndSplineSet
Validated: 8912905
EndChar

StartChar: four
Encoding: 52 52 22
Width: 1024
GlyphClass: 2
Flags: HW
LayerCount: 2
Fore
SplineSet
620 443.423828125 m 1
 229.240234375 443.423828125 l 1
 229.244140625 448.162109375 l 1
 620 1403.02246094 l 1
 620 443.423828125 l 1
620 0 m 1
 750 0 l 1
 750 343.423828125 l 1
 816.946614583 343.423828125 883.893229167 343.423828125 950.83984375 343.423828125 c 1
 950.83984375 376.757161458 950.83984375 410.090494792 950.83984375 443.423828125 c 1
 883.893229167 443.423828125 816.946614583 443.423828125 750 443.423828125 c 1
 750 812.282552083 750 1181.14127604 750 1550 c 1
 563.060546875 1550 l 1
 87.3203125 471.419921875 l 1
 87.3227491482 445.419428836 87.3255407327 419.419290733 87.328125 393.418945312 c 2
 87.3330078125 343.423828125 l 1
 264.888671875 343.423828125 442.444335937 343.423828125 620 343.423828125 c 1
 620 0 l 1
EndSplineSet
Validated: 524297
EndChar

StartChar: five
Encoding: 53 53 23
Width: 1024
GlyphClass: 2
Flags: HMW
HStem: -20 144.702 24.7021 55.2979<447.806 559.444 358.121 583.209> 933.972 123.719 957.69 76.2822
VStem: 744.364 135.961<434.133 551.928> 780.325 64.0391<424.663 552.171 424.663 668.694>
LayerCount: 2
Fore
SplineSet
137.328125 41.6767578125 m 1
 164.5703125 31.2392578125 273.745117188 -20 454.954101562 -20 c 0
 749.385742188 -20 880.325195312 266.442382812 880.325195312 553.770507812 c 0
 880.325195312 827.15625 684.143554688 1057.18359375 440.692382812 1057.69042969 c 0
 349.310364055 1057.88029606 284.769859224 1036.8868527 247.013492961 1019.42977205 c 1
 277.352539062 1400 l 1
 880 1400 l 1
 880 1550 l 1
 635.021158854 1550 390.042317708 1550 145.063476562 1550 c 1
 144.826808137 1363.35717768 144.591794417 1176.71270066 144.355777888 990.069226444 c 1
 142.713867188 969.47265625 l 1
 144.32780834 967.809089234 l 1
 144.32780834 966.078780843 144.321289062 964.348472453 144.321289062 962.618164062 c 1
 161.027049796 950.596407886 l 1
 186.31840464 924.527729304 211.609642362 898.4589336 236.901367188 872.390625 c 1
 270.836914062 892.73046875 l 2
 272.603515625 893.768554688 343.271484375 933.971679688 424.045898438 933.971679688 c 0
 549.179138146 937.570556005 744.364257812 805.573435583 744.364257812 549.604492188 c 0
 744.364257812 318.662109375 632.243164062 125.206054688 448.885742188 124.702148438 c 1
 256.720703125 129.400390625 195.193359375 195.331054688 137.328125 195.331054688 c 1
 137.328125 41.6767578125 l 1
EndSplineSet
Validated: 8912937
EndChar

StartChar: six
Encoding: 54 54 24
Width: 1024
GlyphClass: 2
Flags: HMW
HStem: -19.999 134.999 15 64.999 906.171 101.245<461.889 472.859 472.859 557.459 447.115 588.279>
VStem: 129.909 132.646<343.643 530.384 486.693 486.693> 162.556 67.3535<349.994 538.921 349.994 554.273> 762.044 134.403<343.388 630.45 339.824 642.508> 796.447 65.5967<349.726 626.774>
LayerCount: 2
Fore
SplineSet
519.188476562 1572.36230469 m 1
 490.438476562 1528.3359375 234.155273438 1179.6953125 153.85546875 741.577148438 c 0
 138.811523438 659.495117188 129.909179688 574.075195312 129.909179688 486.693359375 c 0
 129.909179688 192.803710938 248.522460938 -18.482421875 512.4375 -19.9990234375 c 0
 777.809570312 -21.5244140625 896.447265625 192.954101562 896.447265625 486.693359375 c 0
 896.447265625 774.206054688 795.788085938 1007.41601562 557.458984375 1007.41601562 c 2
 472.859375 1007.41601562 l 2
 436.745244422 1007.41601562 397.306481113 996.81898901 358.256960332 975.60336959 c 1
 478.507817661 1291.80143574 669.164062848 1486.11104016 669.1640625 1550 c 1
 619.1640625 1550 l 1
 575.143554688 1573.72167969 l 1
 572.268845075 1569.53934723 566.990377877 1562.24585712 559.73044354 1552.08467977 c 1
 519.188476562 1572.36230469 l 1
296.36263643 775.833157181 m 1
 311.721528363 802.177359377 328.666503621 823.853672876 346.011159695 841.471457839 c 0
 380.856927848 874.475264359 434.47963672 906.170899142 514.293945312 906.170898438 c 0
 662.264648438 906.170898438 762.043945312 782.322265625 762.043945312 502.693359375 c 0
 762.043945312 184.08203125 667.794921875 115 514.293945312 115 c 0
 358.040039062 115 262.555664062 184.591796875 262.555664062 502.693359375 c 0
 262.555664062 594.875016673 275.273874399 686.87530393 296.36263643 775.833157181 c 1
EndSplineSet
Validated: 8912937
EndChar

StartChar: seven
Encoding: 55 55 25
Width: 1024
GlyphClass: 2
Flags: HMW
VStem: 304.678 151.484<0.420898 0.420898 0.420898 243.083> 356.166 48.5117<-0.420898 265.323>
LayerCount: 2
Fore
SplineSet
456.162109375 0.4208984375 m 1
 450.762546932 641.437892013 874.373389595 1414.93602748 880 1425.26953125 c 1
 880 1550 l 1
 634.784505208 1550 389.569010417 1550 144.353515625 1550 c 1
 144.353515625 1400 l 1
 753.891601562 1400 l 1
 647.24609375 1189.87597656 304.677734375 486.166992188 304.677734375 0 c 1
 321.839332246 -0 339.000930116 0 356.162527987 0 c 1
 356.162527987 -0.140304810315 356.166015625 -0.280604292276 356.166015625 -0.4208984375 c 1
 389.498046875 -0.140299479167 422.830078125 0.140299479167 456.162109375 0.4208984375 c 1
EndSplineSet
Validated: 8912937
EndChar

StartChar: eight
Encoding: 56 56 26
Width: 1024
GlyphClass: 2
Flags: HMW
HStem: -20 135<438.244 591.699 438.244 612.009> 15 65<436.478 592.829 436.478 620.445> 1418 132<452.527 465.348 465.348 563.959 410.997 576.142> 1450 68<465.348 563.959 563.959 587.693>
VStem: 126.307 133.238<301.398 372.395 301.398 473.726> 158.307 129.192<1150.53 1243.85 1068.97 1290.65> 159.545 66.7617<276.054 371.945> 187.499 70.8076 741.808 129.192<1069.08 1151.52 1060.85 1243.77> 769.762 133.238<301.315 372.395> 771 70.8076 803 66.7617<276.137 371.945 276.137 460.232>
LayerCount: 2
Fore
SplineSet
514.306640625 833.528320312 m 1
 358.22703565 895.366550994 287.499023438 975.996044261 287.499023438 1153.11621094 c 0
 287.499023438 1334.5859375 390.747070312 1418 514.306640625 1418 c 0
 637.977539062 1418 741.807617188 1334.42773438 741.807617188 1153.11621094 c 0
 741.807617188 976.582103466 670.859033279 895.573097114 514.306640625 833.528320312 c 1
514.307617188 726.2890625 m 1
 671.839436104 660.401027782 771.026787048 513.330088289 769.76171875 372.39453125 c 0
 769.76171875 230.235351562 668.3984375 115 515 115 c 0
 361.487304688 115 259.544921875 230.401367188 259.544921875 372.39453125 c 0
 258.277868603 513.462520396 356.89239097 660.447371992 514.307617188 726.2890625 c 1
390.314453125 779.647460938 m 1
 237.903320312 698.747070312 126.306640625 568.295898438 126.306640625 379.15625 c 0
 126.306640625 88.9052734375 319.942382812 -20 514.653320312 -20 c 0
 709.365234375 -20 903 88.9052734375 903 379.15625 c 0
 903 568.018554688 790.743164062 698.58984375 638.44140625 779.603515625 c 1
 782.82421875 854.955078125 871 970.1796875 871 1151.51660156 c 0
 865.509765625 1430.078125 673.525390625 1550 563.958984375 1550 c 2
 465.34765625 1550 l 2
 356.646484375 1550 158.306640625 1430.77832031 158.306640625 1150.53027344 c 0
 161.866210938 969.926757812 246.7265625 855.076171875 390.314453125 779.647460938 c 1
EndSplineSet
Validated: 8912937
EndChar

StartChar: nine
Encoding: 57 57 27
Width: 1024
GlyphClass: 2
Flags: HMW
HStem: 547.57 121.245<436.472 524.332> 568.815 78.7549<408.831 540.412 408.831 544.915> 1061.45 6.84375<896.426 896.426> 1439.99 135<435.311 471.668 356.734 590.189> 1474.99 65<402.079 471.223>
VStem: 129.909 134.402<922.963 1211.6 913.599 1213.51> 164.312 65.5977<929.787 1206.91 929.787 1223.4>
LayerCount: 2
Fore
SplineSet
507.23828125 -17.2685546875 m 1
 535.930664062 26.669921875 793.858398438 377.5703125 873.26953125 817.633789062 c 0
 887.84765625 898.419921875 896.447265625 982.409179688 896.447265625 1068.29296875 c 0
 896.447265625 1356.36230469 784.329101562 1570.0625 555.220703125 1574.88574219 c 0
 550.75390625 1574.97851562 473.127929688 1574.98632812 470.208007812 1574.98632812 c 0
 243.260742188 1574.98632812 129.909179688 1358.72363281 129.909179688 1068.29296875 c 0
 129.909179688 777.6328125 248.314453125 547.5703125 482.353515625 547.5703125 c 0
 547.995177815 547.5703125 613.713252628 561.176535221 672.939191698 592.319001605 c 1
 552.813986406 269.894941804 357.191406658 68.8153245607 357.19140625 4.986328125 c 1
 409.19140625 4.986328125 l 1
 451.211914062 -18.7353515625 l 1
 454.089203133 -14.5492860629 459.370317083 -7.25263134364 466.632931574 2.91147614362 c 1
 507.23828125 -17.2685546875 l 1
730.022460938 779.274414062 m 0
 726.828125 774.0703125 720.58984375 764.732421875 711.19921875 753.875 c 0
 681.315429688 719.321289062 621.176757812 668.815429688 512.061523438 668.815429688 c 0
 360.8828125 668.815429688 264.311523438 774.904296875 264.311523438 1052.29296875 c 0
 264.311523438 1370.90429688 358.560546875 1439.98632812 512.061523438 1439.98632812 c 0
 668.31640625 1439.98632812 763.80078125 1370.39453125 763.80078125 1052.29296875 c 0
 763.80078125 960.23046875 751.080078125 868.198242188 730.022460938 779.274414062 c 0
EndSplineSet
Validated: 8912905
EndChar

StartChar: colon
Encoding: 58 58 28
Width: 416
GlyphClass: 2
Flags: HMW
VStem: 150.73 137.77<43 306.103 43 306.103 720 983.103>
LayerCount: 2
Fore
SplineSet
288.5 983.102539062 m 1
 150.73046875 983.102539062 l 1
 150.73046875 720 l 1
 288.5 720 l 1
 288.5 983.102539062 l 1
288.5 306.102539062 m 1
 150.73046875 306.102539062 l 1
 150.73046875 43 l 1
 288.5 43 l 1
 288.5 306.102539062 l 1
EndSplineSet
Validated: 524297
EndChar

StartChar: semicolon
Encoding: 59 59 29
Width: 416
GlyphClass: 2
Flags: HMW
HStem: 43 2.93457<188.5 200.73 188.5 209.5 209.5 233 233 238.5 200.73 209.5 209.5 233 233 249 249 250.73 238.5 249 249 288.5 250.73 250.73>
LayerCount: 2
Fore
SplineSet
288.5 3.3564453125 m 1
 288.5 104.271809896 288.5 205.187174479 288.5 306.102539062 c 1
 150.73046875 306.102539062 l 1
 150.73046875 43 l 1
 188.5 43 l 1
 188.5 33.1513671875 l 1
 95.0654296875 -109.646484375 l 1
 122.958658854 -127.897135417 150.851888021 -146.147786458 178.745117188 -164.3984375 c 1
 215.477436392 -108.624595566 251.947029526 -52.5728420439 288.5 3.3564453125 c 1
288.5 983.102539062 m 1
 150.73046875 983.102539062 l 1
 150.73046875 720 l 1
 288.5 720 l 1
 288.5 983.102539062 l 1
EndSplineSet
Validated: 524297
EndChar

StartChar: less
Encoding: 60 60 30
Width: 1024
GlyphClass: 2
Flags: HW
LayerCount: 2
Fore
SplineSet
896.551757812 1403.80664062 m 1
 873.137044271 1427.53125 849.722330729 1451.25585938 826.307617188 1474.98046875 c 1
 823.776127361 1472.48202136 l 1
 807.912109375 1487.42285156 l 1
 593.461742977 1260.35889504 382.680653574 1029.62566153 156.689453125 814.102539062 c 1
 120.818359375 778.69921875 l 1
 213.532754597 686.241136236 306.247452093 593.783355997 398.961971413 501.325397582 c 1
 806.29296875 64.349609375 l 1
 822.242271191 79.2168019824 l 1
 824.6796875 76.7861328125 l 1
 848.217447917 100.388997396 871.755208333 123.991861979 895.29296875 147.594726562 c 1
 687.832653157 356.330374512 474.776978108 559.470663004 277.44921875 778.338867188 c 1
 475.285295345 995.359561426 688.657831747 1196.84379586 896.551757812 1403.80664062 c 1
EndSplineSet
Validated: 524297
EndChar

StartChar: equal
Encoding: 61 61 31
Width: 1024
GlyphClass: 2
Flags: HW
LayerCount: 2
Fore
SplineSet
167.48828125 836.1875 m 1
 167.48828125 802.854166667 167.48828125 769.520833333 167.48828125 736.1875 c 1
 879.48828125 736.1875 l 1
 879.48828125 769.520833333 879.48828125 802.854166667 879.48828125 836.1875 c 1
 167.48828125 836.1875 l 1
167.48828125 496.1875 m 1
 167.48828125 462.854166667 167.48828125 429.520833333 167.48828125 396.1875 c 1
 879.48828125 396.1875 l 1
 879.48828125 429.520833333 879.48828125 462.854166667 879.48828125 496.1875 c 1
 167.48828125 496.1875 l 1
EndSplineSet
Validated: 524289
EndChar

StartChar: greater
Encoding: 62 62 32
Width: 1024
GlyphClass: 2
Flags: HW
LayerCount: 2
Fore
SplineSet
209.551757812 1474.98046875 m 1
 186.137044271 1451.25585938 162.722330729 1427.53125 139.307617188 1403.80664062 c 1
 347.160814272 1196.80306688 560.641078332 995.426560102 758.41015625 778.338867188 c 1
 561.014044408 559.539015488 348.068542389 356.288553966 140.56640625 147.594726562 c 1
 164.104166667 123.991861979 187.641927083 100.388997396 211.1796875 76.7861328125 c 1
 213.617103809 79.2168019824 l 1
 229.56640625 64.349609375 l 1
 443.509027778 293.256922743 653.828347699 525.787537717 879.354492188 743.111328125 c 1
 915.041015625 778.69921875 l 1
 822.32379372 870.207197525 729.605706218 961.714310704 636.8881285 1053.22193367 c 1
 227.947265625 1487.42285156 l 1
 212.083247639 1472.48202136 l 1
 209.551757812 1474.98046875 l 1
EndSplineSet
Validated: 524297
EndChar

StartChar: question
Encoding: 63 63 33
Width: 928
GlyphClass: 2
Flags: HMW
HStem: 1428 122<373.428 397.455 397.455 508.815 309.779 518.676> 1450 78<397.455 508.815 508.815 535.214 352.145 559.876>
VStem: 377.702 137.77<0 264.495 0 264.495> 415.472 62.2305<0 264.495 0 264.495> 684.011 136.733<1054.36 1191.15 995.418 1288.56> 720.744 63.2666
LayerCount: 2
Fore
SplineSet
80.4619140625 1364.0078125 m 1
 104.033528646 1340.43880208 127.605143229 1316.86979167 151.176757812 1293.30078125 c 1
 151.240606498 1293.36463703 151.305694559 1293.43009756 151.372017771 1293.49715033 c 2
 182.512695312 1260.51367188 l 1
 206.250976562 1282.92675781 284.756835938 1428 462.099609375 1428 c 0
 575.252929688 1428 684.010742188 1397.00683594 684.010742188 1180.10839844 c 0
 684.010742188 928.607421875 377.109375 870.453125 377.109375 489.784179688 c 1
 410.442708333 489.784179688 443.776041667 489.784179687 477.109375 489.784179688 c 1
 477.109619947 490.25390625 l 1
 514.38671875 490.25390625 l 1
 514.38671875 816.78515625 820.744140625 799.6875 820.744140625 1191.14941406 c 1
 816.154296875 1428.71191406 666.83984375 1550 508.815429688 1550 c 2
 397.455078125 1550 l 2
 222.102539062 1550 91.3388671875 1376.43359375 80.4619140625 1364.0078125 c 1
377.702148438 0 m 1
 515.471679688 0 l 1
 515.471679688 264.495117188 l 1
 377.702148438 264.495117188 l 1
 377.702148438 0 l 1
EndSplineSet
Validated: 8912905
EndChar

StartChar: at
Encoding: 64 64 34
Width: 1368
GlyphClass: 2
Flags: HMW
HStem: -241.358 125.812<651.949 770.397> -215.546 74.1875<650.025 766.658 498.724 808.706> -29.8564 138.859<621.564 659.443 573.306 712.15> 9.00293 61.1406<620.781 667.429 620.781 688.772> 689.719 132.426<572.115 576.516 576.516 635.042 491.659 664.623> 722.145 67.5742<576.516 635.042 635.042 670.998> 918.452 122.639<502.234 812.376> 941.091 77.3613<506.945 813.616>
VStem: 107.146 132.792<243.011 500.874 186.644 570.741> 139.938 67.208<255.769 506.776> 341.889 140.29<299.843 509.031> 382.179 59.71<303.996 512.085 283.157 527.295> 784.175 100.339<551.844 575.125> 1062.43 138.418<480.817 600.903> 1100.85 61.582<481.026 616.181 296.678 623.253>
LayerCount: 2
Fore
SplineSet
1065.03417969 -170.657226562 m 0
 1065.03417969 -137.323893229 1065.03417969 -103.990559896 1065.03417969 -70.6572265625 c 1
 996.543945312 -70.6572265625 968.150390625 -115.545898438 651.94921875 -115.545898438 c 1
 449.283203125 -107.74609375 239.938476562 7.2314453125 239.938476562 366.055664062 c 0
 239.938476562 635.69140625 322.890625 918.452148438 681.578125 918.452148438 c 0
 943.173828125 918.452148438 1062.43457031 736.705078125 1062.43457031 465.100585938 c 0
 1062.43457031 226.614257812 991.369140625 123.509765625 964.672851562 92.470703125 c 1
 884.616210938 92.4005331425 l 1
 884.616210938 811.162109375 l 1
 883.616210938 811.162109375 784.616210938 812.162109375 784.616210938 811.162109375 c 1
 757.713867188 811.162109375 l 1
 757.713867188 778.782399746 l 1
 724.067877494 804.808037055 683.331773666 822.14453125 635.041992188 822.14453125 c 2
 576.515625 822.14453125 l 2
 406.801757812 822.14453125 341.888671875 617.61328125 341.888671875 400.448242188 c 0
 341.888671875 154.13671875 442.638671875 -32.6572265625 621.564453125 -29.8564453125 c 0
 676.109328117 -29.8564453125 721.253691368 -10.785973365 757.713867188 15.8719286355 c 1
 757.713867188 -7.7109375 l 1
 784.616210938 -7.68731362511 l 1
 784.616210938 -7.826171875 l 1
 1019.58789062 -7.826171875 l 2
 1027.50435209 -7.42776421716 1035.42262506 -7.03567020709 1043.33984375 -6.640625 c 1
 1057.10546875 7.7734375 l 2
 1064.10449219 15.103515625 1199.5234375 162.162109375 1200.85253906 480.817382812 c 0
 1200.85253906 807.259765625 1015.84277344 1041.09082031 669.114257812 1041.09082031 c 0
 277.159179688 1041.09082031 107.146484375 760.770507812 107.146484375 380.711914062 c 0
 107.146484375 105.310546875 243.145507812 -241.358398438 680.526367188 -241.358398438 c 0
 860.268554688 -241.358398438 1042.99316406 -194.7265625 1064.80078125 -193.939453125 c 1
 1064.80078125 -170.663609892 l 2
 1064.88224107 -170.659364173 1064.96002365 -170.657226562 1065.03417969 -170.657226562 c 0
616.6015625 689.71875 m 0
 690.508104777 689.71875 738.198483663 647.705689858 757.713867188 613.161169793 c 1
 757.713867188 174.73746691 l 1
 736.062173633 153.156391906 683.290012185 109.002929688 615.603515625 109.002929688 c 0
 531.0078125 109.002929688 482.178710938 195.251953125 482.178710938 404.434570312 c 0
 482.178710938 648.869140625 527.62890625 689.71875 616.6015625 689.71875 c 0
EndSplineSet
Validated: 8912937
EndChar

StartChar: A
Encoding: 65 65 35
Width: 1296
GlyphClass: 2
Flags: HW
LayerCount: 2
Fore
SplineSet
901.142558212 543.423828125 m 1
 981.55372154 270.563848329 1049.76412657 35.6250833639 1056.91210938 0 c 1
 1215.64648438 0 l 1
 1215.64648438 49.0234375 750.495117188 1508.73242188 748.54296875 1514.95996094 c 2
 737.555664062 1550 l 1
 678.016601562 1550 618.477539063 1550 558.938476562 1550 c 1
 547.951171875 1514.95996094 l 2
 545.998046875 1508.73144531 80.84765625 49.025390625 80.84765625 0 c 1
 133.820963542 -0 186.794270833 0 239.767578125 0 c 1
 247.012519735 33.7192657966 315.579831733 269.417301101 396.238256123 543.423828125 c 1
 901.142558212 543.423828125 l 1
871.630415432 643.423828125 m 1
 425.708289192 643.423828125 l 1
 511.499094104 934.231541834 603.920736187 1245.05855526 648.313476562 1394.1875 c 1
 692.974384446 1244.86206272 785.714200756 934.158946387 871.630415432 643.423828125 c 1
EndSplineSet
Validated: 524297
EndChar

StartChar: B
Encoding: 66 66 36
Width: 1304
GlyphClass: 2
Flags: HMW
HStem: 0 140.095<727.148 728.942 727.148 768.608 727.148 931.58> 39.9053 60.0947<252.142 768.608> 770 100<262.133 622.657 302.122 622.657 622.657 634.582 622.657 634.657 634.582 634.657> 1415 137.759<302.122 719.221 719.221 721.297> 1452.76 62.2412<262.133 719.221>
VStem: 992.203 152.514<1180.24 1233.05> 1044.72 47.4863 1053.82 154.399<459.505 540.334 318.111 558.976> 1108.22 45.6006
LayerCount: 2
Fore
SplineSet
162.1328125 1552.75878906 m 1
 162.1328125 1035.17252604 162.1328125 517.586263021 162.1328125 0 c 1
 364.291341146 -0 566.449869792 0 768.608398438 0 c 0
 1094.55175781 0 1208.21679688 203.87890625 1208.21679688 432.342773438 c 0
 1208.21679688 648.326171875 1098.64453125 774.295898438 933.688476562 829.30078125 c 1
 1055.38769531 886.948242188 1144.71679688 995.783203125 1144.71679688 1167.03125 c 0
 1144.71679688 1386.12988281 1002.86523438 1552.75878906 721.296875 1552.75878906 c 0
 534.908854167 1552.75878906 348.520833333 1552.75878906 162.1328125 1552.75878906 c 1
622.657226562 770 m 2
 872.940277849 770 1053.81738281 703.836073111 1053.81738281 459.504882812 c 0
 1056.95472601 255.355963565 977.504408181 140.094726562 727.1484375 140.094726562 c 2
 302.122070312 139.924804688 l 1
 302.122070312 770 l 1
 622.657226562 770 l 2
302.122070312 870 m 1
 302.122070312 1415 l 1
 719.220703125 1415 l 2
 917.698242188 1415 992.203125 1285.86132812 992.203125 1180.24121094 c 0
 996.202913045 967.810531552 830.774999837 870.000000427 622.657226562 870 c 2
 302.122070312 870 l 1
EndSplineSet
Validated: 8912937
EndChar

StartChar: C
Encoding: 67 67 37
Width: 1360
GlyphClass: 2
Flags: HMW
HStem: -16.251 145.829<566.163 827.089 566.163 890.685> 29.5781 54.1709<552.21 854.257> 1413.5 138.295<559.75 660.987 660.987 768.701 459.237 834.688> 1451.79 61.7051<660.987 768.701 768.701 861.016 520.028 880.067>
VStem: 121.815 141.419<594.969 973.035> 163.234 58.5811<586.379 969.57 557.624 986.222> 1099 160<419.701 575> 1159 40<426.844 575>
LayerCount: 2
Fore
SplineSet
1095 1016.13574219 m 1
 1255 1016.13574219 l 1
 1255 1314.06152344 1054.71777344 1551.79003906 768.701171875 1551.79003906 c 2
 660.987304688 1551.79003906 l 2
 257.486328125 1551.79003906 121.815429688 1174.41503906 121.815429688 771.655273438 c 0
 121.815429688 322.479492188 318.440429688 -16.2509765625 707.259765625 -16.2509765625 c 0
 1074.11035156 -16.2509765625 1259 239.93359375 1259 575 c 1
 1099 575 l 1
 1099 264.401367188 947.383789062 129.578125 706.793945312 129.578125 c 0
 425.532226562 129.578125 263.234375 418.499023438 263.234375 771.439453125 c 0
 263.234375 1182.53710938 416.241210938 1413.49511719 703.259765625 1413.49511719 c 0
 966.115234375 1413.49511719 1095 1267.85449219 1095 1016.13574219 c 1
EndSplineSet
Validated: 8912905
EndChar

StartChar: D
Encoding: 68 68 38
Width: 1328
GlyphClass: 2
Flags: HMW
HStem: 0 145<162.133 507.197 302.122 464.101 464.101 507.197 302.122 635.16> 45 55<202.122 464.101 262.133 464.101 262.133 507.197 262.133 720.423> 1415 137.759<302.122 468.652> 1452.76 62.2412<262.133 468.652 468.652 499.118>
VStem: 1046.67 157.792<783.481 805.1> 1104.47 42.208
LayerCount: 2
Fore
SplineSet
499.118164062 1415 m 2
 900.919268572 1415 1052.37792866 1159.25342396 1046.67480469 805.099609375 c 1
 1046.67480469 395.149414062 865.407226562 145 507.197265625 145 c 2
 302.122070312 145 l 1
 302.122070312 1415 l 1
 499.118164062 1415 l 2
468.65234375 1552.75878906 m 0
 366.479166667 1552.75878906 264.305989583 1552.75878906 162.1328125 1552.75878906 c 1
 162.1328125 0 l 1
 262.788736979 -0 363.444661458 0 464.100585938 0 c 0
 806.21875 0 1203.43847656 156.629882812 1204.46679688 783.481445312 c 0
 1204.46679688 1430.62695312 785.631835938 1552.75878906 468.65234375 1552.75878906 c 0
EndSplineSet
Validated: 8912937
EndChar

StartChar: E
Encoding: 69 69 39
Width: 1160
GlyphClass: 2
Flags: HMW
VStem: 251.981 10.1514<774.45 824.45 774.45 774.45 824.45 874.45>
LayerCount: 2
Fore
SplineSet
302.122070312 874.450195312 m 1
 302.122070312 1415 l 1
 1000 1415 l 1
 1000 1552.75878906 l 1
 720.7109375 1552.75878906 441.421875 1552.75878906 162.1328125 1552.75878906 c 1
 162.1328125 0 l 1
 441.421875 -0 720.7109375 0 1000 0 c 1
 1000 40.0947233465 l 1
 1000.01269531 40.0947265625 l 1
 1000 90.0947265625 l 1
 1000 100 l 1
 999.997484989 100 l 1
 999.987304688 140.094726562 l 1
 302.122070312 139.91796875 l 1
 302.122070312 772.680633977 l 1
 500.652375327 770.609065612 914.805866852 774.444883373 919.84765625 774.450195312 c 1
 919.794921875 824.450195312 l 1
 919.794921875 874.450195312 l 1
 302.122070312 874.450195312 l 1
EndSplineSet
Validated: 524329
EndChar

StartChar: F
Encoding: 70 70 40
Width: 1128
GlyphClass: 2
Flags: HMW
VStem: 252.071 10.0615<774.45 824.45 774.45 774.45 824.45 874.45>
LayerCount: 2
Fore
SplineSet
889.185546875 774.453125 m 1
 889.185546875 807.786458333 889.185546875 841.119791667 889.185546875 874.453125 c 1
 302.122070312 874.453125 l 1
 302.122070312 1415 l 1
 1000 1415 l 1
 1000 1552.75878906 l 1
 720.7109375 1552.75878906 441.421875 1552.75878906 162.1328125 1552.75878906 c 1
 162.1328125 1035.17252604 162.1328125 517.586263021 162.1328125 0 c 1
 302.122070312 0 l 1
 302.122070312 774.450195312 l 1
 888.717773438 774.450195312 l 1
 889.185546875 774.453125 l 1
EndSplineSet
Validated: 524297
EndChar

StartChar: G
Encoding: 71 71 41
Width: 1392
GlyphClass: 2
Flags: HMW
HStem: -16.251 145.829<566.163 800.702 566.163 888.026> 29.5781 54.1709<552.21 814.749> 1431.14 120.653<560.586 660.987 660.987 768.701 459.237 835.248> 1451.79 79.3467<660.987 768.701 768.701 860.455 519.192 883.64>
VStem: 121.815 141.419<594.969 973.035> 163.234 58.5811<586.379 969.57 557.624 985.614> 1093.27 39.9893<261.176 265.058 261.176 261.176 265.058 675> 1133.26 60.0107<247.01 266.358 268.937 675 356.93 461.172> 1133.26 100<0 12.1562 0 12.1562 0 12.1562 12.1562 675 356.93 461.172>
LayerCount: 2
Fore
SplineSet
1180.99905778 1129.65625 m 1
 1199.9765854 1129.65625 1218.95411301 1129.65625 1237.93164062 1129.65625 c 1
 1237.93164062 1352.75976562 1047.57128906 1551.79003906 768.701171875 1551.79003906 c 2
 660.987304688 1551.79003906 l 2
 257.486328125 1551.79003906 121.815429688 1174.41503906 121.815429688 771.655273438 c 0
 121.815429688 322.479492188 318.440429688 -16.2509765625 707.259765625 -16.2509765625 c 0
 893.199497711 -16.2509765625 1027.01170819 41.8913882299 1113.13210032 133.416130689 c 1
 1122.62223797 72.0320702422 1132.25808315 9.05056359288 1133.25683594 0 c 1
 1166.59016927 -0 1199.9235026 0 1233.25683594 0 c 1
 1233.25683594 775 l 1
 1083.83789062 775 934.418945313 775 785 775 c 1
 785 741.666666667 785 708.333333333 785 675 c 1
 1093.26757812 675 l 1
 1093.26757812 274.171727058 l 1
 1090.73562124 270.583360684 1085.78276497 264.591307583 1078.74511719 257.729492188 c 0
 1029.3359375 209.55078125 894.609375 129.578125 706.793945312 129.578125 c 0
 425.532226562 129.578125 263.234375 418.499023438 263.234375 771.439453125 c 0
 263.234375 1183.75195312 417.912109375 1431.13671875 703.259765625 1431.13671875 c 0
 967.236328125 1431.13671875 1081 1255.30761719 1081 1128.88867188 c 1
 1181 1128.88867188 l 1
 1180.99905778 1129.65625 l 1
EndSplineSet
Validated: 8912905
EndChar

StartChar: H
Encoding: 72 72 42
Width: 1312
GlyphClass: 2
Flags: HMW
VStem: 251.204 10.9287<791.424 841.424 791.424 791.424 841.424 891.424> 1044.12 10.5898<791.424 841.424 841.424 891.424>
LayerCount: 2
Fore
SplineSet
1144.12207031 1550 m 1
 1004.1328125 1550 l 1
 1004.1328125 891.423828125 l 1
 302.122070312 891.423828125 l 1
 302.122070312 1550 l 1
 162.1328125 1550 l 1
 162.1328125 0 l 1
 302.122070312 0 l 1
 302.122070312 791.423828125 l 1
 1004.1328125 791.423828125 l 1
 1004.1328125 0 l 1
 1144.12207031 0 l 1
 1144.12207031 1550 l 1
EndSplineSet
Validated: 524297
EndChar

StartChar: I
Encoding: 73 73 43
Width: 504
GlyphClass: 2
Flags: HMW
HStem: 95 5<41.4199 454.85 214.122 264.122 264.122 314.122 314.122 314.122 41.4199 454.85>
VStem: 41.4199 413.43<0 50 0 50 45 45 45 50 50 95 50 95 95 100 95 100 100 145 1415 1465 1450 1450 1450 1465 1465 1500 1465 1500 1500 1515 1500 1515 1515 1550>
LayerCount: 2
Fore
SplineSet
41.419921875 1550 m 1
 41.419921875 1415 l 1
 178.1328125 1415 l 1
 178.1328125 145 l 1
 41.419921875 145 l 1
 41.419921875 0 l 1
 454.849609375 0 l 1
 454.849609375 145 l 1
 314.122070312 145 l 1
 314.122070312 1415 l 1
 454.849609375 1415 l 1
 454.849609375 1550 l 1
 41.419921875 1550 l 1
EndSplineSet
Validated: 524297
EndChar

StartChar: J
Encoding: 74 74 44
Width: 1112
GlyphClass: 2
Flags: HMW
HStem: -20.0029 144.993 25.0098 54.9932
VStem: 806.789 136.166<355.573 1550 545.221 1550 545.221 1550> 842.955 63.834<543.203 1550 543.203 543.203>
LayerCount: 2
Fore
SplineSet
118 103.586396136 m 1
 118 85.0471807576 118 66.5079653788 118 47.96875 c 1
 146.418945312 37.708984375 273.719726562 -19.5966796875 437.234375 -20.0029296875 c 1
 622.146484375 -12.599609375 961.899414062 60.8740234375 942.955078125 545.220703125 c 1
 942.955078125 1550 l 1
 806.7890625 1550 l 1
 806.7890625 518.529296875 l 2
 806.7890625 192.6171875 638.500976562 128.734375 445.596679688 124.990234375 c 0
 298.143554688 122.12890625 168.303710938 207.859375 118 207.859375 c 1
 118 155.859375 l 2
 118 154.859375 102.6953125 110.254882812 102.6953125 110.254882812 c 1
 105.856628875 108.929434133 111.044319122 106.618222244 118 103.586396136 c 1
EndSplineSet
Validated: 8912937
EndChar

StartChar: K
Encoding: 75 75 45
Width: 1224
GlyphClass: 2
Flags: HW
LayerCount: 2
Fore
SplineSet
953.423828125 1550 m 1
 1104.42382812 1550 l 1
 1104.42382812 1538 561.704526216 957.566515232 561.704526216 957.566515232 c 1
 671.407357279 775.003044031 1104.60839844 51.1841761716 1104.60839844 0 c 1
 1087.94173177 0 1071.2750651 -0 1054.60839844 0 c 1
 1007.93554688 -17.958984375 l 1
 1006.19996707 -14.53734512 1003.27128224 -9.08812380457 999.271790876 -1.82031209252 c 1
 957.7890625 -12.802734375 l 1
 928.013303814 55.1969094815 597.899399251 640.09223576 469.726000418 866.604903407 c 1
 302.5 708.796505678 l 1
 302.5 0 l 1
 164.73046875 0 l 1
 164.73046875 1550 l 1
 302.5 1550 l 1
 302.5 858.391601562 l 1
 953.423828125 1550 l 1
EndSplineSet
Validated: 524289
EndChar

StartChar: L
Encoding: 76 76 46
Width: 1104
GlyphClass: 2
Flags: HW
LayerCount: 2
Fore
SplineSet
302.122070312 1550 m 1
 162.1328125 1550 l 1
 162.1328125 1033.33333333 162.1328125 516.666666667 162.1328125 0 c 1
 423.088541667 -0 684.044270833 0 945 0 c 1
 945 145 l 1
 302.122070312 145 l 1
 302.122070312 1550 l 1
EndSplineSet
Validated: 524297
EndChar

StartChar: M
Encoding: 77 77 47
Width: 1520
GlyphClass: 2
Flags: HW
LayerCount: 2
Fore
SplineSet
1186.51074219 0 m 1
 1326.6328125 0 l 1
 1326.6328125 516.666666667 1326.6328125 1033.33333333 1326.6328125 1550 c 1
 1112.96875 1550 l 1
 990.318378893 1226.16046225 867.666544767 902.322387525 745.015625 578.483398438 c 1
 621.882417671 902.322196317 498.749761233 1226.16154509 375.616210938 1550 c 1
 162 1550 l 1
 162 1033.33333333 162 516.666666667 162 0 c 1
 302.122070312 0 l 1
 302.122070312 1365.328125 l 1
 429.063024529 1059.49596724 556.004984762 753.664815492 682.9453125 447.83203125 c 1
 687.708532081 447.83203125 l 1
 687.838867188 447.489257812 l 1
 722.328125 447.497070312 l 1
 745.58203125 447.502929688 l 1
 745.58203125 447.502929688 801.174623505 444.426066942 802.464558562 447.83203125 c 1
 805.688476562 447.83203125 l 1
 932.628493787 753.664474963 1059.57012111 1059.49530858 1186.51074219 1365.32714844 c 1
 1186.51074219 0 l 1
EndSplineSet
Validated: 524297
EndChar

StartChar: N
Encoding: 78 78 48
Width: 1312
GlyphClass: 2
Flags: HW
LayerCount: 2
Fore
SplineSet
162 0 m 1
 302.122070312 0 l 1
 302.122070312 1385.52441406 l 1
 594.286128433 771.742750252 l 1
 701.996695551 514.495120513 809.707633972 257.247862078 917.41796875 0 c 1
 1145 0 l 1
 1145 516.666666667 1145 1033.33333333 1145 1550 c 1
 1003.82324219 1550 l 1
 1003.82324219 150 l 1
 1000.99121094 150 l 1
 685.597878256 812.581834779 l 1
 582.67792846 1058.38793593 479.757608161 1304.19366659 376.837890625 1550 c 1
 162 1550 l 1
 162 1033.33333333 162 516.666666667 162 0 c 1
EndSplineSet
Validated: 524297
EndChar

StartChar: O
Encoding: 79 79 49
Width: 1448
GlyphClass: 2
Flags: HMW
HStem: -16.251 138.295<718.714 726.759 575.884 912.965> 22.0439 61.7051<718.948 727.956> 1404.96 146.829<568.554 676.987 676.987 763.529 503.221 872.905> 1451.79 53.1709<676.987 763.529 763.529 893.467>
VStem: 129.815 141.419<559.107 941.08 559.107 975.776> 171.234 58.5811<559.777 948.651> 1168.56 142.141<569.302 941.647> 1210.7 57.8594<559.939 949.038 559.939 966.836>
LayerCount: 2
Fore
SplineSet
129.815429688 771.655273438 m 0
 129.815429688 323.064965718 332.879585985 -16.2509765625 720.2578125 -16.2509765625 c 0
 1105.671875 -16.2509765625 1310.70117188 321.641601562 1310.70117188 771.655273438 c 0
 1310.70117188 1179.88378906 1111.20996094 1551.79003906 763.529296875 1551.79003906 c 2
 676.987304688 1551.79003906 l 2
 329.455078125 1551.79003906 129.815429688 1179.89648438 129.815429688 771.655273438 c 0
1168.56054688 765.099609375 m 0
 1168.56054688 361.769875053 1015.70412069 122.043945312 720.2578125 122.043945312 c 0
 431.510742188 122.043945312 271.234375 354.115234375 271.234375 764.099609375 c 0
 271.234375 1118.05957031 416.127929688 1404.9609375 720.979492188 1404.9609375 c 0
 1024.83007812 1404.9609375 1168.56054688 1118.19433594 1168.56054688 765.099609375 c 0
EndSplineSet
Validated: 8912905
EndChar

StartChar: P
Encoding: 80 80 50
Width: 1264
GlyphClass: 2
Flags: HMW
HStem: 770 120<262.133 622.657 622.657 634.582 634.582 634.657 252.354 738.321> 790 80<262.133 262.133 262.133 622.657 262.133 262.133 262.133 622.657 302.122 622.657> 790 100<252.354 634.582 252.354 634.582 302.122 634.582 634.582 634.657 634.582 634.582 634.582 634.582 252.354 636.403> 1415 137.759<302.122 719.221 719.221 721.297> 1452.76 62.2412<262.133 719.221>
VStem: 252.354 9.7793<870 890 870 890> 992.203 152.514<1180.24 1233.05> 1044.72 47.4863
LayerCount: 2
Fore
SplineSet
162.1328125 1552.75878906 m 1
 162.1328125 0 l 1
 302.122070312 0 l 1
 302.122070312 770 l 1
 622.657226562 770 l 2
 853.984375 770 1144.71679688 850.017578125 1144.71679688 1167.03125 c 0
 1144.71679688 1386.12988281 1002.86523438 1552.75878906 721.296875 1552.75878906 c 0
 534.908854167 1552.75878906 348.520833333 1552.75878906 162.1328125 1552.75878906 c 1
302.122070312 890 m 1
 302.122070312 1415 l 1
 719.220703125 1415 l 2
 917.698242188 1415 992.203125 1285.86132812 992.203125 1180.24121094 c 0
 996.224792786 966.639477457 818.716078381 890 634.657226562 890 c 0
 302.122070312 890 l 1
EndSplineSet
Validated: 8912937
EndChar

StartChar: Q
Encoding: 81 81 51
Width: 1448
GlyphClass: 2
Flags: HMW
HStem: -300 128<1085.96 1204.63 1085.96 1204.63> -272 72<1087.9 1204.63 1087.9 1204.63> 1404.96 146.829<568.554 676.987 676.987 763.529 503.221 872.905> 1451.79 53.1709<676.987 763.529 763.529 893.467>
VStem: 129.815 141.419<559.107 941.08 559.107 975.776> 171.234 58.5811<559.777 948.651> 670.363 100<145.664 370.641 145.664 370.641 145.664 370.641 145.664 370.641> 1168.56 142.141<569.302 941.647> 1210.7 57.8594<559.939 949.038 559.939 966.836>
LayerCount: 2
Fore
SplineSet
129.815429688 771.655273438 m 0
 129.815429688 323.064965718 332.879585985 -16.2509765625 720.2578125 -16.2509765625 c 0
 727.666837839 -16.2509765625 735.009202933 -16.1261101313 742.284732709 -15.8779811404 c 1
 835.974548615 -218.636216339 1010.85141169 -300 1204.62695312 -300 c 1
 1204.62695312 -172 l 1
 1058.09911561 -172 926.97409766 -135.787740437 848.083869977 -2.73787979023 c 1
 1150.83963923 64.3459715376 1310.70117187 374.290162173 1310.70117188 771.655273438 c 0
 1310.70117188 1179.88378906 1111.20996094 1551.79003906 763.529296875 1551.79003906 c 2
 676.987304688 1551.79003906 l 2
 329.455078125 1551.79003906 129.815429688 1179.89648438 129.815429688 771.655273438 c 0
770.36328125 370.640625 m 1
 737.029947917 370.640625 703.696614583 370.640625 670.36328125 370.640625 c 1
 670.36328125 276.928864715 679.337249773 194.556487042 695.862511367 122.609185672 c 1
 422.497348114 135.428437272 271.234375 365.810091727 271.234375 764.099609375 c 0
 271.234375 1118.05957031 416.127929688 1404.9609375 720.979492188 1404.9609375 c 0
 1024.83007812 1404.9609375 1168.56054688 1118.19433594 1168.56054688 765.099609375 c 0
 1168.56054688 392.848240012 1034.54520754 166.087767044 796.218113553 127.853113739 c 1
 779.503230975 194.132992216 770.36328125 274.203491212 770.36328125 370.640625 c 1
EndSplineSet
Validated: 8912905
EndChar

StartChar: R
Encoding: 82 82 52
Width: 1280
GlyphClass: 2
Flags: HMW
HStem: 770 120<262.133 622.657 622.657 634.582 634.582 634.657 252.354 738.321> 790 80<262.133 262.133 262.133 622.657 262.133 262.133 262.133 622.657 302.122 606.866 606.866 622.657> 1415 137.759<302.122 719.221 719.221 721.297> 1452.76 62.2412<262.133 719.221>
VStem: 252.354 9.7793<870 890 870 890> 992.203 152.514<1180.24 1233.05> 1044.72 47.4863
LayerCount: 2
Fore
SplineSet
1120.51269531 0.2861328125 m 1
 1170.51269531 0.2861328125 l 1
 1170.51269531 48.3919263957 842.312730835 580.08114177 721.025189048 774.997102365 c 1
 928.776282068 796.637108247 1144.71679687 893.820158944 1144.71679688 1167.03125 c 0
 1144.71679688 1386.12988281 1002.86523438 1552.75878906 721.296875 1552.75878906 c 0
 534.908854167 1552.75878906 348.520833333 1552.75878906 162.1328125 1552.75878906 c 1
 162.1328125 0 l 1
 302.122070312 0 l 1
 302.122070312 770 l 1
 585.475581948 770 l 1
 677.152558575 605.126329292 986.551385733 47.7882580035 1014.15429688 -14.044921875 c 1
 1062.14746094 0 l 1
 1064.04760771 5.68434188608e-14 l 1
 1068.60872323 -8.03835540892 1071.94467143 -14.0654177687 1073.88769531 -17.8037109375 c 1
 1120.51269531 0.2861328125 l 1
634.58203125 890 m 0
 523.762044271 890 412.942057292 890 302.122070312 890 c 1
 302.122070312 1415 l 1
 719.220703125 1415 l 2
 917.698242188 1415 992.203125 1285.86132812 992.203125 1180.24121094 c 0
 996.225503577 966.601725392 818.685148801 890 634.58203125 890 c 0
EndSplineSet
Validated: 8912937
EndChar

StartChar: S
Encoding: 83 83 53
Width: 1232
GlyphClass: 2
Flags: HMW
HStem: -20 145<487.099 636.926 487.099 729.5> 25 55 1420 129.945 1449.95 70.0547<482.518 528.088>
VStem: 133.667 139.113<1166.36 1226.79 1045.29 1313.85> 172.78 60.8867 934.001 162.598<1095.73 1096.29> 952.929 144.535<302.642 374.471> 996.601 37.3984<1095.74 1096.27> 997.464 55.4648
LayerCount: 2
Fore
SplineSet
277.126953125 440 m 1
 225.21875 440 173.310546875 440 121.40234375 440 c 1
 121.40234375 237.640625 270.8125 -20 593.517578125 -20 c 0
 865.481445312 -20 1097.46386719 82.4814453125 1097.46386719 381.15625 c 0
 1097.46386719 675.275347587 884.624797459 754.682108835 686.99609375 805.828125 c 1
 568.751953125 840.265625 l 2
 411.204101562 886.149414062 272.780273438 939.47265625 272.780273438 1151.11621094 c 0
 272.780273438 1302.47070312 409.51953125 1419.6171875 592.758789062 1420 c 1
 844.06640625 1414.94921875 933.2109375 1240.51171875 934.000976562 1095.72753906 c 1
 954.866873864 1095.84124412 975.732771166 1095.95494918 996.598668468 1096.06865424 c 1
 996.598668468 1095.96017555 996.600585938 1095.85167882 996.600585938 1095.74316406 c 1
 1029.93326823 1095.92545573 1063.26595052 1096.1077474 1096.59863281 1096.29003906 c 1
 1095.1171875 1367.42480469 869.008789062 1550.26855469 643.7734375 1550.0546875 c 2
 528.017578125 1549.9453125 l 2
 409.537109375 1549.9453125 133.666992188 1461.34667969 133.666992188 1166.36328125 c 1
 141.671875 863.229492188 350.706054688 794.765625 535.909179688 745.650390625 c 1
 702.702148438 696.70703125 l 1
 883.204791482 648.341996958 954.910251183 539.223892099 952.928710938 374.470703125 c 0
 952.928710938 226.123064932 857.045775854 119.631219644 636.92578125 125 c 1
 337.271484375 125 277.126953125 360.352539062 277.126953125 440 c 1
EndSplineSet
Validated: 8912937
EndChar

StartChar: T
Encoding: 84 84 54
Width: 1208
GlyphClass: 2
Flags: HW
LayerCount: 2
Fore
SplineSet
80 1550 m 1
 80 1415 l 1
 530.1328125 1415 l 1
 530.1328125 0 l 1
 670.122070312 0 l 1
 670.122070312 1415 l 1
 1120 1415 l 1
 1120 1550 l 1
 80 1550 l 1
EndSplineSet
Validated: 524297
EndChar

StartChar: U
Encoding: 85 85 55
Width: 1312
GlyphClass: 2
Flags: HMW
HStem: -20 145<570.179 747.701 570.179 751.892> 25 55<581.003 737.058 581.003 768.975>
VStem: 168.79 136.166<538.529 544.217 544.217 1550> 204.956 63.834<345.39 1550 544.217 1550 544.217 1550> 1012.79 136.166<371.136 1550 544.217 1550 544.217 1550> 1048.96 63.834<538.529 544.217 544.217 1550>
LayerCount: 2
Fore
SplineSet
1148.95507812 1550 m 1
 1012.7890625 1550 l 1
 1012.7890625 538.529296875 l 2
 1012.7890625 203.743164062 836.530273438 125 658.872070312 125 c 0
 481.485351562 125 304.956054688 205.89453125 304.956054688 538.529296875 c 2
 304.956054688 1550 l 1
 168.790039062 1550 l 1
 168.790039062 544.216796875 l 2
 168.790039062 64.744140625 472.19921875 -20 658.872070312 -20 c 0
 844.912109375 -20 1148.95507812 59.544921875 1148.95507812 544.216796875 c 2
 1148.95507812 1550 l 1
EndSplineSet
Validated: 8912905
EndChar

StartChar: V
Encoding: 86 86 56
Width: 1296
GlyphClass: 2
Flags: HW
LayerCount: 2
Fore
SplineSet
1226.45214844 1550 m 1
 1065.43359375 1550 l 1
 1049.0374834 1474.83700445 720.49870272 321.120017496 657.555100184 100.166992188 c 1
 644.010329787 100.166992188 l 1
 581.70622514 318.876427231 252.525949656 1474.84599298 236.131835938 1550 c 1
 182.458984375 1550 128.786132812 1550 75.11328125 1550 c 1
 75.11328125 1500.29785156 544.690429688 41.2958984375 546.661132812 35.0732421875 c 2
 557.713867188 0.1669921875 l 1
 568.529822379 0.1669921875 l 1
 568.579101562 -0.005859375 l 1
 732.986328125 -0.005859375 l 1
 733.035607309 0.1669921875 l 1
 743.8515625 0.1669921875 l 1
 754.904296875 35.0732421875 l 2
 756.875976562 41.298828125 1226.45214844 1500.29394531 1226.45214844 1550 c 1
EndSplineSet
Validated: 524297
EndChar

StartChar: W
Encoding: 87 87 57
Width: 1520
GlyphClass: 2
Flags: HW
LayerCount: 2
Fore
SplineSet
1417.69921875 1550 m 1
 1263.73632812 1550 l 1
 1259.09570312 1491.84472656 1095.44042969 337.9375 1061.54492188 100 c 1
 1057.12597656 100 l 1
 997.464128308 583.333594454 937.800209745 1066.6651186 878.139648438 1550 c 1
 794.505533854 1550 710.871419271 1550 627.237304688 1550 c 1
 567.594240784 1066.66812901 507.954367717 583.333067179 448.3125 100 c 1
 443.895507812 100 l 1
 410.348632812 335.500976562 246.1328125 1492.2265625 241.609375 1550 c 1
 190.319986979 1550 139.030598958 1550 87.7412109375 1550 c 1
 87.7412109375 1497.49023438 325.670898438 46.1884765625 326.354492188 41.9814453125 c 2
 333.174804688 0 l 1
 560.916992188 0 l 1
 624.820832922 464.041471765 688.724248388 928.0833688 752.627929688 1392.125 c 1
 816.595059423 928.083340673 880.562130935 464.041623122 944.529296875 0 c 1
 1172.26367188 0 l 1
 1179.08496094 41.98046875 l 2
 1179.76074219 46.140625 1417.69921875 1497.40820312 1417.69921875 1550 c 1
EndSplineSet
Validated: 524297
EndChar

StartChar: X
Encoding: 88 88 58
Width: 1232
GlyphClass: 2
Flags: HW
LayerCount: 2
Fore
SplineSet
1132.23339844 0 m 17
 1132.23339844 32.7960526367 909.250825984 403.15428787 680.452251358 776.308116247 c 1
 909.230252588 1149.35151315 1132.23339844 1518.85004828 1132.23339844 1550 c 1
 973 1553 l 17
 973 1553 763.501999098 1159.75910919 614.987304688 889.47378181 c 1
 473.623906106 1150.03714366 262 1550 262 1550 c 1
 97.7412109375 1550 l 1
 97.7412109375 1518.85004828 320.744356787 1149.35151315 549.522358017 776.308116247 c 1
 320.723783391 403.15428787 97.7412109375 32.7958984375 97.7412109375 0 c 9
 256.12890625 -2.6181640625 l 17
 256.12890625 -2.6181640625 446.912263834 349.286417519 614.987304688 658.855805396 c 1
 783.062345541 349.286417519 973 0 973 0 c 1
 1132.23339844 0 l 17
EndSplineSet
Validated: 524297
EndChar

StartChar: Y
Encoding: 89 89 59
Width: 1208
GlyphClass: 2
Flags: HW
LayerCount: 2
Fore
SplineSet
536.5 0 m 1
 674 0 l 1
 674 702.298223839 l 1
 727.4076352 797.758230233 1107.51953125 1478.87296376 1107.51953125 1550 c 1
 1056.23828125 1550 1004.95703125 1550 953.67578125 1550 c 1
 933.564453125 1486.65820312 685.561523438 961.735351562 605.184570312 792.305664062 c 1
 523.7109375 964.130859375 276.8359375 1486.84960938 256.705078125 1550 c 1
 205.415364583 1550 154.125651042 1550 102.8359375 1550 c 1
 102.8359375 1477.36637704 484.560507294 794.297862682 536.5 701.581869753 c 1
 536.5 0 l 1
EndSplineSet
Validated: 524297
EndChar

StartChar: Z
Encoding: 90 90 60
Width: 1160
GlyphClass: 2
Flags: HMW
HStem: 40 60<254.756 999.595 999.595 1000.12 254.756 1013.21> 1450 65<156.756 903.595>
LayerCount: 2
Fore
SplineSet
106.228515625 1465 m 0
 106.228515625 1437.765625 128.994140625 1415 156.228515625 1415 c 2
 845.934570312 1415 l 1
 508.237878941 752.988200336 l 1
 161.412109375 149.926757812 l 2
 157.068359375 142.373046875 154.755859375 133.576171875 154.755859375 125 c 2
 154.755859375 50 l 2
 154.755859375 19.7353515625 183.295898438 0 204.755859375 0 c 2
 1000.12207031 0 l 2
 1027.35644531 0 1050.12207031 22.765625 1050.12207031 50 c 0
 1050.12207031 57.3018688379 1048.48558238 64.2825053161 1045.56524262 70.589273339 c 1
 1048.1545202 76.5827219447 1049.59472656 83.1500092152 1049.59472656 90 c 0
 1049.59472656 117.234375 1026.82910156 140 999.594726562 140 c 2
 307.807617188 140 l 1
 596.175514684 705.308739608 l 1
 997.465820312 1403.07324219 l 2
 1001.74121094 1410.50683594 1004.12207031 1419.28613281 1004.12207031 1428 c 2
 1004.12207031 1500 l 2
 1004.12207031 1521.45996094 984.38671875 1550 954.122070312 1550 c 2
 156.755859375 1550 l 2
 129.521484375 1550 106.755859375 1527.234375 106.755859375 1500 c 0
 106.755859375 1494.12675697 107.814627105 1488.46134342 109.748653037 1483.1872689 c 0
 107.480556611 1477.52793744 106.228515634 1471.38685263 106.228515625 1465 c 0
EndSplineSet
Validated: 524297
EndChar

StartChar: bracketleft
Encoding: 91 91 61
Width: 688
GlyphClass: 2
Flags: HMW
VStem: 110 480<-185 -135 -185 -135 -135 -85 1560 1610 1610 1660>
LayerCount: 2
Fore
SplineSet
250 1560 m 1
 590 1560 l 1
 590 1593.33333333 590 1626.66666667 590 1660 c 1
 430 1660 270 1660 110 1660 c 1
 110 -185 l 1
 270 -185 430 -185 590 -185 c 1
 590 -151.666666667 590 -118.333333333 590 -85 c 1
 250 -85 l 1
 250 1560 l 1
EndSplineSet
Validated: 524297
EndChar

StartChar: backslash
Encoding: 92 92 62
Width: 1032
GlyphClass: 2
Flags: HW
LayerCount: 2
Fore
SplineSet
-763.126953125 1669.4375 m 1
 -793.58984375 1655.90494792 -824.052734375 1642.37239583 -854.515625 1628.83984375 c 1
 -469.239816521 761.559595701 l 1
 -108.138671875 -137.044921875 l 1
 -75.8183435617 -124.057059034 l 1
 -74.80078125 -126.34765625 l 1
 -44.3383719684 -112.814948344 -13.8758091015 -99.2823940235 16.5869140625 -85.75 c 1
 -377.121496007 800.513678357 l 1
 -729.790039062 1678.13476562 l 1
 -761.355651906 1665.45018377 l 1
 -763.126953125 1669.4375 l 1
EndSplineSet
Validated: 524297
EndChar

StartChar: bracketright
Encoding: 93 93 63
Width: 688
GlyphClass: 2
Flags: HMW
VStem: 110 480<-185 -135 -185 -135 -185 -135 -185 -135 -135 -85 -135 -85 1560 1560 1560 1610 1560 1610 1560 1560 1610 1660 1610 1660>
LayerCount: 2
Fore
SplineSet
590 1660 m 1
 430 1660 270 1660 110 1660 c 1
 110 1626.66666667 110 1593.33333333 110 1560 c 1
 450 1560 l 1
 450 -85 l 1
 110 -85 l 1
 110 -118.333333333 110 -151.666666667 110 -185 c 1
 270 -185 430 -185 590 -185 c 1
 590 1660 l 1
EndSplineSet
Validated: 524297
EndChar

StartChar: asciicircum
Encoding: 94 94 64
Width: 848
GlyphClass: 2
Flags: HW
LayerCount: 2
Fore
SplineSet
104 1216 m 1
 104 1408 l 1
 424 1704 l 1
 752 1392 l 1
 752 1200 l 1
 424 1512 l 1
 104 1216 l 1
EndSplineSet
Validated: 1
EndChar

StartChar: underscore
Encoding: 95 95 65
Width: 624
GlyphClass: 2
Flags: HMW
HStem: 6.17969 87.6406<0 624 0 624 0 624 0 624>
VStem: 0 624<6.17969 50 6.17969 50 6.17969 50 6.17969 50 50 93.8203 50 93.8203>
LayerCount: 2
Fore
SplineSet
0 93.8203125 m 1
 -0 64.6067708333 0 35.3932291667 0 6.1796875 c 1
 624 6.1796875 l 1
 624 35.3932291667 624 64.6067708333 624 93.8203125 c 1
 0 93.8203125 l 1
EndSplineSet
Validated: 524289
EndChar

StartChar: grave
Encoding: 96 96 66
Width: 848
GlyphClass: 2
Flags: HW
LayerCount: 2
Fore
SplineSet
582.853962913 1378.32097253 m 1
 585.797851562 1375.66894531 l 1
 611.155161962 1403.81660318 l 1
 639.29296875 1429.16503906 l 1
 636.641873851 1432.10790203 l 1
 652.729492188 1449.96582031 l 1
 482.000254181 1603.7687114 l 1
 328.193359375 1774.50292969 l 1
 310.334948197 1758.41486732 l 1
 307.391601562 1761.06640625 l 1
 282.038959832 1732.92393079 l 1
 253.896484375 1707.57128906 l 1
 256.548019148 1704.62793781 l 1
 240.459960938 1686.76953125 l 1
 411.193867088 1532.96243482 l 1
 564.99609375 1362.23339844 l 1
 582.853962913 1378.32097253 l 1
EndSplineSet
Validated: 524297
EndChar

StartChar: a
Encoding: 97 97 67
Width: 976
GlyphClass: 2
Flags: HMW
HStem: -19.0225 134.022<376.212 499.395 376.212 535.545> 15 65.9775<337.252 495.706 335.877 531.714> 640.905 97.3672<684.858 727.562 641.768 768.543> 1045 120<397.47 431.455 431.455 542.815 356.705 544.95> 1065 80<431.455 542.815 542.815 566.237 358.154 592.673>
VStem: 116.013 146.443 130.896 150.058<839.826 874.395 839.826 937.37> 162.456 53.502 180.954 49.9424<839.826 884.258> 678.011 100<216.837 836.108 216.837 836.108 225.841 836.108 225.841 836.108> 716.744 61.2666<844.666 924.767> 716.745 99.9922<0 0.908203>
LayerCount: 2
Fore
SplineSet
697.494349403 109.545194739 m 1
 707.088401183 56.466404411 715.846126561 7.22019441615 716.669921875 -0.91015625 c 1
 733.361644602 -0.606761789873 750.053376244 -0.30337624374 766.745117188 0 c 2
 816.745117188 0 l 1
 816.744140625 844.666015625 l 2
 816.744140625 1044.61035156 702.926757812 1165 542.815429688 1165 c 2
 431.455078125 1165 l 2
 281.954101562 1165 130.896484375 1034.9140625 130.896484375 839.826171875 c 1
 280.954101562 839.826171875 l 1
 280.954101562 908.962890625 306.83984375 1045 488.099609375 1045 c 0
 601.799804688 1045 678.010742188 1003.74511719 678.010742188 836.108398438 c 2
 678.010742188 739.235826531 l 1
 481.154755203 730.488897631 104.252981268 673.064366248 116.012695312 319.29296875 c 0
 117.561523438 272.46484375 143.541992188 -19.0224609375 433.201171875 -19.0224609375 c 0
 535.81219851 -19.0224609375 629.535025631 45.3452629724 697.494349403 109.545194739 c 1
678.010742188 243.656783172 m 1
 642.684420917 209.139532928 537.208233806 115 441.984375 115 c 0
 310.439453125 115 262.456054688 225.677734375 262.456054688 320.98046875 c 0
 262.456054688 552.201053422 503.196738677 625.366853459 678.010742188 636.648172411 c 1
 678.010742188 243.656783172 l 1
EndSplineSet
Validated: 8912937
EndChar

StartChar: b
Encoding: 98 98 68
Width: 1016
GlyphClass: 2
Flags: HMW
HStem: -20 135<453.279 518.802 453.279 672.164> 15 65<475.176 519.11> 1045 120.426<485.914 515.336 464.961 543.45> 1065.43 79.5742<500.81 514.887>
VStem: 207.338 61.5791<192.251 209.146 209.146 1323.54 192.251 192.251 1323.54 1625.06> 743.347 147.653<448.535 753.316 443.076 816.991> 791 52.3467<454.999 761.845>
LayerCount: 2
Fore
SplineSet
518.801757812 115 m 0
 419.32578054 115 351.660283119 165.057431751 307.337890625 208.583011991 c 1
 307.337890625 934.841133232 l 1
 365.380585676 980.629295645 452.97529384 1045.00000012 543.450195312 1045 c 0
 653.465820312 1045.96777344 743.346679688 1031.7265625 743.346679688 602.254882812 c 0
 743.346679688 294.815429688 673.365234375 115.953125 518.801757812 115 c 0
168.916992188 0.3134765625 m 1
 268.916992188 0.3134765625 l 1
 268.916992188 4.9092209011 277.51895133 44.3943062174 286.973128018 87.5290977693 c 1
 352.354852017 33.0756500811 442.404483797 -20 545.029296875 -20 c 0
 799.297851562 -20 891 284.791992188 891 601.359375 c 0
 891 905.272460938 829.65625 1164.57421875 609.912109375 1164.57421875 c 1
 515.3359375 1165.42578125 l 2
 455.209832337 1165.42578125 377.301145691 1119.1574012 307.337890625 1066.13220032 c 1
 307.337890625 1252.44099813 307.337890625 1438.74979594 307.337890625 1625.05859375 c 1
 168.916992188 1625.05859375 l 1
 168.916992188 0.3134765625 l 1
EndSplineSet
Validated: 8912937
EndChar

StartChar: c
Encoding: 99 99 69
Width: 1024
GlyphClass: 2
Flags: HMW
HStem: -20.0068 120.007<533 533> 0 79.9941<532.984 635.176> 1045 119.994<448.886 490.859 490.859 575.459 372.342 615.309> 1064.99 80.0059<490.859 575.459 575.459 649.477 405.697 654.556>
VStem: 122.762 140.317<432.577 736.793> 163.079 59.6826<432.254 732.63 397.241 746.662> 772.431 147.227<336.552 404.994 336.552 405> 819.657 52.7734<343.661 404.994>
LayerCount: 2
Fore
SplineSet
872.430664062 405 m 1
 839.097330729 405 805.763997396 405 772.430664062 405 c 1
 772.430664062 220.020507812 665.934570312 100 533.325195312 100 c 0
 350.499023438 100 263.079101562 284.038085938 263.079101562 581.116210938 c 0
 263.079101562 902.12890625 364.96875 1045 532.802734375 1045 c 0
 697.814453125 1045 771.086914062 926.180664062 771.086914062 776.48828125 c 1
 804.420247396 776.48828125 837.753580729 776.48828125 871.086914062 776.48828125 c 0
 871.086914062 776.785801731 871.086083229 777.08332804 871.086083229 777.380859375 c 2
 919.159179688 777.380859375 l 1
 919.159179688 975.467773438 803.4375 1164.99414062 575.458984375 1164.99414062 c 2
 490.859375 1164.99414062 l 2
 253.82421875 1164.99414062 122.76171875 907.87109375 122.76171875 565.715820312 c 0
 122.76171875 204.536132812 299.368164062 -23.1142578125 533.6953125 -20.0068359375 c 0
 857.555664062 -19.16015625 919.657226562 268.109375 919.657226562 404.994140625 c 1
 872.430664062 405 l 1
EndSplineSet
Validated: 8912937
EndChar

StartChar: d
Encoding: 100 100 70
Width: 1016
GlyphClass: 2
Flags: HMW
HStem: -20 135<498.577 558.859 417.626 619.808> 15 65<497.794 575.014 497.794 591.465> 1046 120.997<418.871 433.635 433.635 518.233 322.841 566.479> 1067 79.0029<433.635 518.233 518.233 582.441>
VStem: 116.762 140.317<432.146 737.355> 157.079 59.6826<433.951 740.41 408.874 759.087> 756.48 61.5781<0.313477 1323.54 227.445 1323.54 227.445 1323.54 1323.54 1625.06>
LayerCount: 2
Fore
SplineSet
684.478170625 948.254652443 m 0
 697.115158501 929.965066026 708.389274668 911.209576447 718.05859375 893.302342472 c 1
 718.05859375 240.384413261 l 1
 691.123975907 207.458613641 604.94720273 115 490.134765625 115 c 0
 345.118164062 115 257.079101562 283.059570312 257.079101562 581.231445312 c 0
 257.079101562 934.029296875 346.1640625 1046.00292969 491.577148438 1046.00292969 c 0
 582.453408173 1046.00292969 647.023280793 992.09783622 684.478170625 948.254652443 c 0
856.564453125 798.560546875 m 1
 856.564453125 799.520619164 856.536474633 800.544629093 856.48046875 801.630279431 c 0
 856.48046875 1076.1063842 856.48046875 1350.58248898 856.48046875 1625.05859375 c 1
 718.05859375 1625.05859375 l 1
 718.05859375 1441.62610783 718.05859375 1258.19362191 718.05859375 1074.76113599 c 1
 666.400113612 1127.86313417 599.970312254 1167 518.233398438 1167 c 2
 433.634765625 1167 l 2
 212.046875 1167 116.76171875 894.989257812 116.76171875 579.721679688 c 0
 116.76171875 226.294921875 259.923828125 -23.7353515625 498.577148438 -20 c 0
 602.97160245 -20 683.001148812 33.8512180879 740.293972877 95.18108334 c 1
 748.833199869 48.2190733389 756.073462743 7.67959813328 756.484375 -0.3486328125 c 1
 806.48046875 0.3134765625 l 1
 856.48046875 0.3134765625 l 1
 856.48046875 209.145507812 l 1
 856.564453125 798.560546875 l 1
EndSplineSet
Validated: 8912937
EndChar

StartChar: e
Encoding: 101 101 71
Width: 1024
GlyphClass: 2
Flags: HMW
HStem: -17.4463 118.331<479.209 555.864> 0.884766 81.6689<454.33 556.647 454.33 634.495> 1044.12 119.967<514.146 559.379 474.496 591.202> 1064.08 80.0332<514.437 559.379 559.379 626.177 514.437 633.482>
VStem: 128.471 135.259 165.127 65.3438<384.649 522.084> 761.749 134.133<639.972 639.972> 795.882 65.8516<589.956 725.062 589.956 639.972>
LayerCount: 2
Fore
SplineSet
796.024201049 248.755859375 m 1
 748.684570312 248.755859375 l 1
 748.684570312 216.205078125 664.912109375 100.884765625 551.745117188 100.884765625 c 0
 406.672851562 100.884765625 265.126953125 221.225585938 265.126953125 522.6796875 c 1
 264.920898438 539.971679688 l 1
 475.241210937 539.971679687 685.561523438 539.971679688 895.881835938 539.971679688 c 1
 895.881835937 601.668619792 895.881835938 663.365559896 895.881835938 725.0625 c 0
 895.881835938 914.427734375 796.69140625 1164.08496094 559.37890625 1164.08496094 c 2
 474.49609375 1164.08496094 l 1
 257.151367188 1160.37695312 131.284179688 943.370117188 130.470703125 726.595703125 c 0
 129.203125 696.401367188 128.479492188 634.215820312 128.470703125 633.409179688 c 0
 128.738196062 606.721615137 129.380436993 561.068193651 130.470703125 533.137695312 c 0
 130.80859375 210.337890625 278.918945312 -17.4462890625 555.864257812 -17.4462890625 c 0
 793.133789062 -21.16015625 896.024414062 170.158203125 896.024414062 248.831054688 c 1
 846.024414062 248.831054688 l 1
 796.024201049 248.755859375 l 1
761.749023438 639.971679688 m 1
 263.729492188 639.971679688 l 1
 263.0625 695.953125 l 1
 263.405273438 945.790039062 367.431640625 1044.97167969 514.145507812 1044.11816406 c 0
 668.258789062 1044.11816406 761.766601562 945.577148438 761.766601562 694.671875 c 2
 761.749023438 639.971679688 l 1
EndSplineSet
Validated: 8912937
EndChar

StartChar: f
Encoding: 102 102 72
Width: 624
GlyphClass: 2
Flags: HMW
HStem: 1489.05 136.188<371.279 566.086 566.086 566.086> 1525.24 63.8125<360.575 371.279 371.279 566.086>
VStem: 165.372 136.166<-0.646484 1347.06 -0.646484 1400.79> 201.538 63.834<-0.646484 1347.06 1347.06 1400.79 -0.646484 1347.06>
LayerCount: 2
Fore
SplineSet
24.654296875 1160.70605469 m 1
 24.654296875 1127.37272135 24.654296875 1094.03938802 24.654296875 1060.70605469 c 1
 71.5602213542 1060.70605469 118.466145833 1060.70605469 165.372070312 1060.70605469 c 1
 165.372070312 -0.646484375 l 1
 301.538085938 -0.646484375 l 1
 301.538085938 1060.70605469 l 1
 385.288411458 1060.70605469 469.038736979 1060.70605469 552.7890625 1060.70605469 c 1
 552.7890625 1094.03938802 552.7890625 1127.37272135 552.7890625 1160.70605469 c 1
 469.038736979 1160.70605469 385.288411458 1160.70605469 301.538085938 1160.70605469 c 1
 301.538085938 1400.79492188 l 2
 301.538085938 1473.98339844 311.517578125 1489.0546875 371.279296875 1489.0546875 c 2
 566.0859375 1489.0546875 l 1
 566.174804688 1525.2421875 l 1
 566.174804687 1558.57552083 566.174804688 1591.90885417 566.174804688 1625.2421875 c 1
 360.575195312 1625.2421875 l 2
 188.784179688 1625.2421875 165.372070312 1477.72949219 165.372070312 1347.05566406 c 2
 165.372070312 1160.70605469 l 1
 118.466145833 1160.70605469 71.5602213542 1160.70605469 24.654296875 1160.70605469 c 1
EndSplineSet
Validated: 8912905
EndChar

StartChar: g
Encoding: 103 103 73
Width: 944
GlyphClass: 2
Flags: HMW
HStem: -278.429 145.162<368.977 428.446> -233.267 54.8379 44.042 131.969<432 432> 76.0107 68.0352<431.794 507.091 431.794 535.939> 1046 120.997<370.763 399.635 399.635 484.233 289.141 514.513> 1067 79.0029<399.635 484.233 484.233 549.076 318.339 553.941>
VStem: 114.762 140.317<457.107 759.141 457.107 772.92> 155.079 59.6826<468.874 749.374> 646.994 100<22.708 934.997 115.493 934.997 115.493 939.002 115.493 942.978> 683.16 63.834<160.166 934.997 115.493 1165 160.166 160.166> 683.16 100<162.183 1165 162.183 1165 160.166 1165 1154.1 1165>
LayerCount: 2
Fore
SplineSet
439.577148438 1046.00292969 m 0
 561.480959698 1046.00292969 627.415440685 968.616171706 646.994140625 924.959955421 c 1
 646.994140625 320.703689401 l 1
 622.433744316 277.377143534 543.796358008 176.010743104 432.134765625 176.010742188 c 0
 291.55078125 176.010742188 255.079101562 322.983398438 255.079101562 591.231445312 c 0
 255.079101562 927.05078125 301.948242188 1046.00292969 439.577148438 1046.00292969 c 0
646.994140625 142.679361187 m 1
 646.994140625 115.493164062 l 2
 646.994140625 -70.0771484375 580.125 -133.266601562 437.71484375 -133.266601562 c 0
 300.239257812 -133.266601562 201.064453125 -114.955078125 200.696289062 -114.88671875 c 0
 194.58434359 -147.590110594 188.370104623 -180.259364633 181.938476562 -212.474609375 c 2
 172.150390625 -261.506835938 l 1
 175.958984375 -262.267578125 257.040039062 -278.428710938 428.446289062 -278.428710938 c 1
 623.685546875 -270.612304688 796.487304688 -177.7890625 783.16015625 162.182617188 c 1
 783.16015625 1165 l 1
 749.826822917 1165 716.493489583 1165 683.16015625 1165 c 1
 683.16015625 1154.62050007 677.842158757 1121.79949388 670.964668369 1082.09937957 c 1
 626.734091643 1131.36478712 566.23580471 1167 484.233398438 1167 c 2
 399.634765625 1167 l 2
 178.647460938 1167 114.76171875 930.119140625 114.76171875 615.721679688 c 0
 114.76171875 263.9765625 190.053710938 40.80078125 432.271484375 44.0419921875 c 0
 522.755214865 44.5923833119 593.559148095 87.9012659839 646.994140625 142.679361187 c 1
EndSplineSet
Validated: 8912937
EndChar

StartChar: h
Encoding: 104 104 74
Width: 1024
GlyphClass: 2
Flags: HMW
HStem: 1045 120.358<480.892 520.986 423.992 633.702> 1065.36 79.6416
VStem: 717.505 136.376<0.00976562 797.954 0.00976562 0.00976562> 753.881 63.624<0.00976562 797.954 797.954 857.062 0.00976562 862.667 -0.00976562 797.954>
LayerCount: 2
Fore
SplineSet
753.880859375 -0.009765625 m 0
 787.214192708 -0.009765625 820.547526042 -0.009765625 853.880859375 -0.009765625 c 1
 853.880859375 862.666992188 l 2
 853.880859375 939.620117188 835.04296875 1163.67089844 589.618164062 1164.64550781 c 0
 588.32421875 1164.65722656 521.284179688 1165.35546875 520.986328125 1165.35839844 c 0
 438.17149243 1165.35839844 362.283010931 1112.73807564 302.5 1052.4253335 c 1
 302.5 1625 l 1
 164.73046875 1625 l 1
 164.73046875 0 l 1
 302.5 0 l 1
 302.5 887.603204772 l 1
 322.516320638 913.201366128 347.545986267 943.286606816 374.544700074 971.353484319 c 1
 419.885823554 1009.01343303 483.207681312 1045.00000164 559.544921875 1045 c 0
 707.859375 1045 717.504882812 928.716796875 717.504882812 797.954101562 c 2
 717.504882812 0.009765625 l 1
 753.880859375 -0.009765625 l 0
EndSplineSet
Validated: 8912905
EndChar

StartChar: i
Encoding: 105 105 75
Width: 432
GlyphClass: 2
Flags: HMW
VStem: 150.73 137.77<0 1179.1 0 1179.1 1360.44 1623.54>
LayerCount: 2
Fore
SplineSet
150.73046875 1360.4375 m 1
 288.5 1360.4375 l 1
 288.5 1623.54003906 l 1
 150.73046875 1623.54003906 l 1
 150.73046875 1360.4375 l 1
150.73046875 0 m 1
 288.5 0 l 1
 288.5 1179.10253906 l 1
 150.73046875 1179.10253906 l 1
 150.73046875 0 l 1
EndSplineSet
Validated: 524297
EndChar

StartChar: j
Encoding: 106 106 76
Width: 448
GlyphClass: 2
Flags: HMW
HStem: -286.901 100<-10.4424 47.1572 -10.4424 113.205> -286.901 152.188<-10.3428 -10.3428 -10.3428 47.1572 -10.3428 113.205> -234.707 47.8057
VStem: 154.195 136.165<-69.3086 1165 -22.7705 1165 -22.7705 1165> 190.36 63.835<-37.459 -22.7705 -22.7705 1165>
LayerCount: 2
Fore
SplineSet
154.73046875 1360.4375 m 1
 290.5 1360.4375 l 1
 290.5 1623.54003906 l 1
 154.73046875 1623.54003906 l 1
 154.73046875 1360.4375 l 1
290.360351562 1165 m 1
 154.1953125 1165 l 1
 154.1953125 -37.458984375 l 2
 154.1953125 -101.158203125 141.018554688 -133.461914062 81.408203125 -134.716796875 c 0
 74.56640625 -134.740234375 -10.3427734375 -134.713867188 -10.3427734375 -134.713867188 c 1
 -10.3583984375 -184.713867188 l 2
 -10.3583984375 -185.443033854 -10.3590820312 -186.172200521 -10.4423828125 -186.901367188 c 0
 -10.4423828125 -220.234700521 -10.4423828125 -253.568033854 -10.4423828125 -286.901367188 c 1
 47.1572265625 -286.901367188 l 2
 179.251953125 -286.901367188 290.360351562 -225.453125 290.360351562 -22.7705078125 c 2
 290.360351562 1165 l 1
EndSplineSet
Validated: 8912937
EndChar

StartChar: k
Encoding: 107 107 77
Width: 944
GlyphClass: 2
Flags: HW
LayerCount: 2
Fore
SplineSet
808.608398438 0 m 1
 825.275065104 -0 841.941731771 0 858.608398438 0 c 1
 858.608398438 46.6916507389 578.804297169 581.276742234 500.08930089 730.867307451 c 1
 663.640526366 921.651417269 835.495117188 1141.15751633 835.495117188 1165 c 1
 735.495117188 1165 l 1
 387.73865728 730.868666147 l 1
 365.456054688 720.016601562 l 1
 365.456054688 720.016601562 367.256969714 716.325927352 370.598092306 709.470770801 c 1
 302.5 624.458645783 l 1
 302.5 1625 l 1
 164.73046875 1625 l 1
 164.73046875 0 l 1
 302.5 0 l 1
 302.5 512.949550235 l 1
 333.545676571 544.069837038 370.47013652 583.733023671 410.189093808 628.097651214 c 1
 498.459527322 446.402936971 688.225023894 54.1152052642 707.59375 0 c 1
 724.147460938 0 l 1
 753.954325216 5.68434188608e-14 l 1
 757.1504014 -6.72649966553 759.512632939 -11.8321710523 760.934570312 -15.1083984375 c 1
 808.608398438 0 l 1
EndSplineSet
Validated: 524297
EndChar

StartChar: l
Encoding: 108 108 78
Width: 432
GlyphClass: 2
Flags: HMW
HStem: 0 150<346.277 356.981 356.981 390 323.37 390> 50 50<356.981 390 305.352 390 305.352 390>
VStem: 151.074 136.166<223.802 277.541 277.541 1625.24> 187.24 63.834<172 1625.24 277.541 1625.24 277.541 1625.24>
LayerCount: 2
Fore
SplineSet
287.240234375 1625.2421875 m 1
 151.07421875 1625.2421875 l 1
 151.07421875 277.541015625 l 2
 151.07421875 146.745117188 174.654296875 0 346.27734375 0 c 2
 390 0 l 1
 390 150 l 1
 356.981445312 150 l 2
 289.7578125 150 287.240234375 155.669921875 287.240234375 223.801757812 c 2
 287.240234375 1625.2421875 l 1
EndSplineSet
Validated: 8912905
EndChar

StartChar: m
Encoding: 109 109 79
Width: 1504
GlyphClass: 2
Flags: HMW
HStem: 1045 120<425.122 482.284 482.284 541.174 949.301 1016.85 1016.85 1075.74> 1065 80<482.284 541.174 541.174 618.945 1016.85 1075.74 1075.74 1153.21>
VStem: 671.505 136.376<0.00976562 797.954 0.00976562 0.00976562> 707.881 63.624<0.00976562 797.954 797.954 848.002 0.00976562 872.667 -0.00976562 797.954> 1205.12 136.361<-0.0556641 797.954 -0.0556641 0> 1241.48 63.6387<0.0556641 0.0556641>
LayerCount: 2
Fore
SplineSet
1291.47753906 0 m 2
 1341.47753906 -0.0556640625 l 1
 1342.43652344 868.967773438 l 2
 1342.43652344 909.904296875 1328.3359375 1165 1075.74316406 1165 c 2
 1016.84863281 1165 l 2
 900.232393304 1165 816.051555757 1099.03871172 764.995375145 1041.87737216 c 1
 728.839869845 1106.82627201 662.516402012 1165 541.173828125 1165 c 2
 482.284179688 1165 l 2
 398.672035727 1165 331.495095589 1131.94158987 281.274395232 1092.82750821 c 1
 273.556238253 1126.30925033 266.811541462 1155.8214322 265.260742188 1165 c 1
 231.750976562 1165 198.241210938 1165 164.731445312 1165 c 1
 164.731445312 959.67578125 l 1
 164.73046875 150.94921875 l 1
 164.73046875 0 l 1
 302.5 0 l 1
 302.5 967.702547328 l 1
 324.552782685 991.249809789 386.466063165 1045 491.206054688 1045 c 0
 671.029296875 1045 671.504882812 909.955078125 671.504882812 797.954101562 c 2
 671.504882812 0.009765625 l 1
 707.880859375 -0.009765625 l 0
 741.214192708 -0.009765625 774.547526042 -0.009765625 807.880859375 -0.009765625 c 1
 807.880859375 872.666992188 l 2
 807.880859375 881.226096596 807.252959133 898.740375694 804.03004208 921.141326507 c 1
 850.16443594 974.499804914 929.284879376 1045 1024.80273438 1045 c 0
 1204.6328125 1045 1205.11621094 909.951171875 1205.11621094 797.954101562 c 2
 1205.11621094 0 l 1
 1233.90332031 -0 1262.69042969 0 1291.47753906 0 c 2
EndSplineSet
Validated: 8912905
EndChar

StartChar: n
Encoding: 110 110 80
Width: 1024
GlyphClass: 2
Flags: HMW
HStem: 1045 120.358<480.892 520.986 423.992 633.702> 1065.36 79.6416
VStem: 202.5 62.2305<0 150.949 150.949 909.871 0 150.949> 717.505 136.376<0.00976562 797.954 0.00976562 0.00976562> 753.881 63.624<0.00976562 797.954 797.954 857.062 0.00976562 862.667 -0.00976562 797.954>
LayerCount: 2
Fore
SplineSet
753.880859375 -0.009765625 m 0
 787.214192708 -0.009765625 820.547526042 -0.009765625 853.880859375 -0.009765625 c 1
 853.880859375 862.666992188 l 2
 853.880859375 939.620117188 835.04296875 1163.67089844 589.618164062 1164.64550781 c 0
 588.32421875 1164.65722656 521.284179688 1165.35546875 520.986328125 1165.35839844 c 0
 429.714628046 1165.35839844 346.856117782 1101.44241156 284.698900878 1033.75552231 c 1
 275.553802077 1093.68259373 266.001478271 1156.7139201 265.083984375 1164.50390625 c 0
 264.966145833 1164.50390625 264.848307292 1164.50738997 264.73046875 1164.50738997 c 2
 264.73046875 1165 l 1
 214.7421875 1165 l 1
 164.744140625 1165.49316406 l 1
 164.744071332 1165 l 1
 164.73046875 1165 l 1
 164.73046875 0 l 1
 302.5 0 l 1
 302.5 887.603204772 l 1
 322.516320638 913.201366128 347.545986267 943.286606816 374.544700074 971.353484319 c 1
 419.885823554 1009.01343303 483.207681312 1045.00000164 559.544921875 1045 c 0
 707.859375 1045 717.504882812 928.716796875 717.504882812 797.954101562 c 2
 717.504882812 0.009765625 l 1
 753.880859375 -0.009765625 l 0
EndSplineSet
Validated: 8912905
EndChar

StartChar: o
Encoding: 111 111 81
Width: 1040
GlyphClass: 2
Flags: HMW
HStem: -17.6191 118.471 0.851562 81.5273 1046.25 119.99<514.148 555.459 470.433 588.685> 1066.24 80.0098<514.439 555.459 555.459 627.301>
VStem: 129.909 132.646<411.504 742.014> 162.556 67.3535<414.808 742.173 414.808 772.248> 764.044 132.403<411.617 741.692 411.617 766.882> 796.447 67.5967<414.472 742.422>
LayerCount: 2
Fore
SplineSet
512.391601562 -17.619140625 m 0
 785.243164062 -19.4375 896.447265625 245.68359375 896.447265625 577.55078125 c 0
 896.447265625 905.833984375 797.946289062 1166.24023438 555.458984375 1166.24023438 c 2
 470.432617188 1166.24023438 l 1
 228.455078125 1162.11132812 129.909179688 906.477539062 129.909179688 577.55078125 c 0
 129.909179688 245.458007812 241.125 -15.8115234375 512.391601562 -17.619140625 c 0
514.1484375 1046.25 m 0
 663.221679688 1046.25 764.043945312 956.212890625 764.043945312 577.55078125 c 0
 764.043945312 199.381835938 659.6640625 100.8515625 514.293945312 100.8515625 c 0
 366.455078125 100.8515625 262.555664062 199.495117188 262.555664062 577.55078125 c 0
 262.555664062 954.189453125 372.685546875 1047.07226562 514.1484375 1046.25 c 0
EndSplineSet
Validated: 8912937
EndChar

StartChar: p
Encoding: 112 112 82
Width: 1016
GlyphClass: 2
Flags: HMW
HStem: -20 135<438.416 510.802 438.416 663.73> 15 65<466.926 511.11> 1045 120.426<480.359 507.336 456.775 535.45> 1065.43 79.5742<492.997 506.887>
VStem: 199.338 61.5791<-285 867.541 -285 867.541 867.541 952.274> 743.347 147.653<449.375 754.23 442.303 816.166> 791 52.3467<454.159 760.931>
LayerCount: 2
Fore
SplineSet
510.801757812 115 m 0
 407.050174749 115 346.953896653 160.592698451 299.337890625 208.199201176 c 1
 299.337890625 449.587694437 299.337890625 690.976187697 299.337890625 932.364680957 c 1
 356.469849838 978.431221677 448.58896577 1045.00000107 535.450195312 1045 c 0
 646.598632812 1045.97753906 743.346679688 1030.07617188 743.346679688 602.254882812 c 0
 743.346679688 296.49609375 666.263671875 115.958984375 510.801757812 115 c 0
261.080078125 1165 m 1
 160.916992188 1165 l 1
 160.916992187 681.666666667 160.916992188 198.333333333 160.916992188 -285 c 1
 299.337890625 -285 l 1
 299.337890625 70.7487070698 l 1
 361.495806645 23.0282151247 443.479668793 -20 537.029296875 -20 c 0
 790.431640625 -20 891 283.247070312 891 601.359375 c 0
 891 907.100585938 820.650390625 1164.57421875 601.912109375 1164.57421875 c 1
 507.3359375 1165.42578125 l 2
 442.223524987 1165.42578125 356.249624409 1110.49695358 282.284760408 1051.28668607 c 1
 272.062990496 1104.40982532 262.055166897 1156.19386495 261.080078125 1165 c 1
EndSplineSet
Validated: 8912937
EndChar

StartChar: q
Encoding: 113 113 83
Width: 1016
GlyphClass: 2
Flags: HMW
HStem: -20 135<498.577 558.859 417.626 619.808> 15 65<497.794 575.014 497.794 591.465> 1046 120.997<418.871 433.635 433.635 518.233 322.841 566.201> 1067 79.0029<433.635 518.233 518.233 582.441>
VStem: 116.762 140.317<432.146 737.355> 157.079 59.6826<433.951 740.41 408.874 759.087> 756.48 61.5781<-285 -142.892 -285 -142.892 -142.892 903.479>
LayerCount: 2
Fore
SplineSet
491.577148438 1046.00292969 m 0
 613.001722273 1046.00292969 684.644652988 955.183776507 718.05859375 893.302342472 c 1
 718.05859375 240.384413261 l 1
 691.123975907 207.458613641 604.94720273 115 490.134765625 115 c 0
 345.118164062 115 257.079101562 283.059570312 257.079101562 581.231445312 c 0
 257.079101562 934.029296875 346.1640625 1046.00292969 491.577148438 1046.00292969 c 0
856.564453125 798.560546875 m 1
 856.564453125 799.520619164 856.536474633 800.544629093 856.48046875 801.630279431 c 0
 856.48046875 922.753519621 856.48046875 1043.87675981 856.48046875 1165 c 1
 856.480073794 1165 l 2
 856.480073794 1165.17007242 856.477539062 1165.33642566 856.477539062 1165.49902344 c 2
 806.48046875 1165 l 1
 756.48046875 1165 l 1
 756.48046875 1163.77095913 l 2
 756.281327347 1151.42171064 748.874339736 1101.46657425 740.671887351 1049.57202598 c 1
 686.312659851 1115.0109755 612.439937348 1167 518.233398438 1167 c 2
 433.634765625 1167 l 2
 212.046875 1167 116.76171875 894.989257812 116.76171875 579.721679688 c 0
 116.76171875 226.294921875 259.923828125 -23.7353515625 498.577148438 -20 c 0
 590.098262199 -20 662.893053033 21.3888414607 718.05859375 72.9206428239 c 1
 718.05859375 -46.3862381174 718.05859375 -165.693119059 718.05859375 -285 c 1
 856.48046875 -285 l 1
 856.48046875 -142.891601562 l 1
 856.564453125 798.560546875 l 1
EndSplineSet
Validated: 8912937
EndChar

StartChar: r
Encoding: 114 114 84
Width: 712
GlyphClass: 2
Flags: HMW
HStem: 1045 120<559.545 670> 1065 80<520.725 559.545 559.545 670>
VStem: 202.5 62.2305<0 150.949 150.949 909.252 0 150.949>
LayerCount: 2
Fore
SplineSet
302.5 892.476592842 m 1
 352.64635353 960.528619455 434.017894381 1044.99999984 559.544921875 1045 c 2
 670 1045 l 1
 670 1165 l 1
 520.724609375 1165 l 2
 425.684896591 1165 344.414109942 1104.50349056 284.196095982 1038.84442765 c 1
 264.1796875 1172.41015625 l 1
 214.731445312 1165 l 1
 164.731445312 1165 l 1
 164.73046875 959.67578125 l 2
 164.73046875 639.783854167 164.73046875 319.891927083 164.73046875 0 c 1
 302.5 0 l 1
 302.5 892.476592842 l 1
EndSplineSet
Validated: 8912905
EndChar

StartChar: s
Encoding: 115 115 85
Width: 944
GlyphClass: 2
Flags: HMW
HStem: -20 130.567<388.333 481.18> 10.5674 69.4326<374.272 481.304 374.272 533.121> 1045 119.961 1064.96 80.0391<377.871 404.427>
VStem: 131.278 127.759<795.832 913.208 795.832 977.43> 159.037 72.2412<801.517 939.839> 656.686 144.424<820.679 821.237> 682.006 127.653<232.266 366.305> 701.111 55.5723<820.69 821.226> 709.659 72.3467<225.903 376.498>
LayerCount: 2
Fore
SplineSet
480.897460938 -20 m 0
 634.326883077 -20 809.659179688 67.7042785774 809.659179688 322.393554688 c 0
 809.659179688 477.366210938 716.978515625 576.923828125 570.108398438 616.620117188 c 0
 559.51597541 619.762418546 549.088752608 622.873090111 538.442800668 626.013893345 c 2
 451.8203125 651.7109375 l 1
 346.506556058 679.929689121 259.037109508 733.862519592 259.037109375 860.067382812 c 0
 259.037109375 966.349609375 332.512695312 1044.62011719 450.19140625 1045 c 0
 614.106445312 1041.53417969 656.114257812 925.237304688 656.685546875 820.678710938 c 1
 701.109981095 820.921661807 l 2
 701.109981095 820.844598295 701.111328125 820.767520919 701.111328125 820.690429688 c 1
 734.444010417 820.872721354 767.776692708 821.055013021 801.109375 821.237304688 c 1
 800.044921875 1016.109375 659.130859375 1165.20214844 486.506835938 1165.0390625 c 2
 404.35546875 1164.9609375 l 2
 308.604492188 1164.9609375 131.278320312 1079.24511719 131.278320312 875.615234375 c 0
 131.278320312 664.029779177 267.638279928 601.646876663 424.129882812 555.478515625 c 0
 458.488100522 545.329146978 492.888482295 535.221942395 527.212502662 525.038376406 c 0
 628.912074399 491.799235044 682.005859375 412.803756669 682.005859375 314.872070312 c 0
 682.005859375 149.659179688 544.881835938 110.567382812 491.163085938 110.567382812 c 0
 285.501953125 110.567382812 269.21875 272.8515625 269.21875 356.04296875 c 1
 122.575195312 356.04296875 l 1
 122.575195312 216.986328125 190.712890625 -20 480.897460938 -20 c 0
EndSplineSet
Validated: 8912937
EndChar

StartChar: t
Encoding: 116 116 86
Width: 720
GlyphClass: 2
Flags: HMW
HStem: 0 150<360.575 371.279 371.279 580> 50 50<371.279 580>
VStem: 165.372 136.166<223.802 277.541 277.541 1625.24> 201.538 63.834<172 1625.24 277.541 1625.24 277.541 1625.24>
LayerCount: 2
Fore
SplineSet
24.654296875 1160.70605469 m 1
 24.654296875 1127.37272135 24.654296875 1094.03938802 24.654296875 1060.70605469 c 1
 71.5602213542 1060.70605469 118.466145833 1060.70605469 165.372070312 1060.70605469 c 1
 165.372070312 277.541015625 l 2
 165.372070312 146.745117188 188.952148438 0 360.575195312 0 c 2
 580 0 l 1
 580 150 l 1
 371.279296875 150 l 2
 304.055664062 150 301.538085938 155.669921875 301.538085938 223.801757812 c 2
 301.538085938 1060.70605469 l 1
 385.288411458 1060.70605469 469.038736979 1060.70605469 552.7890625 1060.70605469 c 1
 552.7890625 1094.03938802 552.7890625 1127.37272135 552.7890625 1160.70605469 c 1
 469.038736979 1160.70605469 385.288411458 1160.70605469 301.538085938 1160.70605469 c 1
 301.538085938 1625.2421875 l 1
 165.372070312 1625.2421875 l 1
 165.372070312 1160.70605469 l 1
 118.466145833 1160.70605469 71.5602213542 1160.70605469 24.654296875 1160.70605469 c 1
EndSplineSet
Validated: 8912905
EndChar

StartChar: u
Encoding: 117 117 87
Width: 1024
GlyphClass: 2
Flags: HMW
HStem: -20 135<389.118 539.739 389.118 579.339> 15 65<363.985 532.649 363.985 578.34>
VStem: 168.73 136.376<261.732 1162.63 364.689 1162.63 364.689 1162.65> 205.106 63.624<305.749 364.689 364.689 1162.63> 757.881 62.2305<285.406 1011.69 1011.69 1162.64>
LayerCount: 2
Fore
SplineSet
268.73046875 1162.65332031 m 1
 235.397135417 1162.65332031 202.063802083 1162.65332031 168.73046875 1162.65332031 c 1
 168.73046875 299.9765625 l 2
 168.73046875 223.48828125 189.920898438 -20 443.541015625 -20 c 0
 571.507461468 -20 670.184868141 59.0757664111 738.765170482 142.712067371 c 1
 748.273037641 73.9655087403 757.054332226 10.2358445912 757.8125 0 c 1
 857.880859375 0 l 1
 857.880859375 1162.64257812 l 1
 720.111328125 1162.64257812 l 1
 720.111328125 298.166397264 l 1
 710.747885273 283.087760022 699.996288054 266.748422541 687.998083189 250.027037123 c 0
 644.562742442 194.445701371 564.602673736 115.000001272 463.06640625 115 c 0
 315.169921875 115 305.106445312 233.58984375 305.106445312 364.689453125 c 2
 305.106445312 1162.6328125 l 1
 268.73046875 1162.65332031 l 1
EndSplineSet
Validated: 8912905
EndChar

StartChar: v
Encoding: 118 118 88
Width: 976
GlyphClass: 2
Flags: HW
LayerCount: 2
Fore
SplineSet
220.859375 1165 m 1
 71.7412109375 1165 l 1
 71.7412109375 1121.60742188 399.84765625 41.912109375 401.684570312 35.73828125 c 2
 412.3203125 0 l 1
 461.604817708 -0 510.889322917 0 560.173828125 0 c 1
 570.809570312 35.73828125 l 2
 572.645507812 41.908203125 900.752929688 1121.61328125 900.752929688 1165 c 1
 850.995117187 1165 801.237304688 1165 751.479492188 1165 c 1
 740.28515625 1110.48144531 561.499023438 459.611328125 486.166015625 185.890625 c 1
 410.510742188 459.533203125 231.896484375 1107.78222656 220.859375 1165 c 1
EndSplineSet
Validated: 524297
EndChar

StartChar: w
Encoding: 119 119 89
Width: 1328
GlyphClass: 2
Flags: HMW
VStem: 1114.34 148.412<1141.96 1165> 1162.75 51.5879<1142.74 1165 1142.74 1165>
LayerCount: 2
Fore
SplineSet
220.338867188 1165 m 1
 71.7412109375 1165 l 1
 71.7412109375 1118.74316406 285.599609375 45.1796875 286.543945312 40.3662109375 c 2
 294.470703125 0 l 1
 505.520507812 0 l 1
 559.457278672 337.00430987 613.391381145 674.011288126 667.327148438 1011.01660156 c 1
 721.206266757 674.010954257 775.086297301 337.006219176 828.96484375 0 c 1
 1039.97363281 0 l 1
 1047.93847656 40.3076171875 l 2
 1048.86425781 44.994140625 1262.75292969 1112.07910156 1262.75292969 1165 c 1
 1114.34082031 1165 l 1
 1114.34082031 1118.92382812 973.669921875 290.973632812 942.166992188 100 c 1
 929.532226562 100 l 1
 880.994479044 455.000012898 832.456627998 809.999922268 783.918945312 1165 c 1
 706.157226563 1165 628.395507812 1165 550.633789062 1165 c 1
 502.077374592 809.999773846 453.520467019 455.000040793 404.963867188 100 c 1
 394.25 100 l 1
 362.153320312 292.430664062 225.233398438 1118.1171875 220.338867188 1165 c 1
EndSplineSet
Validated: 8912905
EndChar

StartChar: x
Encoding: 120 120 90
Width: 944
GlyphClass: 2
Flags: HMW
VStem: 161.884 98.0518<-13.8135 27.5195> 694.039 98.0518
LayerCount: 2
Fore
SplineSet
742.090820312 -0.0419921875 m 1
 792.090725967 0 l 1
 842.233398438 0 l 1
 842.233398438 31.1774077909 693.477804785 306.320306931 539.929186183 583.805939441 c 1
 693.463006964 861.175062121 842.233398438 1135.44881186 842.233398438 1165 c 1
 792.233398438 1165 l 1
 788.917609881 1158.28575981 l 2
 789.515164835 1161.09723767 789.821289062 1163.34504503 789.821289062 1165 c 1
 687.3203125 1165 l 1
 673.496978944 1125.5912493 580.784460698 928.005633696 476.987304688 706.274626238 c 1
 373.190148677 928.005633696 280.477630431 1125.5912493 266.654296875 1165 c 1
 164.153320312 1165 l 1
 164.153320312 1163.34504503 164.45944454 1161.09723767 165.056999494 1158.28575981 c 2
 161.741210938 1165 l 1
 111.741210938 1165 l 1
 111.741210938 1135.44881186 260.511602411 861.175062121 414.045423192 583.805939441 c 1
 260.49680459 306.320306931 111.741210938 31.1774077909 111.741210938 0 c 1
 161.883789062 -0.0419921875 l 1
 211.883789062 -0.0419921875 l 1
 216.264193632 -1.2974025164 l 1
 215.602625814 -2.63703112964 l 2
 215.826617721 -2.1999115105 216.054827491 -1.75555401585 216.28722803 -1.30400410341 c 2
 259.935546875 -13.8134765625 l 1
 273.449916747 20.4347156562 369.955665221 223.888735962 476.987304688 452.629201186 c 1
 584.018944154 223.888735962 680.524692628 20.4347156562 694.0390625 -13.8134765625 c 0
 694.335350295 -14.570479964 725.94172442 -4.98447459586 737.72682167 -1.38064506138 c 0
 737.945614165 -1.80585633674 738.16067571 -2.22466441427 738.371983561 -2.63703112964 c 2
 737.748283485 -1.37408204778 l 1
 740.439171243 -0.551198788415 742.090820312 -0.0419921875 742.090820312 -0.0419921875 c 1
742.896071943 1177.15131024 m 2
 745.0234375 1181.49023438 l 2
 744.43751811 1180.25581387 743.727109525 1178.80734621 742.896071943 1177.15131024 c 2
215.602625814 -2.63703112964 m 2
 209.315429688 -15.3681640625 l 2
 210.743701015 -12.2685501691 212.856082 -7.99690417311 215.602625814 -2.63703112964 c 2
738.371983561 -2.63703112964 m 2
 741.118527375 -7.99690417311 743.23090836 -12.2685501691 744.659179688 -15.3681640625 c 2
 738.371983561 -2.63703112964 l 2
211.078537432 1177.15131024 m 2
 210.24749985 1178.80734621 209.537091265 1180.25581387 208.951171875 1181.49023438 c 2
 211.078537432 1177.15131024 l 2
EndSplineSet
Validated: 524293
EndChar

StartChar: y
Encoding: 121 121 91
Width: 976
GlyphClass: 2
Flags: HW
LayerCount: 2
Fore
SplineSet
214.701171875 -285 m 1
 369.05078125 -285 l 1
 395.563476562 -192.3671875 874.935546875 1110.19140625 874.935546875 1165 c 1
 721.081054688 1165 l 1
 710.061478311 1120.89044806 572.072003218 663.580381003 500.027062532 425.318165106 c 1
 392.622098408 719.124461881 250.381822355 1121.34286628 237.875976562 1165 c 1
 83.23828125 1165 l 1
 83.23828125 1109.78906118 323.457211607 576.290861621 450.286745806 269.022103793 c 1
 405.990439823 171.938734782 214.701172037 -239.682202035 214.701171875 -285 c 1
EndSplineSet
Validated: 524297
EndChar

StartChar: z
Encoding: 122 122 92
Width: 936
GlyphClass: 2
Flags: HW
LayerCount: 2
Fore
SplineSet
76.228515625 1145 m 1
 76.228515625 1111.66666667 76.228515625 1078.33333333 76.228515625 1045 c 1
 695.791015625 1045 l 1
 389.140705113 568.355261574 l 1
 285.012492496 426.015417587 180.883730209 283.67612327 76.755859375 141.3359375 c 1
 76.755859375 0 l 1
 333.211263021 -0 589.666666667 0 846.122070312 0 c 1
 846.122070313 33.3333333333 846.122070312 66.6666666667 846.122070312 100 c 1
 845.594726562 100 l 1
 845.594726562 130 l 1
 226.032226562 130 l 1
 471.625911243 511.74080893 l 1
 596.457894646 682.381963073 721.290428791 853.022566475 846.122070312 1023.6640625 c 1
 846.122070312 1165 l 1
 589.666666667 1165 333.211263021 1165 76.755859375 1165 c 1
 76.755859375 1145 l 1
 76.228515625 1145 l 1
EndSplineSet
Validated: 524297
EndChar

StartChar: braceleft
Encoding: 123 123 93
Width: 480
GlyphClass: 2
Flags: HW
LayerCount: 2
Fore
SplineSet
32 704 m 1
 32 784 l 1
 117 795 152 859 136 976 c 1
 136 1384 l 2
 136 1576 237 1672 440 1672 c 1
 440 1568 l 1
 333 1568 280 1507 280 1384 c 2
 280 976 l 2
 280 864 240 787 160 744 c 1
 240 696 280 619 280 512 c 2
 280 64 l 2
 280 -59 333 -120 440 -120 c 1
 440 -216 l 1
 237 -216 136 -123 136 64 c 2
 136 512 l 1
 147 624 112 688 32 704 c 1
EndSplineSet
Validated: 33
EndChar

StartChar: bar
Encoding: 124 124 94
Width: 480
GlyphClass: 2
Flags: HW
LayerCount: 2
Fore
SplineSet
168 -176 m 1
 168 1664 l 1
 312 1664 l 1
 312 -176 l 1
 168 -176 l 1
EndSplineSet
Validated: 1
EndChar

StartChar: braceright
Encoding: 125 125 95
Width: 480
GlyphClass: 2
Flags: HW
LayerCount: 2
Fore
SplineSet
40 -112 m 1
 147 -112 200 -51 200 72 c 2
 200 480 l 2
 200 592 243 669 328 712 c 1
 243 760 200 837 200 944 c 2
 200 1392 l 2
 200 1515 147 1576 40 1576 c 1
 40 1672 l 1
 248 1672 352 1579 352 1392 c 2
 352 944 l 1
 336 832 368 768 448 752 c 1
 448 672 l 1
 368 661 336 597 352 480 c 1
 352 72 l 2
 352 -120 248 -216 40 -216 c 1
 40 -112 l 1
EndSplineSet
Validated: 33
EndChar

StartChar: asciitilde
Encoding: 126 126 96
Width: 848
GlyphClass: 2
Flags: HW
LayerCount: 2
Fore
SplineSet
80 1408 m 1
 155 1568 264 1603 408 1512 c 1
 499 1437 576 1448 640 1544 c 1
 736 1440 l 1
 661 1296 547 1267 392 1352 c 1
 301 1416 229 1405 176 1320 c 1
 80 1408 l 1
EndSplineSet
Validated: 33
EndChar

StartChar: exclamdown
Encoding: 161 161 98
Width: 448
GlyphClass: 2
Flags: HW
LayerCount: 2
Fore
SplineSet
152 1360 m 1
 152 1624 l 1
 304 1624 l 1
 304 1360 l 1
 152 1360 l 1
136 -152 m 1
 160 1096 l 1
 288 1096 l 1
 312 -152 l 1
 136 -152 l 1
EndSplineSet
Validated: 1
EndChar

StartChar: cent
Encoding: 162 162 99
Width: 1024
GlyphClass: 2
Flags: HW
LayerCount: 2
Fore
SplineSet
248 808 m 0
 248 640.794745957 284.865507123 538.089661918 384 472 c 1
 560 1200 l 1
 504 1200 l 2
 435 1200 375 1169 324 1108 c 0
 273 1047 248 947 248 808 c 0
352 320 m 1
 193.738210402 381.928526365 104 580.037143987 104 816 c 0
 104 987 143 1119 220 1212 c 0
 297 1305 392 1352 504 1352 c 0
 536 1352 565 1349 592 1344 c 1
 624 1496 l 1
 696 1480 l 1
 656 1328 l 1
 816.589848165 1273.80092624 897.919345238 1152.70389611 920 960 c 1
 760 960 l 1
 741.267498054 1060.47432862 708.842742502 1158.77648196 624 1184 c 1
 448 432 l 1
 475 427 499 424 520 424 c 0
 649.455996336 424 740.033665085 507.832233221 760 624 c 1
 912 624 l 1
 890.203128284 433.772755931 732.748068526 280 520 280 c 0
 483 280 448 283 416 288 c 1
 360 40 l 1
 288 56 l 1
 352 320 l 1
EndSplineSet
Validated: 524289
EndChar

StartChar: sterling
Encoding: 163 163 100
Width: 1368
GlyphClass: 2
Flags: HW
LayerCount: 2
Fore
SplineSet
240 216 m 0
 240 163 280 133 360 128 c 1
 440 128 504 157 552 216 c 1
 477 275 405 304 336 304 c 0
 272 304 240 275 240 216 c 0
784 1408 m 0
 649.124022644 1408 600 1274.18544447 600 1136 c 0
 600 1061 621 981 664 896 c 1
 1064 896 l 1
 1064 776 l 1
 736 776 l 1
 800 643 832 523 832 416 c 0
 832 357 816 296 784 232 c 1
 848 184 901 160 944 160 c 0
 997 160 1041 179 1076 216 c 0
 1111 253 1128 344 1128 488 c 1
 1296 440 l 1
 1296 259 1265 140 1204 84 c 0
 1143 28 1061 0 960 0 c 0
 880 0 789 32 688 96 c 1
 624 32 515 0 360 0 c 0
 285 0 219 19 160 56 c 0
 101 93 72 147 72 216 c 0
 72 307 99 368 152 400 c 0
 205 432 267 448 336 448 c 0
 421 448 515 413 616 344 c 1
 621 365 624 387 624 408 c 0
 624 536 592 659 528 776 c 1
 208 776 l 1
 208 896 l 1
 472 896 l 1
 435 971 416 1051 416 1136 c 0
 416 1386.64787938 534.545740115 1552 784 1552 c 0
 901 1552 993 1521 1060 1460 c 0
 1127 1399 1160 1328 1160 1248 c 1
 960 1248 l 1
 960 1285 947 1321 920 1356 c 0
 893 1391 848 1408 784 1408 c 0
EndSplineSet
Validated: 524289
EndChar

StartChar: currency
Encoding: 164 164 101
Width: 1048
GlyphClass: 2
Flags: HW
LayerCount: 2
Fore
SplineSet
528 1216 m 0
 339.64488375 1216 280 945.148118372 280 736 c 0
 280 571 304 448 352 368 c 0
 400 288 459 248 528 248 c 0
 613 248 676 300 716 404 c 0
 756 508 776 619 776 736 c 0
 776 880 753 996 708 1084 c 0
 663 1172 603 1216 528 1216 c 0
120 64 m 1
 256 328 l 1
 213 435 189 571 184 736 c 1
 184 880 208 1016 256 1144 c 1
 120 1400 l 1
 192 1536 l 1
 328 1272 l 1
 387 1357 453 1400 528 1400 c 0
 608 1400 677 1355 736 1264 c 1
 872 1528 l 1
 944 1408 l 1
 808 1136 l 1
 851 1019 869 885 864 736 c 1
 864 587 843 453 800 336 c 1
 944 56 l 1
 880 -64 l 1
 736 208 l 1
 677 123 608 80 528 80 c 0
 453 80 384 120 320 200 c 1
 192 -64 l 1
 120 64 l 1
EndSplineSet
Validated: 524321
EndChar

StartChar: yen
Encoding: 165 165 102
Width: 1208
GlyphClass: 2
Flags: HW
LayerCount: 2
Fore
SplineSet
104 1552 m 1
 296 1552 l 1
 608 976 l 1
 920 1552 l 1
 1104 1552 l 1
 736 864 l 1
 1080 864 l 1
 1080 736 l 1
 696 736 l 1
 696 448 l 1
 1080 448 l 1
 1080 320 l 1
 696 320 l 1
 696 0 l 1
 520 0 l 1
 520 320 l 1
 128 320 l 1
 128 448 l 1
 520 448 l 1
 520 736 l 1
 128 736 l 1
 128 864 l 1
 480 864 l 1
 104 1552 l 1
EndSplineSet
Validated: 1
EndChar

StartChar: brokenbar
Encoding: 166 166 103
Width: 464
GlyphClass: 2
Flags: HW
LayerCount: 2
Fore
SplineSet
192 -152 m 1
 192 1624 l 1
 272 1624 l 1
 272 -152 l 1
 192 -152 l 1
EndSplineSet
Validated: 1
EndChar

StartChar: section
Encoding: 167 167 104
Width: 2048
GlyphClass: 2
Flags: HW
LayerCount: 2
Fore
SplineSet
536 792 m 0
 536 717 691 643 1000 568 c 1
 1256 504 l 1
 1416 547 1496 605 1496 680 c 0
 1496 755 1360 827 1088 896 c 1
 816 968 l 1
 629 915 536 856 536 792 c 0
328 232 m 1
 544 232 l 1
 565 67 728 -16 1032 -16 c 0
 1341 -16 1496 45 1496 168 c 0
 1496 227 1440 276 1328 316 c 0
 1216 356 1072 397 896 440 c 0
 672 493 521 544 444 592 c 0
 367 640 328 707 328 792 c 0
 328 872 424 952 616 1032 c 1
 472 1101 400 1187 400 1288 c 0
 400 1395 452 1477 556 1536 c 0
 660 1595 819 1624 1032 1624 c 0
 1459 1624 1685 1496 1712 1240 c 1
 1512 1240 l 1
 1507 1400 1347 1480 1032 1480 c 0
 755 1480 616 1416 616 1288 c 0
 616 1219 669 1165 776 1128 c 0
 883 1091 997 1059 1120 1032 c 1
 1328 973 1479 919 1572 868 c 0
 1665 817 1712 752 1712 672 c 0
 1712 576 1624 496 1448 432 c 1
 1619 368 1704 280 1704 168 c 0
 1704 72 1640 -5 1512 -64 c 0
 1384 -123 1224 -152 1032 -152 c 0
 600 -152 365 -24 328 232 c 1
EndSplineSet
Validated: 1
EndChar

StartChar: dieresis
Encoding: 168 168 105
Width: 1024
GlyphClass: 2
Flags: HMW
HStem: 1452.21 261.103<217.146 267.146 254.628 267.146 267.146 304.628 267.146 304.628 304.628 317.146 304.628 317.146 317.146 354.628 317.146 317.146 217.146 354.628 537.146 587.146 574.628 587.146 587.146 624.628 587.146 624.628 624.628 637.146 624.628 637.146 637.146 674.628 637.146 637.146>
LayerCount: 2
Fore
SplineSet
674.627929688 1713.31152344 m 1
 537.145507812 1713.31152344 l 1
 537.145507812 1452.20898438 l 1
 674.627929688 1452.20898438 l 1
 674.627929688 1713.31152344 l 1
354.627929688 1713.31152344 m 1
 217.145507812 1713.31152344 l 1
 217.145507812 1452.20898438 l 1
 354.627929688 1452.20898438 l 1
 354.627929688 1713.31152344 l 1
EndSplineSet
Validated: 524289
EndChar

StartChar: copyright
Encoding: 169 169 106
Width: 1368
GlyphClass: 2
Flags: HW
LayerCount: 2
Fore
SplineSet
960 656 m 1
 950.093697714 507.40546571 838.744590386 400 680 400 c 0
 600 400 531 432 472 496 c 0
 413 560 384 637 384 728 c 0
 384 892.004671021 517.492582519 1056 680 1056 c 0
 836.437574079 1056 923.989907254 948.05046373 952 808 c 1
 848 808 l 1
 828.191760436 903.439699719 787.326577911 960 680 960 c 0
 632 960 588 940 548 900 c 0
 508 860 488 803 488 728 c 0
 488 597.263270828 558.629521056 488 680 488 c 0
 786.952157087 488 836.397963076 561.553822093 856 656 c 1
 960 656 l 1
208 736 m 1
 217.11674278 444.264231053 392.379471061 200 680 200 c 0
 813 200 927 251 1020 352 c 0
 1113 453 1160 581 1160 736 c 0
 1160 891 1113 1019 1020 1120 c 0
 927 1221 813 1272 680 1272 c 0
 547 1272 435 1220 344 1116 c 0
 253 1012 208 885 208 736 c 1
120 736 m 0
 120 928 177 1081 292 1196 c 0
 407 1311 536 1368 680 1368 c 0
 845 1368 980 1311 1084 1196 c 0
 1188 1081 1240 928 1240 736 c 0
 1240 560 1188 411 1084 288 c 0
 980 165 845 104 680 104 c 0
 515 104 380 165 276 288 c 0
 172 411 120 560 120 736 c 0
EndSplineSet
Validated: 524289
EndChar

StartChar: ordfeminine
Encoding: 170 170 107
Width: 728
GlyphClass: 2
Flags: HW
LayerCount: 2
Fore
SplineSet
456 1352 m 1
 358.297879167 1342.78281879 288 1310.59525623 288 1208 c 0
 288 1163.73259802 305.088921783 1128 344 1128 c 0
 413.826045176 1128 430.236956818 1156.42296264 456 1216 c 1
 456 1352 l 1
344 1056 m 0
 258.395803918 1056 216 1115.02756352 216 1200 c 0
 216 1275 240 1329 288 1364 c 0
 336 1399 392 1419 456 1424 c 1
 456 1464 l 2
 456 1510.58982827 425.904279539 1560 376 1560 c 0
 322.395803918 1560 296 1516.97243648 296 1464 c 1
 232 1464 l 1
 232 1545.16652422 269.597779865 1624 344 1624 c 2
 400 1624 l 2
 487.912272494 1624 528 1529.19471894 528 1432 c 2
 528 1176 l 1
 544 1056 l 1
 472 1056 l 1
 464 1120 l 1
 433.259019729 1079.65246339 412.364017312 1056 344 1056 c 0
EndSplineSet
Validated: 524289
EndChar

StartChar: guillemotleft
Encoding: 171 171 108
Width: 1368
GlyphClass: 2
Flags: HW
LayerCount: 2
Fore
SplineSet
1254.33984375 1319.64355469 m 1
 1232.39973958 1344.73795573 1210.45963542 1369.83235677 1188.51953125 1394.92675781 c 1
 1184.45163275 1391.37023458 l 1
 1170.109375 1406.66503906 l 1
 942.084321076 1193.57062684 717.854686089 976.680795682 478.901367188 774.514648438 c 1
 436.067382812 737.065429688 l 1
 534.496755199 650.122960539 632.926781575 563.181145379 731.356430904 476.238953173 c 1
 1168.48144531 62.1435546875 l 1
 1182.91562366 77.3807933075 l 1
 1186.88574219 73.8740234375 l 1
 1208.95279948 98.8570963542 1231.01985677 123.840169271 1253.08691406 148.823242188 c 1
 1034.76967023 343.546362939 810.752271835 532.569329127 601.830078125 736.6875 c 1
 811.246659547 939.092858682 1035.60014795 1126.56131038 1254.33984375 1319.64355469 c 1
934.33984375 1319.64355469 m 1
 912.399739583 1344.73795573 890.459635417 1369.83235677 868.51953125 1394.92675781 c 1
 864.451632754 1391.37023458 l 1
 850.109375 1406.66503906 l 1
 622.084321076 1193.57062684 397.854686089 976.680795682 158.901367188 774.514648438 c 1
 116.067382812 737.065429688 l 1
 214.496755199 650.122960539 312.926781575 563.181145379 411.356430904 476.238953173 c 1
 848.481445312 62.1435546875 l 1
 862.915623657 77.3807933075 l 1
 866.885742188 73.8740234375 l 1
 888.952799479 98.8570963542 911.019856771 123.840169271 933.086914062 148.823242188 c 1
 714.76967023 343.546362939 490.752271835 532.569329127 281.830078125 736.6875 c 1
 491.246659547 939.092858682 715.600147952 1126.56131038 934.33984375 1319.64355469 c 1
EndSplineSet
Validated: 524297
EndChar

StartChar: logicalnot
Encoding: 172 172 109
Width: 1312
GlyphClass: 2
Flags: HW
LayerCount: 2
Fore
SplineSet
112 896 m 1
 112 1024 l 1
 1152 1024 l 1
 1152 520 l 1
 1000 520 l 1
 1000 896 l 1
 112 896 l 1
EndSplineSet
Validated: 1
EndChar

StartChar: uni00AD
Encoding: 173 173 110
Width: 1032
GlyphClass: 2
Flags: HW
LayerCount: 2
Fore
SplineSet
64 672 m 1
 64 808 l 1
 960 808 l 1
 960 672 l 1
 64 672 l 1
EndSplineSet
Validated: 1
EndChar

StartChar: registered
Encoding: 174 174 111
Width: 1368
GlyphClass: 2
Flags: HW
LayerCount: 2
Fore
SplineSet
840 920 m 0
 840 990.310938564 795.937667507 1032 728 1032 c 2
 552 1032 l 1
 552 800 l 1
 728 800 l 2
 800.030288681 800 840 842.615228179 840 920 c 0
928 920 m 0
 928 808.185940636 873.723087437 744.884616206 760 736 c 1
 960 376 l 1
 864 376 l 1
 680 736 l 1
 552 736 l 1
 552 376 l 1
 480 376 l 1
 480 1104 l 1
 728 1104 l 2
 842.905198448 1104 928 1027.88930461 928 920 c 0
208 736 m 1
 217.11674278 444.264231053 392.379471061 200 680 200 c 0
 813 200 927 251 1020 352 c 0
 1113 453 1160 581 1160 736 c 0
 1160 891 1113 1019 1020 1120 c 0
 927 1221 813 1272 680 1272 c 0
 547 1272 435 1220 344 1116 c 0
 253 1012 208 885 208 736 c 1
120 736 m 0
 120 928 177 1081 292 1196 c 0
 407 1311 536 1368 680 1368 c 0
 845 1368 980 1311 1084 1196 c 0
 1188 1081 1240 928 1240 736 c 0
 1240 560 1188 411 1084 288 c 0
 980 165 845 104 680 104 c 0
 515 104 380 165 276 288 c 0
 172 411 120 560 120 736 c 0
EndSplineSet
Validated: 524289
EndChar

StartChar: macron
Encoding: 175 175 112
Width: 1368
GlyphClass: 2
Flags: HW
LayerCount: 2
Fore
SplineSet
0 1624 m 1
 0 1760 l 1
 1368 1760 l 1
 1368 1624 l 1
 0 1624 l 1
EndSplineSet
Validated: 1
EndChar

StartChar: degree
Encoding: 176 176 113
Width: 2048
GlyphClass: 2
Flags: HW
LayerCount: 2
Fore
SplineSet
456 1512 m 0
 328.312627991 1512 256 1431.68627174 256 1304 c 0
 256 1180.43458871 334.804726985 1104 456 1104 c 0
 570.126346512 1104 648 1184.74137414 648 1304 c 0
 648 1357 631 1405 596 1448 c 0
 561 1491 515 1512 456 1512 c 0
112 1304 m 0
 112 1516.66631211 243.027563521 1656 456 1656 c 0
 547 1656 627 1624 696 1560 c 0
 765 1496 800 1411 800 1304 c 0
 800 1192 767 1105 700 1044 c 0
 633 983 552 952 456 952 c 0
 360 952 279 983 212 1044 c 0
 145 1105 112 1192 112 1304 c 0
EndSplineSet
Validated: 524289
EndChar

StartChar: plusminus
Encoding: 177 177 114
Width: 2048
GlyphClass: 2
Flags: HW
LayerCount: 2
Fore
SplineSet
320 864 m 1
 320 1024 l 1
 952 1024 l 1
 952 1624 l 1
 1096 1624 l 1
 1096 1024 l 1
 1728 1024 l 1
 1728 864 l 1
 1096 864 l 1
 1096 256 l 1
 952 256 l 1
 952 864 l 1
 320 864 l 1
320 -8 m 1
 1728 -8 l 1
 1728 -152 l 1
 320 -152 l 1
 320 -8 l 1
EndSplineSet
Validated: 1
EndChar

StartChar: uni00B2
Encoding: 178 178 115
Width: 488
GlyphClass: 2
Flags: HW
LayerCount: 2
Fore
SplineSet
136 1712 m 0
 216.068831599 1712 248 1620.13288075 248 1528 c 0
 248 1459 232 1389 200 1320 c 1
 88 1112 l 1
 248 1112 l 1
 248 1032 l 1
 32 1032 l 1
 32 1120 l 1
 152 1344 l 1
 189 1408 208 1469 208 1528 c 0
 208 1596.85966908 192.623565911 1632 136 1632 c 0
 120 1632 105 1625 92 1612 c 0
 79 1599 72 1568 72 1520 c 1
 32 1520 l 1
 32 1605.64253987 64.0181981867 1712 136 1712 c 0
EndSplineSet
Validated: 524289
EndChar

StartChar: uni00B3
Encoding: 179 179 116
Width: 488
GlyphClass: 2
Flags: HW
LayerCount: 2
Fore
SplineSet
32 1032 m 1
 32 1104 l 1
 120 1104 l 2
 168 1104 192 1149 192 1240 c 0
 192 1341 168 1392 120 1392 c 2
 64 1392 l 1
 64 1448 l 1
 176 1640 l 1
 32 1640 l 1
 32 1712 l 1
 248 1712 l 1
 248 1640 l 1
 144 1456 l 1
 213 1456 248 1384 248 1240 c 0
 248 1101 205 1032 120 1032 c 2
 32 1032 l 1
EndSplineSet
Validated: 1
EndChar

StartChar: acute
Encoding: 180 180 117
Width: 1024
GlyphClass: 2
Flags: HW
LayerCount: 2
Fore
SplineSet
275.108509913 1403.81660318 m 1
 300.465820312 1375.66894531 l 1
 303.409708962 1378.32097253 l 1
 321.267578125 1362.23339844 l 1
 475.069804787 1532.96243482 l 1
 645.803710938 1686.76953125 l 1
 629.715652727 1704.62793781 l 1
 632.3671875 1707.57128906 l 1
 604.224712043 1732.92393079 l 1
 578.872070312 1761.06640625 l 1
 575.928723678 1758.41486732 l 1
 558.0703125 1774.50292969 l 1
 404.263417694 1603.7687114 l 1
 233.534179688 1449.96582031 l 1
 249.621798024 1432.10790203 l 1
 246.970703125 1429.16503906 l 1
 275.108509913 1403.81660318 l 1
EndSplineSet
Validated: 524297
EndChar

StartChar: mu
Encoding: 181 181 118
Width: 1032
GlyphClass: 2
Flags: HW
LayerCount: 2
Fore
SplineSet
152 -288 m 1
 152 960 l 1
 344 960 l 1
 344 272 l 1
 387 187 435 144 488 144 c 0
 557 144 624 192 688 288 c 1
 688 960 l 1
 872 960 l 1
 872 0 l 1
 688 0 l 1
 688 104 l 1
 624 35 557 0 488 0 c 0
 424 0 376 29 344 88 c 1
 344 -288 l 1
 152 -288 l 1
EndSplineSet
Validated: 1
EndChar

StartChar: paragraph
Encoding: 182 182 119
Width: 1024
GlyphClass: 2
Flags: HW
LayerCount: 2
Fore
SplineSet
40 1296 m 0
 40 1444.23078676 85.9022971698 1624 216 1624 c 2
 488 1624 l 1
 488 1496 l 1
 464 1496 l 1
 464 -152 l 1
 384 -152 l 1
 384 1496 l 1
 288 1496 l 1
 288 -152 l 1
 208 -152 l 1
 208 960 l 1
 160 955 120 984 88 1048 c 0
 56 1112 40 1195 40 1296 c 0
EndSplineSet
Validated: 524321
EndChar

StartChar: periodcentered
Encoding: 183 183 120
Width: 416
GlyphClass: 2
Flags: HW
LayerCount: 2
Fore
SplineSet
160 640 m 1
 160 888 l 1
 256 888 l 1
 256 640 l 1
 160 640 l 1
EndSplineSet
Validated: 1
EndChar

StartChar: cedilla
Encoding: 184 184 121
Width: 416
GlyphClass: 2
Flags: HW
LayerCount: 2
Fore
SplineSet
200 -32 m 0
 142.501469044 -32 128 72.2250584977 128 144 c 0
 128 204.179923512 147.596121341 320 200 320 c 0
 254.957830385 320 272 209.591471478 272 144 c 0
 277 16 268 -84 244 -156 c 0
 220 -228 184 -272 136 -288 c 1
 128 -200 l 1
 183.905870089 -189.647061095 198.777205638 -139.025883919 208 -80 c 0
 213 -48 211 -32 200 -32 c 0
EndSplineSet
Validated: 524321
EndChar

StartChar: uni00B9
Encoding: 185 185 122
Width: 488
GlyphClass: 2
Flags: HW
LayerCount: 2
Fore
SplineSet
32 1520 m 1
 32 1616 l 1
 75 1616 101 1648 112 1712 c 1
 160 1712 l 1
 160 1032 l 1
 88 1032 l 1
 88 1520 l 1
 32 1520 l 1
EndSplineSet
Validated: 1
EndChar

StartChar: ordmasculine
Encoding: 186 186 123
Width: 488
GlyphClass: 2
Flags: HMW
HStem: 1030.15 114.563<-704.229 -688.009 -704.229 -628.184> 1044.72 85.4365<-696.12 -679.367 -712.874 -631.49> 1567.34 112.563<-704.02 -688.223>
VStem: -899.465 121.634<1287.94 1422.29 1287.94 1432.5> -877.831 78.3662<1289.39 1420.49> -614.408 121.634<1287.95 1422.3> -592.774 78.3662<1289.38 1420.48 1289.38 1429.37>
LayerCount: 2
Fore
SplineSet
-614.408203125 1355.02832031 m 0
 -614.408203125 1220.87695312 -679.897460938 1144.71582031 -696.12109375 1144.71582031 c 0
 -712.337890625 1144.71582031 -777.831054688 1220.85742188 -777.831054688 1355.02832031 c 0
 -777.831054688 1489.54199219 -711.920898438 1567.34179688 -696.119140625 1567.34179688 c 0
 -680.327148438 1567.34179688 -614.408203125 1489.57226562 -614.408203125 1355.02832031 c 0
-492.774414062 1355.02832031 m 0
 -492.774414062 1509.9609375 -560.247070312 1679.90527344 -696.119140625 1679.90527344 c 0
 -831.994140625 1679.90527344 -899.46484375 1509.96289062 -899.46484375 1355.02832031 c 0
 -899.46484375 1200.09570312 -831.993164062 1030.15234375 -696.12109375 1030.15234375 c 0
 -560.247070312 1030.15234375 -492.774414062 1200.09375 -492.774414062 1355.02832031 c 0
EndSplineSet
Validated: 8912905
EndChar

StartChar: guillemotright
Encoding: 187 187 124
Width: 1368
GlyphClass: 2
Flags: HW
LayerCount: 2
Fore
SplineSet
201.88671875 1394.92675781 m 1
 179.946614583 1369.83235677 158.006510417 1344.73795573 136.06640625 1319.64355469 c 1
 354.776260615 1126.53146895 579.212755003 939.146023232 788.576171875 736.6875 c 1
 579.599558472 532.62374882 355.667456264 343.515486444 137.319335938 148.823242188 c 1
 159.386393229 123.840169271 181.453450521 98.8570963542 203.520507812 73.8740234375 c 1
 207.490626343 77.3807933075 l 1
 221.924804688 62.1435546875 l 1
 449.442287712 276.967868538 673.206489863 495.545463262 911.6953125 699.3984375 c 1
 954.338867188 737.065429688 l 1
 855.923028113 823.109189681 757.507407212 909.153167847 659.091660648 995.19702035 c 1
 220.296875 1406.66503906 l 1
 205.954617246 1391.37023458 l 1
 201.88671875 1394.92675781 l 1
521.88671875 1394.92675781 m 1
 499.946614583 1369.83235677 478.006510417 1344.73795573 456.06640625 1319.64355469 c 1
 674.776260615 1126.53146895 899.212755003 939.146023232 1108.57617188 736.6875 c 1
 899.599558472 532.62374882 675.667456264 343.515486444 457.319335938 148.823242188 c 1
 479.386393229 123.840169271 501.453450521 98.8570963542 523.520507812 73.8740234375 c 1
 527.490626343 77.3807933075 l 1
 541.924804688 62.1435546875 l 1
 769.442287712 276.967868538 993.206489863 495.545463262 1231.6953125 699.3984375 c 1
 1274.33886719 737.065429688 l 1
 1175.92302811 823.109189681 1077.50740721 909.153167847 979.091660648 995.19702035 c 1
 540.296875 1406.66503906 l 1
 525.954617246 1391.37023458 l 1
 521.88671875 1394.92675781 l 1
EndSplineSet
Validated: 524297
EndChar

StartChar: onequarter
Encoding: 188 188 125
Width: 1048
GlyphClass: 2
Flags: HW
LayerCount: 2
Fore
SplineSet
584 256 m 1
 768 256 l 1
 768 560 l 1
 584 256 l 1
472 168 m 1
 472 208 l 1
 784 736 l 1
 872 736 l 1
 872 256 l 1
 992 256 l 1
 992 168 l 1
 872 168 l 1
 872 0 l 1
 768 0 l 1
 768 168 l 1
 472 168 l 1
168 32 m 1
 808 1552 l 1
 872 1536 l 1
 232 8 l 1
 168 32 l 1
72 1408 m 1
 72 1480 l 1
 147 1480 189 1504 200 1552 c 1
 272 1552 l 1
 272 816 l 1
 176 816 l 1
 176 1408 l 1
 72 1408 l 1
EndSplineSet
Validated: 1
EndChar

StartChar: onehalf
Encoding: 189 189 126
Width: 1048
GlyphClass: 2
Flags: HW
LayerCount: 2
Fore
SplineSet
752 648 m 0
 671.553463918 648 632 611.860156977 632 520 c 1
 536 520 l 1
 536 643.188886543 631.361988908 736 752 736 c 0
 879.062116028 736 976 655.686271739 976 528 c 0
 976 459 941 387 872 312 c 1
 648 88 l 1
 976 88 l 1
 976 0 l 1
 544 0 l 1
 544 96 l 1
 784 336 l 1
 848 405 880 469 880 528 c 0
 880 617.280973641 835.058843963 648 752 648 c 0
168 32 m 1
 808 1552 l 1
 872 1536 l 1
 232 8 l 1
 168 32 l 1
72 1416 m 1
 72 1480 l 1
 147 1485 189 1509 200 1552 c 1
 272 1552 l 1
 272 816 l 1
 176 816 l 1
 176 1416 l 1
 72 1416 l 1
EndSplineSet
Validated: 524289
EndChar

StartChar: threequarters
Encoding: 190 190 127
Width: 1048
GlyphClass: 2
Flags: HW
LayerCount: 2
Fore
SplineSet
608 256 m 1
 808 256 l 1
 808 568 l 1
 608 256 l 1
504 168 m 1
 504 272 l 1
 800 736 l 1
 904 736 l 1
 904 256 l 1
 1032 256 l 1
 1032 168 l 1
 904 168 l 1
 904 0 l 1
 808 0 l 1
 808 168 l 1
 504 168 l 1
168 32 m 1
 808 1552 l 1
 872 1536 l 1
 232 8 l 1
 168 32 l 1
72 816 m 1
 72 896 l 1
 232 896 l 2
 323 896 368 947 368 1048 c 0
 368 1155 323 1208 232 1208 c 2
 128 1208 l 1
 128 1272 l 1
 336 1472 l 1
 72 1472 l 1
 72 1552 l 1
 488 1552 l 1
 488 1472 l 1
 280 1272 l 1
 419 1272 488 1197 488 1048 c 0
 488 893 403 816 232 816 c 2
 72 816 l 1
EndSplineSet
Validated: 1
EndChar

StartChar: questiondown
Encoding: 191 191 128
Width: 928
GlyphClass: 2
Flags: HW
LayerCount: 2
Fore
SplineSet
376 1360 m 1
 376 1584 l 1
 568 1584 l 1
 568 1360 l 1
 376 1360 l 1
848 336 m 2
 848 95.9190369046 685.29132868 -80 448 -80 c 1
 331 -85 236 -52 164 20 c 0
 92 92 56 179 56 280 c 0
 56 392 80 477 128 536 c 0
 176 595 229 645 288 688 c 0
 385.77172942 767.543101901 400 845.476598438 400 992 c 2
 400 1112 l 1
 552 1112 l 1
 552 992 l 2
 552 817.13949046 526.482112146 734.482112146 416 624 c 1
 347 571 293 521 256 476 c 0
 219 431 200 368 200 288 c 0
 200 144.025255635 293.855113273 56 448 56 c 0
 621.748162426 56 712 168.185005303 712 336 c 2
 712 424 l 1
 848 424 l 1
 848 336 l 2
EndSplineSet
Validated: 524321
EndChar

StartChar: Agrave
Encoding: 192 192 129
Width: 1296
GlyphClass: 2
Flags: HW
LayerCount: 2
Fore
SplineSet
782.853962913 1378.32097253 m 1
 785.797851562 1375.66894531 l 1
 811.155161962 1403.81660318 l 1
 839.29296875 1429.16503906 l 1
 836.641873851 1432.10790203 l 1
 852.729492188 1449.96582031 l 1
 682.000254181 1603.7687114 l 1
 528.193359375 1774.50292969 l 1
 510.334948197 1758.41486732 l 1
 507.391601562 1761.06640625 l 1
 482.038959832 1732.92393079 l 1
 453.896484375 1707.57128906 l 1
 456.548019148 1704.62793781 l 1
 440.459960938 1686.76953125 l 1
 611.193867088 1532.96243482 l 1
 764.99609375 1362.23339844 l 1
 782.853962913 1378.32097253 l 1
905.341204479 452.1015625 m 1
 984.474354088 226.417036315 1051.40954808 32.6615312674 1059.79589844 -0.5615234375 c 1
 1219.45898438 -0.5615234375 l 1
 1219.45898438 50.1064453125 750.334960938 1281.41699219 748.069335938 1287.49316406 c 2
 735.939453125 1320.0234375 l 1
 560.5546875 1320.0234375 l 1
 548.424804688 1287.49316406 l 2
 546.126953125 1281.33203125 77.0341796875 50.234375 77.0341796875 -0.5615234375 c 1
 236.947265625 -0.5615234375 l 1
 245.411754174 31.0323513911 312.71953037 225.492893793 392.078661948 452.1015625 c 1
 905.341204479 452.1015625 l 1
870.217960165 552.1015625 m 1
 427.145747748 552.1015625 l 1
 513.097432646 796.910777634 604.869311207 1056.30534334 648.310546875 1179.00878906 c 1
 692.429870978 1054.9756496 784.342063501 796.222449733 870.217960165 552.1015625 c 1
EndSplineSet
Validated: 524297
EndChar

StartChar: Aacute
Encoding: 193 193 130
Width: 1296
GlyphClass: 2
Flags: HW
LayerCount: 2
Fore
SplineSet
482.034291163 1403.81660318 m 1
 507.391601562 1375.66894531 l 1
 510.335490212 1378.32097253 l 1
 528.193359375 1362.23339844 l 1
 681.995586037 1532.96243482 l 1
 852.729492188 1686.76953125 l 1
 836.641433977 1704.62793781 l 1
 839.29296875 1707.57128906 l 1
 811.150493293 1732.92393079 l 1
 785.797851562 1761.06640625 l 1
 782.854504928 1758.41486732 l 1
 764.99609375 1774.50292969 l 1
 611.189198944 1603.7687114 l 1
 440.459960938 1449.96582031 l 1
 456.547579274 1432.10790203 l 1
 453.896484375 1429.16503906 l 1
 482.034291163 1403.81660318 l 1
905.341204479 452.1015625 m 1
 984.474354088 226.417036315 1051.40954808 32.6615312674 1059.79589844 -0.5615234375 c 1
 1219.45898438 -0.5615234375 l 1
 1219.45898438 50.1064453125 750.334960938 1281.41699219 748.069335938 1287.49316406 c 2
 735.939453125 1320.0234375 l 1
 560.5546875 1320.0234375 l 1
 548.424804688 1287.49316406 l 2
 546.126953125 1281.33203125 77.0341796875 50.234375 77.0341796875 -0.5615234375 c 1
 236.947265625 -0.5615234375 l 1
 245.411754174 31.0323513911 312.71953037 225.492893793 392.078661948 452.1015625 c 1
 905.341204479 452.1015625 l 1
870.217960165 552.1015625 m 1
 427.145747748 552.1015625 l 1
 513.097432646 796.910777634 604.869311207 1056.30534334 648.310546875 1179.00878906 c 1
 692.429870978 1054.9756496 784.342063501 796.222449733 870.217960165 552.1015625 c 1
EndSplineSet
Validated: 524297
EndChar

StartChar: Acircumflex
Encoding: 194 194 131
Width: 1296
GlyphClass: 2
Flags: HW
LayerCount: 2
Fore
SplineSet
856.470703125 1340.49804688 m 1
 883.528645833 1359.96549479 910.586588542 1379.43294271 937.64453125 1398.90039062 c 1
 932.634294855 1405.86410446 l 1
 948.24609375 1418.98046875 l 1
 773.842788146 1626.56798437 l 1
 732.093392589 1684.59541143 690.343851344 1742.6226928 648.594726562 1800.65039062 c 1
 606.846264683 1742.62372134 565.097585944 1684.59726891 523.348981742 1626.57074195 c 1
 348.943359375 1418.98046875 l 1
 364.555754648 1405.86360341 l 1
 359.545898438 1398.90039062 l 1
 386.603841146 1379.43294271 413.661783854 1359.96549479 440.719726562 1340.49804688 c 1
 602.332200161 1565.12347174 l 1
 648.594726562 1620.18847656 l 1
 724.019788847 1533.09140343 786.988660328 1433.53813949 856.470703125 1340.49804688 c 1
905.341204479 452.1015625 m 1
 984.474354088 226.417036315 1051.40954808 32.6615312674 1059.79589844 -0.5615234375 c 1
 1219.45898438 -0.5615234375 l 1
 1219.45898438 50.1064453125 750.334960938 1281.41699219 748.069335938 1287.49316406 c 2
 735.939453125 1320.0234375 l 1
 560.5546875 1320.0234375 l 1
 548.424804688 1287.49316406 l 2
 546.126953125 1281.33203125 77.0341796875 50.234375 77.0341796875 -0.5615234375 c 1
 236.947265625 -0.5615234375 l 1
 245.411754174 31.0323513911 312.71953037 225.492893793 392.078661948 452.1015625 c 1
 905.341204479 452.1015625 l 1
870.217960165 552.1015625 m 1
 427.145747748 552.1015625 l 1
 513.097432646 796.910777634 604.869311207 1056.30534334 648.310546875 1179.00878906 c 1
 692.429870978 1054.9756496 784.342063501 796.222449733 870.217960165 552.1015625 c 1
EndSplineSet
Validated: 524297
EndChar

StartChar: Atilde
Encoding: 195 195 132
Width: 1296
GlyphClass: 2
Flags: HW
LayerCount: 2
Fore
SplineSet
496 480 m 1
 744 480 l 1
 616 952 l 1
 496 480 l 1
272 1400 m 1
 272 1600 l 1
 352 1707 416 1760 464 1760 c 0
 512 1760 552 1733 584 1680 c 1
 680 1560 l 1
 712 1523 747 1504 784 1504 c 0
 821 1504 883 1563 968 1680 c 1
 968 1480 l 1
 893 1379 832 1328 784 1328 c 0
 736 1328 693 1352 656 1400 c 1
 560 1520 l 1
 533 1557 501 1576 464 1576 c 0
 421 1576 357 1517 272 1400 c 1
232 0 m 1
 544 1176 l 1
 696 1176 l 1
 1008 0 l 1
 872 0 l 1
 776 336 l 1
 456 336 l 1
 368 0 l 1
 232 0 l 1
EndSplineSet
Validated: 1
EndChar

StartChar: Adieresis
Encoding: 196 196 133
Width: 1296
GlyphClass: 2
Flags: HW
LayerCount: 2
Fore
SplineSet
874.627929688 1713.31152344 m 1
 737.145507812 1713.31152344 l 1
 737.145507812 1452.20898438 l 1
 874.627929688 1452.20898438 l 1
 874.627929688 1713.31152344 l 1
554.627929688 1713.31152344 m 1
 417.145507812 1713.31152344 l 1
 417.145507812 1452.20898438 l 1
 554.627929688 1452.20898438 l 1
 554.627929688 1713.31152344 l 1
905.341204479 452.1015625 m 1
 984.474354088 226.417036315 1051.40954808 32.6615312674 1059.79589844 -0.5615234375 c 1
 1219.45898438 -0.5615234375 l 1
 1219.45898438 50.1064453125 750.334960938 1281.41699219 748.069335938 1287.49316406 c 2
 735.939453125 1320.0234375 l 1
 560.5546875 1320.0234375 l 1
 548.424804688 1287.49316406 l 2
 546.126953125 1281.33203125 77.0341796875 50.234375 77.0341796875 -0.5615234375 c 1
 236.947265625 -0.5615234375 l 1
 245.411754174 31.0323513911 312.71953037 225.492893793 392.078661948 452.1015625 c 1
 905.341204479 452.1015625 l 1
870.217960165 552.1015625 m 1
 427.145747748 552.1015625 l 1
 513.097432646 796.910777634 604.869311207 1056.30534334 648.310546875 1179.00878906 c 1
 692.429870978 1054.9756496 784.342063501 796.222449733 870.217960165 552.1015625 c 1
EndSplineSet
Validated: 524297
EndChar

StartChar: Aring
Encoding: 197 197 134
Width: 1296
GlyphClass: 2
Flags: HW
LayerCount: 2
Fore
SplineSet
496 480 m 1
 744 480 l 1
 616 952 l 1
 496 480 l 1
624 1688 m 0
 543.69975674 1688 488 1625.77265048 488 1552 c 0
 488 1467.0210599 538.71383526 1408 624 1408 c 0
 661 1408 693 1424 720 1456 c 1
 747 1477 760 1509 760 1552 c 0
 760 1625.77054794 697.772650478 1688 624 1688 c 0
624 1760 m 0
 729.145291956 1760 832 1657.14519396 832 1552 c 0
 832 1493 811 1445 768 1408 c 1
 725 1365 677 1344 624 1344 c 0
 565 1344 517 1365 480 1408 c 1
 437 1445 416 1493 416 1552 c 0
 416 1605 437 1653 480 1696 c 1
 517 1739 565 1760 624 1760 c 0
232 0 m 1
 544 1176 l 1
 696 1176 l 1
 1008 0 l 1
 872 0 l 1
 776 336 l 1
 456 336 l 1
 368 0 l 1
 232 0 l 1
EndSplineSet
Validated: 524289
EndChar

StartChar: AE
Encoding: 198 198 135
Width: 1368
GlyphClass: 2
Flags: HW
LayerCount: 2
Fore
SplineSet
480 480 m 1
 680 480 l 1
 680 920 l 1
 480 480 l 1
128 0 m 1
 672 1176 l 1
 1248 1176 l 1
 1248 1040 l 1
 784 1040 l 1
 784 688 l 1
 1160 688 l 1
 1160 544 l 1
 784 544 l 1
 784 136 l 1
 1248 136 l 1
 1248 0 l 1
 680 0 l 1
 680 344 l 1
 416 344 l 1
 264 0 l 1
 128 0 l 1
EndSplineSet
Validated: 1
EndChar

StartChar: Ccedilla
Encoding: 199 199 136
Width: 1360
GlyphClass: 2
Flags: HMW
HStem: -302.9 106.285<707.314 734.175> 29.5781 54.1709<552.21 854.257> 1413.5 138.295<559.75 660.987 660.987 768.701 459.237 834.688> 1451.79 61.7051<660.987 768.701 768.701 861.016 520.028 880.067>
VStem: 121.815 141.419<594.969 973.035> 163.234 58.5811<586.379 969.57 557.624 986.222> 757.828 100<-179.643 -163.521> 1099 160<419.701 575> 1159 40<426.844 575>
LayerCount: 2
Fore
SplineSet
754.216796875 -309.73828125 m 0
 832.873433771 -309.73828125 857.828125 -225.395109972 857.828125 -171.504882812 c 0
 857.828125 -105.719726562 820.80078125 -54.548828125 769.258789062 -42.6181640625 c 1
 771.167767494 -13.5363613355 l 1
 1095.57801071 14.6948423644 1259 259.986014238 1259 575 c 1
 1099 575 l 1
 1099 264.401367188 947.383789062 129.578125 706.793945312 129.578125 c 0
 425.532226562 129.578125 263.234375 418.499023438 263.234375 771.439453125 c 0
 263.234375 1182.53710938 416.241210938 1413.49511719 703.259765625 1413.49511719 c 0
 966.115234375 1413.49511719 1095 1267.85449219 1095 1016.13574219 c 1
 1255 1016.13574219 l 1
 1255 1314.06152344 1054.71777344 1551.79003906 768.701171875 1551.79003906 c 2
 660.987304688 1551.79003906 l 2
 257.486328125 1551.79003906 121.815429688 1174.41503906 121.815429688 771.655273438 c 0
 121.815429688 336.726814217 306.164828056 5.34839650694 670.841335471 -15.2358886281 c 1
 668.853196382 -45.526713591 666.865634238 -75.8181154982 664.876953125 -106.108398438 c 1
 671.500998639 -114.40101959 678.125055406 -122.69362949 684.749023438 -130.986328125 c 2
 714.330078125 -168.01953125 l 1
 749.640625 -142.780273438 l 1
 752.900390625 -146.79296875 757.828125 -155.536132812 757.828125 -171.504882812 c 0
 757.828125 -187.780273438 753.846679688 -202.435546875 750.020507812 -209.249023438 c 1
 728.255859375 -205.907226562 761.036132812 -196.615234375 707.314453125 -196.615234375 c 1
 707.314453125 -302.900390625 l 1
 717.791992188 -308.391601562 719.897460938 -308.8046875 754.216796875 -309.73828125 c 0
EndSplineSet
Validated: 8912905
EndChar

StartChar: Egrave
Encoding: 200 200 137
Width: 1160
GlyphClass: 2
Flags: HMW
VStem: 246.94 9.88281<604.236 654.236 604.236 604.236 654.236 704.236>
LayerCount: 2
Fore
SplineSet
706.853962913 1378.32097253 m 1
 709.797851562 1375.66894531 l 1
 735.155161962 1403.81660318 l 1
 763.29296875 1429.16503906 l 1
 760.641873851 1432.10790203 l 1
 776.729492188 1449.96582031 l 1
 606.000254181 1603.7687114 l 1
 452.193359375 1774.50292969 l 1
 434.334948197 1758.41486732 l 1
 431.391601562 1761.06640625 l 1
 406.038959832 1732.92393079 l 1
 377.896484375 1707.57128906 l 1
 380.548019148 1704.62793781 l 1
 364.459960938 1686.76953125 l 1
 535.193867088 1532.96243482 l 1
 688.99609375 1362.23339844 l 1
 706.853962913 1378.32097253 l 1
297.08203125 704.236328125 m 1
 297.08203125 1112.54003906 l 1
 1000.00097656 1112.54003906 l 1
 1000.00097656 1242.50390625 l 1
 718.941731771 1242.50390625 437.882486979 1242.50390625 156.823242188 1242.50390625 c 1
 156.823242188 -10.3232421875 l 1
 437.882486979 -10.3232421875 718.941731771 -10.3232421875 1000.00097656 -10.3232421875 c 1
 1000.00097656 21.4941386744 l 1
 1000.01074219 21.494140625 l 1
 1000.00097656 71.494140625 l 1
 1000.00097656 89.6767578125 l 1
 999.99742527 89.6767578125 l 1
 999.99742527 100.282552083 999.991210938 110.888346354 999.991210938 121.494140625 c 1
 297.08203125 121.353515625 l 1
 297.08203125 603.021672497 l 1
 495.102731022 601.646925972 914.842171446 604.232528943 919.297851562 604.236328125 c 1
 919.255859375 654.236328125 l 1
 919.255859375 704.236328125 l 1
 297.08203125 704.236328125 l 1
EndSplineSet
Validated: 524329
EndChar

StartChar: Eacute
Encoding: 201 201 138
Width: 1160
GlyphClass: 2
Flags: HMW
VStem: 246.94 9.88281<604.236 654.236 604.236 604.236 654.236 704.236>
LayerCount: 2
Fore
SplineSet
444.034291163 1403.81660318 m 1
 469.391601562 1375.66894531 l 1
 472.335490212 1378.32097253 l 1
 490.193359375 1362.23339844 l 1
 643.995586037 1532.96243482 l 1
 814.729492188 1686.76953125 l 1
 798.641433977 1704.62793781 l 1
 801.29296875 1707.57128906 l 1
 773.150493293 1732.92393079 l 1
 747.797851562 1761.06640625 l 1
 744.854504928 1758.41486732 l 1
 726.99609375 1774.50292969 l 1
 573.189198944 1603.7687114 l 1
 402.459960938 1449.96582031 l 1
 418.547579274 1432.10790203 l 1
 415.896484375 1429.16503906 l 1
 444.034291163 1403.81660318 l 1
297.08203125 704.236328125 m 1
 297.08203125 1112.54003906 l 1
 1000.00097656 1112.54003906 l 1
 1000.00097656 1242.50390625 l 1
 718.941731771 1242.50390625 437.882486979 1242.50390625 156.823242188 1242.50390625 c 1
 156.823242188 -10.3232421875 l 1
 437.882486979 -10.3232421875 718.941731771 -10.3232421875 1000.00097656 -10.3232421875 c 1
 1000.00097656 21.4941386744 l 1
 1000.01074219 21.494140625 l 1
 1000.00097656 71.494140625 l 1
 1000.00097656 89.6767578125 l 1
 999.99742527 89.6767578125 l 1
 999.99742527 100.282552083 999.991210938 110.888346354 999.991210938 121.494140625 c 1
 297.08203125 121.353515625 l 1
 297.08203125 603.021672497 l 1
 495.102731022 601.646925972 914.842171446 604.232528943 919.297851562 604.236328125 c 1
 919.255859375 654.236328125 l 1
 919.255859375 704.236328125 l 1
 297.08203125 704.236328125 l 1
EndSplineSet
Validated: 524329
EndChar

StartChar: Ecircumflex
Encoding: 202 202 139
Width: 1160
GlyphClass: 2
Flags: HMW
VStem: 246.94 9.88281<604.236 654.236 604.236 604.236 654.236 704.236>
LayerCount: 2
Fore
SplineSet
784.470703125 1340.49804688 m 1
 811.528645833 1359.96549479 838.586588542 1379.43294271 865.64453125 1398.90039062 c 1
 860.634294855 1405.86410446 l 1
 876.24609375 1418.98046875 l 1
 701.842788146 1626.56798437 l 1
 660.093392589 1684.59541143 618.343851344 1742.6226928 576.594726562 1800.65039062 c 1
 534.846264683 1742.62372134 493.097585944 1684.59726891 451.348981742 1626.57074195 c 1
 276.943359375 1418.98046875 l 1
 292.555754648 1405.86360341 l 1
 287.545898438 1398.90039062 l 1
 314.603841146 1379.43294271 341.661783854 1359.96549479 368.719726562 1340.49804688 c 1
 530.332200161 1565.12347174 l 1
 576.594726562 1620.18847656 l 1
 652.019788847 1533.09140343 714.988660328 1433.53813949 784.470703125 1340.49804688 c 1
297.08203125 704.236328125 m 1
 297.08203125 1112.54003906 l 1
 1000.00097656 1112.54003906 l 1
 1000.00097656 1242.50390625 l 1
 718.941731771 1242.50390625 437.882486979 1242.50390625 156.823242188 1242.50390625 c 1
 156.823242188 -10.3232421875 l 1
 437.882486979 -10.3232421875 718.941731771 -10.3232421875 1000.00097656 -10.3232421875 c 1
 1000.00097656 21.4941386744 l 1
 1000.01074219 21.494140625 l 1
 1000.00097656 71.494140625 l 1
 1000.00097656 89.6767578125 l 1
 999.99742527 89.6767578125 l 1
 999.99742527 100.282552083 999.991210938 110.888346354 999.991210938 121.494140625 c 1
 297.08203125 121.353515625 l 1
 297.08203125 603.021672497 l 1
 495.102731022 601.646925972 914.842171446 604.232528943 919.297851562 604.236328125 c 1
 919.255859375 654.236328125 l 1
 919.255859375 704.236328125 l 1
 297.08203125 704.236328125 l 1
EndSplineSet
Validated: 524329
EndChar

StartChar: Edieresis
Encoding: 203 203 140
Width: 1160
GlyphClass: 2
Flags: HMW
VStem: 246.94 9.88281<604.236 654.236 604.236 604.236 654.236 704.236>
LayerCount: 2
Fore
SplineSet
824.627929688 1713.31152344 m 1
 687.145507812 1713.31152344 l 1
 687.145507812 1452.20898438 l 1
 824.627929688 1452.20898438 l 1
 824.627929688 1713.31152344 l 1
504.627929688 1713.31152344 m 1
 367.145507812 1713.31152344 l 1
 367.145507812 1452.20898438 l 1
 504.627929688 1452.20898438 l 1
 504.627929688 1713.31152344 l 1
297.08203125 704.236328125 m 1
 297.08203125 1112.54003906 l 1
 1000.00097656 1112.54003906 l 1
 1000.00097656 1242.50390625 l 1
 718.941731771 1242.50390625 437.882486979 1242.50390625 156.823242188 1242.50390625 c 1
 156.823242188 -10.3232421875 l 1
 437.882486979 -10.3232421875 718.941731771 -10.3232421875 1000.00097656 -10.3232421875 c 1
 1000.00097656 21.4941386744 l 1
 1000.01074219 21.494140625 l 1
 1000.00097656 71.494140625 l 1
 1000.00097656 89.6767578125 l 1
 999.99742527 89.6767578125 l 1
 999.99742527 100.282552083 999.991210938 110.888346354 999.991210938 121.494140625 c 1
 297.08203125 121.353515625 l 1
 297.08203125 603.021672497 l 1
 495.102731022 601.646925972 914.842171446 604.232528943 919.297851562 604.236328125 c 1
 919.255859375 654.236328125 l 1
 919.255859375 704.236328125 l 1
 297.08203125 704.236328125 l 1
EndSplineSet
Validated: 524329
EndChar

StartChar: Igrave
Encoding: 204 204 141
Width: 688
GlyphClass: 2
Flags: HW
LayerCount: 2
Fore
SplineSet
288 0 m 1
 288 1176 l 1
 408 1176 l 1
 408 0 l 1
 288 0 l 1
176 1768 m 1
 360 1768 l 1
 512 1360 l 1
 408 1360 l 1
 176 1768 l 1
EndSplineSet
Validated: 1
EndChar

StartChar: Iacute
Encoding: 205 205 142
Width: 592
GlyphClass: 2
Flags: HW
LayerCount: 2
Fore
SplineSet
248 0 m 1
 248 1176 l 1
 352 1176 l 1
 352 0 l 1
 248 0 l 1
152 1416 m 1
 288 1768 l 1
 440 1768 l 1
 240 1416 l 1
 152 1416 l 1
EndSplineSet
Validated: 1
EndChar

StartChar: Icircumflex
Encoding: 206 206 143
Width: 888
GlyphClass: 2
Flags: HW
LayerCount: 2
Fore
SplineSet
376 0 m 1
 376 1176 l 1
 520 1176 l 1
 520 0 l 1
 376 0 l 1
168 1480 m 1
 408 1760 l 1
 480 1760 l 1
 720 1480 l 1
 632 1408 l 1
 448 1632 l 1
 256 1408 l 1
 168 1480 l 1
EndSplineSet
Validated: 1
EndChar

StartChar: Idieresis
Encoding: 207 207 144
Width: 688
GlyphClass: 2
Flags: HW
LayerCount: 2
Fore
SplineSet
416 1528 m 1
 416 1768 l 1
 576 1768 l 1
 576 1528 l 1
 416 1528 l 1
288 0 m 1
 288 1176 l 1
 408 1176 l 1
 408 0 l 1
 288 0 l 1
80 1528 m 1
 80 1768 l 1
 240 1768 l 1
 240 1528 l 1
 80 1528 l 1
EndSplineSet
Validated: 1
EndChar

StartChar: Eth
Encoding: 208 208 145
Width: 1328
GlyphClass: 2
Flags: HW
LayerCount: 2
Fore
SplineSet
496 152 m 1
 656 152 l 2
 789 152 883 209 936 324 c 0
 989 439 1016 588 1016 772 c 0
 1016 956 989 1109 936 1232 c 0
 883 1355 789 1416 656 1416 c 2
 496 1416 l 1
 496 872 l 1
 728 872 l 1
 728 736 l 1
 496 736 l 1
 496 152 l 1
176 736 m 1
 176 872 l 1
 376 872 l 1
 376 1552 l 1
 656 1552 l 2
 843 1552 973 1481 1048 1340 c 0
 1123 1199 1160 1011 1160 776 c 0
 1160 541 1123 353 1048 212 c 0
 973 71 843 0 656 0 c 2
 376 0 l 1
 376 736 l 1
 176 736 l 1
EndSplineSet
Validated: 1
EndChar

StartChar: Ntilde
Encoding: 209 209 146
Width: 1312
GlyphClass: 2
Flags: HW
LayerCount: 2
Fore
SplineSet
128 1488 m 1
 128 1640 l 1
 245 1720 341 1760 416 1760 c 0
 491 1760 552 1741 600 1704 c 1
 744 1608 l 1
 787 1581 837 1568 896 1568 c 0
 960 1568 1056 1613 1184 1704 c 1
 1184 1552 l 1
 1067 1472 971 1432 896 1432 c 0
 827 1432 765 1451 712 1488 c 1
 568 1584 l 1
 525 1611 475 1624 416 1624 c 0
 357 1624 261 1579 128 1488 c 1
112 0 m 1
 112 1176 l 1
 400 1176 l 1
 984 288 l 1
 984 1176 l 1
 1208 1176 l 1
 1208 0 l 1
 928 0 l 1
 336 912 l 1
 336 0 l 1
 112 0 l 1
EndSplineSet
Validated: 1
EndChar

StartChar: Ograve
Encoding: 210 210 147
Width: 1368
GlyphClass: 2
Flags: HW
LayerCount: 2
Fore
SplineSet
392 1760 m 1
 688 1760 l 1
 944 1432 l 1
 768 1432 l 1
 392 1760 l 1
320 584 m 0
 320 429 357 315 432 240 c 0
 507 165 588 128 676 128 c 0
 764 128 847 165 924 240 c 0
 1001 315 1040 429 1040 584 c 0
 1040 733 1003 848 928 928 c 0
 853 1008 779 1048 704 1048 c 2
 648 1048 l 2
 579 1048 507 1005 432 920 c 0
 357 835 320 723 320 584 c 0
152 584 m 0
 152 739 195 876 280 996 c 0
 365 1116 477 1176 616 1176 c 2
 736 1176 l 2
 869 1176 981 1116 1072 996 c 0
 1163 876 1208 739 1208 584 c 0
 1208 419 1159 279 1060 164 c 0
 961 49 833 -8 676 -8 c 0
 519 -8 392 49 296 164 c 0
 200 279 152 419 152 584 c 0
EndSplineSet
Validated: 1
EndChar

StartChar: Oacute
Encoding: 211 211 148
Width: 1368
GlyphClass: 2
Flags: HW
LayerCount: 2
Fore
SplineSet
472 1408 m 1
 680 1760 l 1
 928 1760 l 1
 616 1408 l 1
 472 1408 l 1
320 584 m 0
 320 429 357 315 432 240 c 0
 507 165 588 128 676 128 c 0
 764 128 847 165 924 240 c 0
 1001 315 1040 429 1040 584 c 0
 1040 733 1003 848 928 928 c 0
 853 1008 779 1048 704 1048 c 2
 648 1048 l 2
 579 1048 507 1005 432 920 c 0
 357 835 320 723 320 584 c 0
152 584 m 0
 152 739 195 876 280 996 c 0
 365 1116 477 1176 616 1176 c 2
 736 1176 l 2
 869 1176 981 1116 1072 996 c 0
 1163 876 1208 739 1208 584 c 0
 1208 419 1159 279 1060 164 c 0
 961 49 833 -8 676 -8 c 0
 519 -8 392 49 296 164 c 0
 200 279 152 419 152 584 c 0
EndSplineSet
Validated: 1
EndChar

StartChar: Ocircumflex
Encoding: 212 212 149
Width: 1368
GlyphClass: 2
Flags: HW
LayerCount: 2
Fore
SplineSet
392 1480 m 1
 640 1760 l 1
 712 1760 l 1
 960 1480 l 1
 872 1408 l 1
 680 1640 l 1
 488 1408 l 1
 392 1480 l 1
320 584 m 0
 320 429 357 315 432 240 c 0
 507 165 588 128 676 128 c 0
 764 128 847 165 924 240 c 0
 1001 315 1040 429 1040 584 c 0
 1040 733 1003 848 928 928 c 0
 853 1008 779 1048 704 1048 c 2
 648 1048 l 2
 579 1048 507 1005 432 920 c 0
 357 835 320 723 320 584 c 0
152 584 m 0
 152 739 195 876 280 996 c 0
 365 1116 477 1176 616 1176 c 2
 736 1176 l 2
 869 1176 981 1116 1072 996 c 0
 1163 876 1208 739 1208 584 c 0
 1208 419 1159 279 1060 164 c 0
 961 49 833 -8 676 -8 c 0
 519 -8 392 49 296 164 c 0
 200 279 152 419 152 584 c 0
EndSplineSet
Validated: 1
EndChar

StartChar: Otilde
Encoding: 213 213 150
Width: 1368
GlyphClass: 2
Flags: HW
LayerCount: 2
Fore
SplineSet
320 584 m 0
 320 429 357 315 432 240 c 0
 507 165 588 128 676 128 c 0
 764 128 847 165 924 240 c 0
 1001 315 1040 429 1040 584 c 0
 1040 733 1003 848 928 928 c 0
 853 1008 779 1048 704 1048 c 2
 648 1048 l 2
 579 1048 507 1005 432 920 c 0
 357 835 320 723 320 584 c 0
312 1488 m 1
 312 1648 l 1
 392 1728 459 1768 512 1768 c 0
 560 1768 603 1749 640 1712 c 2
 736 1616 l 1
 768 1589 805 1576 848 1576 c 0
 891 1576 955 1621 1040 1712 c 1
 1040 1552 l 1
 965 1472 901 1432 848 1432 c 0
 795 1432 749 1451 712 1488 c 2
 616 1584 l 1
 584 1611 549 1624 512 1624 c 0
 469 1624 403 1579 312 1488 c 1
152 584 m 0
 152 739 195 876 280 996 c 0
 365 1116 477 1176 616 1176 c 2
 736 1176 l 2
 869 1176 981 1116 1072 996 c 0
 1163 876 1208 739 1208 584 c 0
 1208 419 1159 279 1060 164 c 0
 961 49 833 -8 676 -8 c 0
 519 -8 392 49 296 164 c 0
 200 279 152 419 152 584 c 0
EndSplineSet
Validated: 1
EndChar

StartChar: Odieresis
Encoding: 214 214 151
Width: 1368
GlyphClass: 2
Flags: HW
LayerCount: 2
Fore
SplineSet
792 1360 m 1
 792 1760 l 1
 1008 1760 l 1
 1008 1360 l 1
 792 1360 l 1
352 1360 m 1
 352 1760 l 1
 568 1760 l 1
 568 1360 l 1
 352 1360 l 1
648 1032 m 2
 427.834644281 1032 320 822.659047253 320 584 c 0
 320 429 353 317 420 248 c 0
 487 179 563 144 648 144 c 2
 704 144 l 2
 779 144 853 179 928 248 c 0
 1003 317 1040 429 1040 584 c 0
 1040 733 1008 845 944 920 c 0
 880 995 800 1032 704 1032 c 2
 648 1032 l 2
624 0 m 2
 329.099491467 0 152 279.232260538 152 584 c 0
 152 739 192 876 272 996 c 0
 352 1116 467 1176 616 1176 c 2
 736 1176 l 2
 885 1176 1001 1116 1084 996 c 0
 1167 876 1208 739 1208 584 c 0
 1208 419 1164 280 1076 168 c 0
 988 56 872 0 728 0 c 2
 624 0 l 2
EndSplineSet
Validated: 524289
EndChar

StartChar: multiply
Encoding: 215 215 152
Width: 2048
GlyphClass: 2
Flags: HW
LayerCount: 2
Fore
SplineSet
1545.13574219 1079.04003906 m 1
 1521.56542969 1102.61035156 1497.99511719 1126.18066406 1474.42480469 1149.75097656 c 1
 1016.20804279 691.534214664 l 1
 557.991210938 1149.75195312 l 1
 534.420898438 1126.18164062 510.850585937 1102.61132813 487.280273438 1079.04101562 c 1
 945.497331941 620.823503816 l 1
 487.279296875 162.60546875 l 1
 510.849862671 139.035735067 534.420178808 115.465751724 557.990234375 91.8955078125 c 1
 1016.20797284 550.112792969 l 1
 1474.42480469 91.8955078125 l 1
 1497.9948639 115.465748081 1521.56517275 139.03573871 1545.13574219 162.60546875 c 1
 1086.91868368 620.823433864 l 1
 1545.13574219 1079.04003906 l 1
EndSplineSet
Validated: 524297
EndChar

StartChar: Oslash
Encoding: 216 216 153
Width: 1368
GlyphClass: 2
Flags: HW
LayerCount: 2
Fore
SplineSet
568 280 m 1
 616 195 672 152 736 152 c 0
 811 152 876 207 932 316 c 0
 988 425 1016 581 1016 784 c 0
 1016 928 1000 1051 968 1152 c 1
 568 280 l 1
472 784 m 0
 472 635 485 512 512 416 c 1
 904 1280 l 1
 856 1349 800 1384 736 1384 c 0
 667 1384 605 1332 552 1228 c 0
 499 1124 472 976 472 784 c 0
304 784 m 0
 304 1109.2586827 437.786340912 1552 736 1552 c 0
 832 1552 912 1512 976 1432 c 1
 1096 1688 l 1
 1192 1632 l 1
 1048 1328 l 1
 1133 1168 1176 987 1176 784 c 0
 1176 565 1135 380 1052 228 c 0
 969 76 864 0 736 0 c 0
 645 0 565 40 496 120 c 1
 376 -144 l 1
 280 -80 l 1
 424 224 l 1
 344 379 304 565 304 784 c 0
EndSplineSet
Validated: 524289
EndChar

StartChar: Ugrave
Encoding: 217 217 154
Width: 1312
GlyphClass: 2
Flags: HMW
HStem: -27.623 138.14<568.094 749.364> 10.5166 61.8604<576.978 741.054 576.978 766.411>
VStem: 165.019 136.476<453.38 458.2 458.2 1310.65> 201.494 63.5244<284.251 1310.65 458.2 1310.65 458.2 1310.65> 1016.25 136.476<316.94 1310.65 458.2 1310.65 458.2 1310.65> 1052.73 63.5244<453.38 458.2 458.2 1310.65>
LayerCount: 2
Fore
SplineSet
782.853962913 1378.32097253 m 1
 785.797851562 1375.66894531 l 1
 811.155161962 1403.81660318 l 1
 839.29296875 1429.16503906 l 1
 836.641873851 1432.10790203 l 1
 852.729492188 1449.96582031 l 1
 682.000254181 1603.7687114 l 1
 528.193359375 1774.50292969 l 1
 510.334948197 1758.41486732 l 1
 507.391601562 1761.06640625 l 1
 482.038959832 1732.92393079 l 1
 453.896484375 1707.57128906 l 1
 456.548019148 1704.62793781 l 1
 440.459960938 1686.76953125 l 1
 611.193867088 1532.96243482 l 1
 764.99609375 1362.23339844 l 1
 782.853962913 1378.32097253 l 1
1152.7265625 1310.64941406 m 1
 1016.25097656 1310.64941406 l 1
 1016.25097656 453.379882812 l 2
 1016.25097656 180.5 845.067382812 110.516601562 658.872070312 110.516601562 c 0
 472.92578125 110.516601562 301.494140625 182.322265625 301.494140625 453.379882812 c 2
 301.494140625 1310.64941406 l 1
 165.018554688 1310.64941406 l 1
 165.018554688 458.200195312 l 2
 165.018554688 40.53515625 477.315429688 -27.623046875 658.872070312 -27.623046875 c 0
 839.856445312 -27.623046875 1152.7265625 36.1455078125 1152.7265625 458.200195312 c 2
 1152.7265625 1310.64941406 l 1
EndSplineSet
Validated: 8912905
EndChar

StartChar: Uacute
Encoding: 218 218 155
Width: 1312
GlyphClass: 2
Flags: HMW
HStem: -27.623 138.14<568.094 749.364> 10.5166 61.8604<576.978 741.054 576.978 766.411>
VStem: 165.019 136.476<453.38 458.2 458.2 1310.65> 201.494 63.5244<284.251 1310.65 458.2 1310.65 458.2 1310.65> 1016.25 136.476<316.94 1310.65 458.2 1310.65 458.2 1310.65> 1052.73 63.5244<453.38 458.2 458.2 1310.65>
LayerCount: 2
Fore
SplineSet
482.034291163 1403.81660318 m 1
 507.391601562 1375.66894531 l 1
 510.335490212 1378.32097253 l 1
 528.193359375 1362.23339844 l 1
 681.995586037 1532.96243482 l 1
 852.729492188 1686.76953125 l 1
 836.641433977 1704.62793781 l 1
 839.29296875 1707.57128906 l 1
 811.150493293 1732.92393079 l 1
 785.797851562 1761.06640625 l 1
 782.854504928 1758.41486732 l 1
 764.99609375 1774.50292969 l 1
 611.189198944 1603.7687114 l 1
 440.459960938 1449.96582031 l 1
 456.547579274 1432.10790203 l 1
 453.896484375 1429.16503906 l 1
 482.034291163 1403.81660318 l 1
1152.7265625 1310.64941406 m 1
 1016.25097656 1310.64941406 l 1
 1016.25097656 453.379882812 l 2
 1016.25097656 180.5 845.067382812 110.516601562 658.872070312 110.516601562 c 0
 472.92578125 110.516601562 301.494140625 182.322265625 301.494140625 453.379882812 c 2
 301.494140625 1310.64941406 l 1
 165.018554688 1310.64941406 l 1
 165.018554688 458.200195312 l 2
 165.018554688 40.53515625 477.315429688 -27.623046875 658.872070312 -27.623046875 c 0
 839.856445312 -27.623046875 1152.7265625 36.1455078125 1152.7265625 458.200195312 c 2
 1152.7265625 1310.64941406 l 1
EndSplineSet
Validated: 8912905
EndChar

StartChar: Ucircumflex
Encoding: 219 219 156
Width: 1312
GlyphClass: 2
Flags: HMW
HStem: -27.623 138.14<568.094 749.364> 10.5166 61.8604<576.978 741.054 576.978 766.411>
VStem: 165.019 136.476<453.38 458.2 458.2 1310.65> 201.494 63.5244<284.251 1310.65 458.2 1310.65 458.2 1310.65> 1016.25 136.476<316.94 1310.65 458.2 1310.65 458.2 1310.65> 1052.73 63.5244<453.38 458.2 458.2 1310.65>
LayerCount: 2
Fore
SplineSet
868.470703125 1340.49804688 m 1
 895.528645833 1359.96549479 922.586588542 1379.43294271 949.64453125 1398.90039062 c 1
 944.634294855 1405.86410446 l 1
 960.24609375 1418.98046875 l 1
 785.842788146 1626.56798437 l 1
 744.093392589 1684.59541143 702.343851344 1742.6226928 660.594726562 1800.65039062 c 1
 618.846264683 1742.62372134 577.097585944 1684.59726891 535.348981742 1626.57074195 c 1
 360.943359375 1418.98046875 l 1
 376.555754648 1405.86360341 l 1
 371.545898438 1398.90039062 l 1
 398.603841146 1379.43294271 425.661783854 1359.96549479 452.719726562 1340.49804688 c 1
 614.332200161 1565.12347174 l 1
 660.594726562 1620.18847656 l 1
 736.019788847 1533.09140343 798.988660328 1433.53813949 868.470703125 1340.49804688 c 1
1152.7265625 1310.64941406 m 1
 1016.25097656 1310.64941406 l 1
 1016.25097656 453.379882812 l 2
 1016.25097656 180.5 845.067382812 110.516601562 658.872070312 110.516601562 c 0
 472.92578125 110.516601562 301.494140625 182.322265625 301.494140625 453.379882812 c 2
 301.494140625 1310.64941406 l 1
 165.018554688 1310.64941406 l 1
 165.018554688 458.200195312 l 2
 165.018554688 40.53515625 477.315429688 -27.623046875 658.872070312 -27.623046875 c 0
 839.856445312 -27.623046875 1152.7265625 36.1455078125 1152.7265625 458.200195312 c 2
 1152.7265625 1310.64941406 l 1
EndSplineSet
Validated: 8912905
EndChar

StartChar: Udieresis
Encoding: 220 220 157
Width: 1312
GlyphClass: 2
Flags: HMW
HStem: -27.623 138.14<568.094 749.364> 10.5166 61.8604<576.978 741.054 576.978 766.411>
VStem: 165.019 136.476<453.38 458.2 458.2 1310.65> 201.494 63.5244<284.251 1310.65 458.2 1310.65 458.2 1310.65> 1016.25 136.476<316.94 1310.65 458.2 1310.65 458.2 1310.65> 1052.73 63.5244<453.38 458.2 458.2 1310.65>
LayerCount: 2
Fore
SplineSet
874.627929688 1713.31152344 m 1
 737.145507812 1713.31152344 l 1
 737.145507812 1452.20898438 l 1
 874.627929688 1452.20898438 l 1
 874.627929688 1713.31152344 l 1
554.627929688 1713.31152344 m 1
 417.145507812 1713.31152344 l 1
 417.145507812 1452.20898438 l 1
 554.627929688 1452.20898438 l 1
 554.627929688 1713.31152344 l 1
1152.7265625 1310.64941406 m 1
 1016.25097656 1310.64941406 l 1
 1016.25097656 453.379882812 l 2
 1016.25097656 180.5 845.067382812 110.516601562 658.872070312 110.516601562 c 0
 472.92578125 110.516601562 301.494140625 182.322265625 301.494140625 453.379882812 c 2
 301.494140625 1310.64941406 l 1
 165.018554688 1310.64941406 l 1
 165.018554688 458.200195312 l 2
 165.018554688 40.53515625 477.315429688 -27.623046875 658.872070312 -27.623046875 c 0
 839.856445312 -27.623046875 1152.7265625 36.1455078125 1152.7265625 458.200195312 c 2
 1152.7265625 1310.64941406 l 1
EndSplineSet
Validated: 8912905
EndChar

StartChar: Yacute
Encoding: 221 221 158
Width: 1208
GlyphClass: 2
Flags: HW
LayerCount: 2
Fore
SplineSet
320 1408 m 1
 600 1760 l 1
 920 1760 l 1
 512 1408 l 1
 320 1408 l 1
112 1176 m 1
 320 1176 l 1
 608 704 l 1
 896 1176 l 1
 1104 1176 l 1
 712 552 l 1
 712 0 l 1
 504 0 l 1
 504 552 l 1
 112 1176 l 1
EndSplineSet
Validated: 1
EndChar

StartChar: Thorn
Encoding: 222 222 159
Width: 1112
GlyphClass: 2
Flags: HW
LayerCount: 2
Fore
SplineSet
336 560 m 1
 608 560 l 2
 763 560 843 645 848 816 c 1
 848 971 768 1051 608 1056 c 1
 336 1056 l 1
 336 560 l 1
152 0 m 1
 152 1624 l 1
 336 1624 l 1
 336 1192 l 1
 608 1192 l 2
 869 1192 1003 1067 1008 816 c 0
 1013 565 880 437 608 432 c 1
 336 432 l 1
 336 0 l 1
 152 0 l 1
EndSplineSet
Validated: 33
EndChar

StartChar: germandbls
Encoding: 223 223 160
Width: 1112
GlyphClass: 2
Flags: HW
LayerCount: 2
Fore
SplineSet
736 1152 m 0
 736 1325.8923063 648.040089954 1408 480 1408 c 0
 421 1408 372 1383 332 1332 c 0
 292 1281 272 1200 272 1088 c 2
 272 0 l 1
 88 0 l 1
 88 1088 l 2
 88 1264 127 1385 204 1452 c 0
 281 1519 363 1552 448 1552 c 2
 544 1552 l 2
 645 1552 733 1513 808 1436 c 0
 883 1359 920 1264 920 1152 c 0
 920 1056 895 980 844 924 c 0
 793 868 749 835 712 824 c 1
 792 808 864 763 928 688 c 0
 992 613 1024 525 1024 424 c 0
 1024 136 888 -5 616 0 c 1
 384 0 l 1
 384 144 l 1
 584 144 l 2
 760 144 848 235 848 416 c 0
 848 528 804 613 716 672 c 0
 628 731 536 760 440 760 c 1
 440 888 l 1
 612.209440476 888 736 984.696259055 736 1152 c 0
EndSplineSet
Validated: 524321
EndChar

StartChar: agrave
Encoding: 224 224 161
Width: 976
GlyphClass: 2
Flags: HMW
HStem: -20 120<372.151 489.106 372.151 531.462> 0 80<341.313 498.922 331.618 517.256> 518.639 97.8047<682.342 727.562 669.528 768.543> 850 120<393.296 431.455 431.455 542.815 360.98 549.474> 870 80<431.455 542.815 542.815 561.712 362.328 596.709>
VStem: 116.024 146.432 130.896 150.058<692.845 716.7 692.845 780.521> 162.456 53.4902 180.954 49.9424<692.845 734.877> 678.011 100<170.615 689.743 170.615 689.743 181.503 689.743 181.503 689.743> 716.744 61.2666<181.503 689.743 689.743 696.881> 716.744 99.9834<0 15.1191 0 696.881 0 15.1191>
LayerCount: 2
Fore
SplineSet
678.010742188 617.546942913 m 1
 483.071631451 611.142886228 103.801262095 565.73606813 116.024414062 258.098632812 c 0
 117.90234375 210.73046875 152.061523438 -20 433.201171875 -20 c 0
 534.130607249 -20 629.052198006 32.9400737779 697.515400183 84.442332096 c 1
 706.390474255 45.7293938241 714.554705848 10.0318767578 716.219726562 0 c 1
 749.740350358 -0 783.213906453 0 816.744140625 0 c 1
 816.744140625 696.880859375 l 2
 816.744140625 874.7421875 694.853515625 970 542.815429688 970 c 2
 431.455078125 970 l 2
 290.504882812 970 130.896484375 868.197265625 130.896484375 692.844726562 c 1
 280.954101562 692.844726562 l 1
 280.954101562 740.5546875 298.4921875 850 488.099609375 850 c 0
 610.848632812 850 678.010742188 817.03515625 678.010742188 689.743164062 c 2
 678.010742188 617.546942913 l 1
678.010742188 204.470216415 m 1
 632.847325141 173.607411767 517.066488095 100 441.984375 100 c 0
 302.317382812 100 262.456054688 190.899414062 262.456054688 260.108398438 c 0
 262.456054688 433.800011662 525.983687068 501.606821731 678.010742188 514.205260764 c 1
 678.010742188 204.470216415 l 1
632.853962913 1270.32097253 m 1
 635.797851562 1267.66894531 l 1
 661.155161962 1295.81660318 l 1
 689.29296875 1321.16503906 l 1
 686.641873851 1324.10790203 l 1
 702.729492188 1341.96582031 l 1
 532.000254181 1495.7687114 l 1
 378.193359375 1666.50292969 l 1
 360.334948197 1650.41486732 l 1
 357.391601562 1653.06640625 l 1
 332.038959832 1624.92393079 l 1
 303.896484375 1599.57128906 l 1
 306.548019148 1596.62793781 l 1
 290.459960938 1578.76953125 l 1
 461.193867088 1424.96243482 l 1
 614.99609375 1254.23339844 l 1
 632.853962913 1270.32097253 l 1
EndSplineSet
Validated: 8912937
EndChar

StartChar: aacute
Encoding: 225 225 162
Width: 976
GlyphClass: 2
Flags: HMW
HStem: -20 120<372.151 489.106 372.151 531.462> 0 80<341.313 498.922 331.618 517.256> 518.639 97.8047<682.342 727.562 669.528 768.543> 850 120<393.296 431.455 431.455 542.815 360.98 549.474> 870 80<431.455 542.815 542.815 561.712 362.328 596.709>
VStem: 116.024 146.432 130.896 150.058<692.845 716.7 692.845 780.521> 162.456 53.4902 180.954 49.9424<692.845 734.877> 678.011 100<170.615 689.743 170.615 689.743 181.503 689.743 181.503 689.743> 716.744 61.2666<181.503 689.743 689.743 696.881> 716.744 99.9834<0 15.1191 0 696.881 0 15.1191>
LayerCount: 2
Fore
SplineSet
678.010742188 617.546942913 m 1
 483.071631451 611.142886228 103.801262095 565.73606813 116.024414062 258.098632812 c 0
 117.90234375 210.73046875 152.061523438 -20 433.201171875 -20 c 0
 534.130607249 -20 629.052198006 32.9400737779 697.515400183 84.442332096 c 1
 706.390474255 45.7293938241 714.554705848 10.0318767578 716.219726562 0 c 1
 749.740350358 -0 783.213906453 0 816.744140625 0 c 1
 816.744140625 696.880859375 l 2
 816.744140625 874.7421875 694.853515625 970 542.815429688 970 c 2
 431.455078125 970 l 2
 290.504882812 970 130.896484375 868.197265625 130.896484375 692.844726562 c 1
 280.954101562 692.844726562 l 1
 280.954101562 740.5546875 298.4921875 850 488.099609375 850 c 0
 610.848632812 850 678.010742188 817.03515625 678.010742188 689.743164062 c 2
 678.010742188 617.546942913 l 1
678.010742188 204.470216415 m 1
 632.847325141 173.607411767 517.066488095 100 441.984375 100 c 0
 302.317382812 100 262.456054688 190.899414062 262.456054688 260.108398438 c 0
 262.456054688 433.800011662 525.983687068 501.606821731 678.010742188 514.205260764 c 1
 678.010742188 204.470216415 l 1
332.034291163 1295.81660318 m 1
 357.391601562 1267.66894531 l 1
 360.335490212 1270.32097253 l 1
 378.193359375 1254.23339844 l 1
 531.995586037 1424.96243482 l 1
 702.729492188 1578.76953125 l 1
 686.641433977 1596.62793781 l 1
 689.29296875 1599.57128906 l 1
 661.150493293 1624.92393079 l 1
 635.797851562 1653.06640625 l 1
 632.854504928 1650.41486732 l 1
 614.99609375 1666.50292969 l 1
 461.189198944 1495.7687114 l 1
 290.459960938 1341.96582031 l 1
 306.547579274 1324.10790203 l 1
 303.896484375 1321.16503906 l 1
 332.034291163 1295.81660318 l 1
EndSplineSet
Validated: 8912937
EndChar

StartChar: acircumflex
Encoding: 226 226 163
Width: 976
GlyphClass: 2
Flags: HMW
HStem: -20 120<372.151 489.106 372.151 531.462> 0 80<341.313 498.922 331.618 517.256> 518.639 97.8047<682.342 727.562 669.528 768.543> 850 120<393.296 431.455 431.455 542.815 360.98 549.474> 870 80<431.455 542.815 542.815 561.712 362.328 596.709>
VStem: 116.024 146.432 130.896 150.058<692.845 716.7 692.845 780.521> 162.456 53.4902 180.954 49.9424<692.845 734.877> 678.011 100<170.615 689.743 170.615 689.743 181.503 689.743 181.503 689.743> 716.744 61.2666<181.503 689.743 689.743 696.881> 716.744 99.9834<0 15.1191 0 696.881 0 15.1191>
LayerCount: 2
Fore
SplineSet
690.470703125 1258.49804688 m 1
 717.528645833 1277.96549479 744.586588542 1297.43294271 771.64453125 1316.90039062 c 1
 766.634294855 1323.86410446 l 1
 782.24609375 1336.98046875 l 1
 607.842788146 1544.56798437 l 1
 566.093392589 1602.59541143 524.343851344 1660.6226928 482.594726562 1718.65039062 c 1
 440.846264683 1660.62372134 399.097585944 1602.59726891 357.348981742 1544.57074195 c 1
 182.943359375 1336.98046875 l 1
 198.555754648 1323.86360341 l 1
 193.545898438 1316.90039062 l 1
 220.603841146 1297.43294271 247.661783854 1277.96549479 274.719726562 1258.49804688 c 1
 436.332200161 1483.12347174 l 1
 482.594726562 1538.18847656 l 1
 558.019788847 1451.09140343 620.988660328 1351.53813949 690.470703125 1258.49804688 c 1
678.010742188 617.546942913 m 1
 483.071631451 611.142886228 103.801262095 565.73606813 116.024414062 258.098632812 c 0
 117.90234375 210.73046875 152.061523438 -20 433.201171875 -20 c 0
 534.130607249 -20 629.052198006 32.9400737779 697.515400183 84.442332096 c 1
 706.390474255 45.7293938241 714.554705848 10.0318767578 716.219726562 0 c 1
 749.740350358 -0 783.213906453 0 816.744140625 0 c 1
 816.744140625 696.880859375 l 2
 816.744140625 874.7421875 694.853515625 970 542.815429688 970 c 2
 431.455078125 970 l 2
 290.504882812 970 130.896484375 868.197265625 130.896484375 692.844726562 c 1
 280.954101562 692.844726562 l 1
 280.954101562 740.5546875 298.4921875 850 488.099609375 850 c 0
 610.848632812 850 678.010742188 817.03515625 678.010742188 689.743164062 c 2
 678.010742188 617.546942913 l 1
678.010742188 204.470216415 m 1
 632.847325141 173.607411767 517.066488095 100 441.984375 100 c 0
 302.317382812 100 262.456054688 190.899414062 262.456054688 260.108398438 c 0
 262.456054688 433.800011662 525.983687068 501.606821731 678.010742188 514.205260764 c 1
 678.010742188 204.470216415 l 1
EndSplineSet
Validated: 8912937
EndChar

StartChar: atilde
Encoding: 227 227 164
Width: 976
GlyphClass: 2
Flags: HW
LayerCount: 2
Fore
SplineSet
264 296 m 1
 264 173 317 112 424 112 c 0
 509 112 595 147 680 216 c 1
 680 520 l 1
 520 520 l 2
 355 520 269 445 264 296 c 1
96 1272 m 1
 96 1424 l 1
 181 1504 253 1544 312 1544 c 0
 365 1544 411 1525 448 1488 c 1
 552 1392 l 1
 589 1365 629 1352 672 1352 c 0
 715 1352 784 1397 880 1488 c 1
 880 1336 l 1
 795 1256 725 1216 672 1216 c 0
 619 1216 571 1235 528 1272 c 1
 424 1368 l 1
 392 1395 355 1408 312 1408 c 0
 264 1408 192 1363 96 1272 c 1
680 696 m 2
 680 799.260056101 620.116216444 840 520 840 c 2
 384 840 l 2
 293 840 221 821 168 784 c 1
 104 872 l 1
 189 931 280 960 376 960 c 2
 552 960 l 2
 621 960 685 940 744 900 c 0
 803 860 832 792 832 696 c 2
 832 208 l 1
 872 0 l 1
 728 0 l 1
 696 88 l 1
 616 29 512 0 384 0 c 0
 192 0 96 101 96 304 c 0
 96 528 237 640 520 640 c 2
 680 640 l 1
 680 696 l 2
EndSplineSet
Validated: 524289
EndChar

StartChar: adieresis
Encoding: 228 228 165
Width: 976
GlyphClass: 2
Flags: HMW
HStem: -20 120<372.151 489.106 372.151 531.462> 0 80<341.313 498.922 331.618 517.256> 518.639 97.8047<682.342 727.562 669.528 768.543> 850 120<393.296 431.455 431.455 542.815 360.98 549.474> 870 80<431.455 542.815 542.815 561.712 362.328 596.709>
VStem: 116.024 146.432 130.896 150.058<692.845 716.7 692.845 780.521> 162.456 53.4902 180.954 49.9424<692.845 734.877> 678.011 100<170.615 689.743 170.615 689.743 181.503 689.743 181.503 689.743> 716.744 61.2666<181.503 689.743 689.743 696.881> 716.744 99.9834<0 15.1191 0 696.881 0 15.1191>
LayerCount: 2
Fore
SplineSet
712.627929688 1601.31152344 m 1
 575.145507812 1601.31152344 l 1
 575.145507812 1340.20898438 l 1
 712.627929688 1340.20898438 l 1
 712.627929688 1601.31152344 l 1
392.627929688 1601.31152344 m 1
 255.145507812 1601.31152344 l 1
 255.145507812 1340.20898438 l 1
 392.627929688 1340.20898438 l 1
 392.627929688 1601.31152344 l 1
678.010742188 617.546942913 m 1
 483.071631451 611.142886228 103.801262095 565.73606813 116.024414062 258.098632812 c 0
 117.90234375 210.73046875 152.061523438 -20 433.201171875 -20 c 0
 534.130607249 -20 629.052198006 32.9400737779 697.515400183 84.442332096 c 1
 706.390474255 45.7293938241 714.554705848 10.0318767578 716.219726562 0 c 1
 749.740350358 -0 783.213906453 0 816.744140625 0 c 1
 816.744140625 696.880859375 l 2
 816.744140625 874.7421875 694.853515625 970 542.815429688 970 c 2
 431.455078125 970 l 2
 290.504882812 970 130.896484375 868.197265625 130.896484375 692.844726562 c 1
 280.954101562 692.844726562 l 1
 280.954101562 740.5546875 298.4921875 850 488.099609375 850 c 0
 610.848632812 850 678.010742188 817.03515625 678.010742188 689.743164062 c 2
 678.010742188 617.546942913 l 1
678.010742188 204.470216415 m 1
 632.847325141 173.607411767 517.066488095 100 441.984375 100 c 0
 302.317382812 100 262.456054688 190.899414062 262.456054688 260.108398438 c 0
 262.456054688 433.800011662 525.983687068 501.606821731 678.010742188 514.205260764 c 1
 678.010742188 204.470216415 l 1
EndSplineSet
Validated: 8912937
EndChar

StartChar: aring
Encoding: 229 229 166
Width: 976
GlyphClass: 2
Flags: HW
LayerCount: 2
Fore
SplineSet
640 1392 m 0
 640 1482.95115874 577.018607208 1560 488 1560 c 0
 445 1560 408 1544 376 1512 c 0
 349 1480 336 1440 336 1392 c 0
 336 1307.33368789 403.027563521 1232 488 1232 c 0
 531 1232 568 1248 600 1280 c 0
 627 1312 640 1349 640 1392 c 0
264 296 m 1
 264 173 317 112 424 112 c 0
 509 112 595 147 680 216 c 1
 680 520 l 1
 520 520 l 2
 355 520 269 445 264 296 c 1
488 1152 m 0
 358.283872204 1152 256 1271.3273769 256 1400 c 0
 256 1522.40654002 362.376523119 1640 488 1640 c 0
 552 1640 608 1616 656 1568 c 0
 699 1520 720 1464 720 1400 c 0
 720 1331 699 1272 656 1224 c 0
 608 1176 552 1152 488 1152 c 0
680 696 m 2
 680 799.260056101 620.116216444 840 520 840 c 2
 384 840 l 2
 293 840 221 821 168 784 c 1
 104 872 l 1
 189 931 280 960 376 960 c 2
 552 960 l 2
 621 960 685 940 744 900 c 0
 803 860 832 792 832 696 c 2
 832 208 l 1
 872 0 l 1
 728 0 l 1
 696 88 l 1
 616 29 512 0 384 0 c 0
 192 0 96 101 96 304 c 0
 96 528 237 640 520 640 c 2
 680 640 l 1
 680 696 l 2
EndSplineSet
Validated: 524289
EndChar

StartChar: ae
Encoding: 230 230 167
Width: 1368
GlyphClass: 2
Flags: HW
LayerCount: 2
Fore
SplineSet
712 608 m 1
 1104 608 l 1
 1083 747 1019 819 912 824 c 1
 800 819 733 747 712 608 c 1
232 240 m 0
 232 176 261 144 320 144 c 0
 416 144 499 181 568 256 c 1
 568 504 l 1
 456 483 372 455 316 420 c 0
 260 385 232 325 232 240 c 0
320 -8 m 1
 163.500877795 -8 96 86.6134797758 96 240 c 0
 96 379 137 475 220 528 c 0
 303 581 419 616 568 632 c 1
 568 765 515 837 408 848 c 1
 317 848 267 797 256 696 c 1
 112 696 l 1
 128 803 160 873 208 908 c 0
 256 943 307 960 360 960 c 2
 464 960 l 2
 549 960 613 915 656 824 c 1
 704 915 776 960 872 960 c 2
 952 960 l 2
 1027 960 1097 917 1164 832 c 0
 1231 747 1264 629 1264 480 c 1
 704 480 l 1
 704 373 727 289 772 228 c 0
 817 167 872 136 936 136 c 0
 1045.13429287 136 1092.47893238 212.836463496 1120 304 c 1
 1256 304 l 1
 1213 96 1107 -8 936 -8 c 0
 808 -8 715 43 656 144 c 1
 549 48 437 -3 320 -8 c 1
EndSplineSet
Validated: 524289
EndChar

StartChar: ccedilla
Encoding: 231 231 168
Width: 1024
GlyphClass: 2
Flags: HMW
HStem: -283.824 121.428<518.253 574.5> -275.52 91.7539<565 565> 850 120<444.354 490.859 490.859 575.459 377.062 618.969> 870 80<490.859 575.459 575.459 645.816 410.229 657.851>
VStem: 122.762 140.317<372.006 615.327 372.006 627.262> 163.079 59.6826<364.775 613.859 350.229 629.152> 568.766 105.502<-145.424 -129.302> 772.431 147.227<273.842 334.061 273.842 334.065> 819.657 52.7734<288.856 334.061>
LayerCount: 2
Fore
SplineSet
566.842773438 -283.82421875 m 0
 650.729721841 -283.82421875 674.267578125 -193.891005807 674.267578125 -136.51171875 c 0
 674.267578125 -88.9624071536 653.797100189 -38.1945977562 611.683290265 -14.7820293736 c 1
 861.383556665 20.3449931952 919.657226562 224.250355963 919.657226562 334.060546875 c 1
 872.430664062 334.065429688 l 1
 839.097330729 334.065429687 805.763997396 334.065429688 772.430664062 334.065429688 c 1
 772.430664062 196.194335938 675.643554688 100 533.325195312 100 c 0
 344.04296875 100 263.079101562 254.530273438 263.079101562 489.482421875 c 0
 263.079101562 741.171875 355.905273438 850 532.802734375 850 c 0
 705.135742188 850 771.086914062 747.682617188 771.086914062 636.581054688 c 1
 804.420247396 636.581054687 837.753580729 636.581054688 871.086914062 636.581054688 c 1
 871.086141799 637.307617188 l 1
 919.159179688 637.307617188 l 1
 919.159179688 808.9296875 796.846679688 970 575.458984375 970 c 2
 490.859375 970 l 2
 263.263671875 970 122.76171875 771.583007812 122.76171875 482.94140625 c 0
 122.76171875 204.229997927 277.335657912 10.7553067471 478.988455082 -16.6761401165 c 1
 477.052684613 -53.027621085 l 1
 475.814453125 -71.8916015625 l 1
 476.034189256 -72.1666442199 l 1
 475.75390625 -77.43359375 l 1
 490.624694961 -90.4296801525 l 1
 502.173432361 -104.885929693 513.721889505 -119.342459491 525.270507812 -133.798828125 c 1
 533.510639603 -127.909145212 l 1
 534.36328125 -128.654296875 l 1
 541.188490644 -122.421355788 l 1
 560.578125 -108.5625 l 1
 563.837890625 -112.573242188 568.765625 -121.317382812 568.765625 -137.286132812 c 0
 568.765625 -153.561523438 564.784179688 -168.217773438 560.958007812 -175.030273438 c 1
 539.193359375 -171.688476562 571.9765625 -162.396484375 518.252929688 -162.396484375 c 1
 518.252929688 -200.706054688 518.252929687 -239.015625 518.252929688 -277.325195312 c 1
 528.822265625 -282.487304688 533.618164062 -283.82421875 566.842773438 -283.82421875 c 0
EndSplineSet
Validated: 8912905
EndChar

StartChar: egrave
Encoding: 232 232 169
Width: 1024
GlyphClass: 2
Flags: HMW
HStem: -21.7861 115.14<482.465 548.435> -6.64648 84.8604<453.777 549.071 453.777 635.833> 853.317 116.731<516.222 555.963 470.045 591.826> 870.049 83.2686<516.458 555.963 555.963 619.124>
VStem: 126.088 134.828 159.788 67.3936 752.807 147.634<197.352 206.464> 800.246 65.8311<537.863 537.863>
LayerCount: 2
Fore
SplineSet
845.440429688 206.556640625 m 1
 800.439869259 206.463867188 l 1
 752.806640625 206.463867188 l 1
 752.806640625 188.239257812 674.499023438 93.353515625 556.359375 93.353515625 c 0
 408.571289062 93.353515625 276.732421875 169.869140625 261.182617188 437.736328125 c 1
 866.001953125 437.736328125 l 1
 866.00205952 437.86328125 l 1
 901.196289062 437.86328125 l 1
 900.296875 529.672851562 l 1
 900.296875 805.498046875 751.174804688 970.048828125 555.962890625 970.048828125 c 2
 470.044921875 970.048828125 l 1
 270.05859375 967.271484375 127.220703125 826.7890625 126.087890625 487.7109375 c 0
 127.58203125 164.0390625 287.127929688 -21.7861328125 548.434570312 -21.7861328125 c 0
 777.840820312 -24.708984375 900.440429688 124.69140625 900.440429688 206.556640625 c 1
 845.440429688 206.556640625 l 1
260.921956221 537.86328125 m 1
 272.852981353 792.516537283 365.287774011 854.030155006 516.221679688 853.317382812 c 0
 667.40362373 853.317382812 763.014628023 774.432518019 766.012072399 537.86328125 c 1
 260.921956221 537.86328125 l 1
632.853962913 1270.32097253 m 1
 635.797851562 1267.66894531 l 1
 661.155161962 1295.81660318 l 1
 689.29296875 1321.16503906 l 1
 686.641873851 1324.10790203 l 1
 702.729492188 1341.96582031 l 1
 532.000254181 1495.7687114 l 1
 378.193359375 1666.50292969 l 1
 360.334948197 1650.41486732 l 1
 357.391601562 1653.06640625 l 1
 332.038959832 1624.92393079 l 1
 303.896484375 1599.57128906 l 1
 306.548019148 1596.62793781 l 1
 290.459960938 1578.76953125 l 1
 461.193867088 1424.96243482 l 1
 614.99609375 1254.23339844 l 1
 632.853962913 1270.32097253 l 1
EndSplineSet
Validated: 8912937
EndChar

StartChar: eacute
Encoding: 233 233 170
Width: 1024
GlyphClass: 2
Flags: HMW
HStem: -21.7861 115.14<482.465 548.435> -6.64648 84.8604<453.777 549.071 453.777 635.833> 853.317 116.731<516.222 555.963 470.045 591.826> 870.049 83.2686<516.458 555.963 555.963 619.124>
VStem: 126.088 134.828 159.788 67.3936 752.807 147.634<197.352 206.464> 800.246 65.8311<537.863 537.863>
LayerCount: 2
Fore
SplineSet
845.440429688 206.556640625 m 1
 800.439869259 206.463867188 l 1
 752.806640625 206.463867188 l 1
 752.806640625 188.239257812 674.499023438 93.353515625 556.359375 93.353515625 c 0
 408.571289062 93.353515625 276.732421875 169.869140625 261.182617188 437.736328125 c 1
 866.001953125 437.736328125 l 1
 866.00205952 437.86328125 l 1
 901.196289062 437.86328125 l 1
 900.296875 529.672851562 l 1
 900.296875 805.498046875 751.174804688 970.048828125 555.962890625 970.048828125 c 2
 470.044921875 970.048828125 l 1
 270.05859375 967.271484375 127.220703125 826.7890625 126.087890625 487.7109375 c 0
 127.58203125 164.0390625 287.127929688 -21.7861328125 548.434570312 -21.7861328125 c 0
 777.840820312 -24.708984375 900.440429688 124.69140625 900.440429688 206.556640625 c 1
 845.440429688 206.556640625 l 1
260.921956221 537.86328125 m 1
 272.852981353 792.516537283 365.287774011 854.030155006 516.221679688 853.317382812 c 0
 667.40362373 853.317382812 763.014628023 774.432518019 766.012072399 537.86328125 c 1
 260.921956221 537.86328125 l 1
332.034291163 1295.81660318 m 1
 357.391601562 1267.66894531 l 1
 360.335490212 1270.32097253 l 1
 378.193359375 1254.23339844 l 1
 531.995586037 1424.96243482 l 1
 702.729492188 1578.76953125 l 1
 686.641433977 1596.62793781 l 1
 689.29296875 1599.57128906 l 1
 661.150493293 1624.92393079 l 1
 635.797851562 1653.06640625 l 1
 632.854504928 1650.41486732 l 1
 614.99609375 1666.50292969 l 1
 461.189198944 1495.7687114 l 1
 290.459960938 1341.96582031 l 1
 306.547579274 1324.10790203 l 1
 303.896484375 1321.16503906 l 1
 332.034291163 1295.81660318 l 1
EndSplineSet
Validated: 8912937
EndChar

StartChar: ecircumflex
Encoding: 234 234 171
Width: 1024
GlyphClass: 2
Flags: HMW
HStem: -21.7861 115.14<482.465 548.435> -6.64648 84.8604<453.777 549.071 453.777 635.833> 853.317 116.731<516.222 555.963 470.045 591.826> 870.049 83.2686<516.458 555.963 555.963 619.124>
VStem: 126.088 134.828 159.788 67.3936 752.807 147.634<197.352 206.464> 800.246 65.8311<537.863 537.863>
LayerCount: 2
Fore
SplineSet
845.440429688 206.556640625 m 1
 800.439869259 206.463867188 l 1
 752.806640625 206.463867188 l 1
 752.806640625 188.239257812 674.499023438 93.353515625 556.359375 93.353515625 c 0
 408.571289062 93.353515625 276.732421875 169.869140625 261.182617188 437.736328125 c 1
 866.001953125 437.736328125 l 1
 866.00205952 437.86328125 l 1
 901.196289062 437.86328125 l 1
 900.296875 529.672851562 l 1
 900.296875 805.498046875 751.174804688 970.048828125 555.962890625 970.048828125 c 2
 470.044921875 970.048828125 l 1
 270.05859375 967.271484375 127.220703125 826.7890625 126.087890625 487.7109375 c 0
 127.58203125 164.0390625 287.127929688 -21.7861328125 548.434570312 -21.7861328125 c 0
 777.840820312 -24.708984375 900.440429688 124.69140625 900.440429688 206.556640625 c 1
 845.440429688 206.556640625 l 1
730.470703125 1258.49804688 m 1
 757.528645833 1277.96549479 784.586588542 1297.43294271 811.64453125 1316.90039062 c 1
 806.634294855 1323.86410446 l 1
 822.24609375 1336.98046875 l 1
 647.842788146 1544.56798437 l 1
 606.093392589 1602.59541143 564.343851344 1660.6226928 522.594726562 1718.65039062 c 1
 480.846264683 1660.62372134 439.097585944 1602.59726891 397.348981742 1544.57074195 c 1
 222.943359375 1336.98046875 l 1
 238.555754648 1323.86360341 l 1
 233.545898438 1316.90039062 l 1
 260.603841146 1297.43294271 287.661783854 1277.96549479 314.719726562 1258.49804688 c 1
 476.332200161 1483.12347174 l 1
 522.594726562 1538.18847656 l 1
 598.019788847 1451.09140343 660.988660328 1351.53813949 730.470703125 1258.49804688 c 1
260.921956221 537.86328125 m 1
 272.852981353 792.516537283 365.287774011 854.030155006 516.221679688 853.317382812 c 0
 667.40362373 853.317382812 763.014628023 774.432518019 766.012072399 537.86328125 c 1
 260.921956221 537.86328125 l 1
EndSplineSet
Validated: 8912937
EndChar

StartChar: edieresis
Encoding: 235 235 172
Width: 1024
GlyphClass: 2
Flags: HMW
HStem: -21.7861 115.14<482.465 548.435> -6.64648 84.8604<453.777 549.071 453.777 635.833> 853.317 116.731<516.222 555.963 470.045 591.826> 870.049 83.2686<516.458 555.963 555.963 619.124>
VStem: 126.088 134.828 159.788 67.3936 752.807 147.634<197.352 206.464> 800.246 65.8311<537.863 537.863>
LayerCount: 2
Fore
SplineSet
845.440429688 206.556640625 m 1
 800.439869259 206.463867188 l 1
 752.806640625 206.463867188 l 1
 752.806640625 188.239257812 674.499023438 93.353515625 556.359375 93.353515625 c 0
 408.571289062 93.353515625 276.732421875 169.869140625 261.182617188 437.736328125 c 1
 866.001953125 437.736328125 l 1
 866.00205952 437.86328125 l 1
 901.196289062 437.86328125 l 1
 900.296875 529.672851562 l 1
 900.296875 805.498046875 751.174804688 970.048828125 555.962890625 970.048828125 c 2
 470.044921875 970.048828125 l 1
 270.05859375 967.271484375 127.220703125 826.7890625 126.087890625 487.7109375 c 0
 127.58203125 164.0390625 287.127929688 -21.7861328125 548.434570312 -21.7861328125 c 0
 777.840820312 -24.708984375 900.440429688 124.69140625 900.440429688 206.556640625 c 1
 845.440429688 206.556640625 l 1
260.921956221 537.86328125 m 1
 272.852981353 792.516537283 365.287774011 854.030155006 516.221679688 853.317382812 c 0
 667.40362373 853.317382812 763.014628023 774.432518019 766.012072399 537.86328125 c 1
 260.921956221 537.86328125 l 1
740.627929688 1601.31152344 m 1
 603.145507812 1601.31152344 l 1
 603.145507812 1340.20898438 l 1
 740.627929688 1340.20898438 l 1
 740.627929688 1601.31152344 l 1
420.627929688 1601.31152344 m 1
 283.145507812 1601.31152344 l 1
 283.145507812 1340.20898438 l 1
 420.627929688 1340.20898438 l 1
 420.627929688 1601.31152344 l 1
EndSplineSet
Validated: 8912937
EndChar

StartChar: igrave
Encoding: 236 236 173
Width: 600
GlyphClass: 2
Flags: HW
LayerCount: 2
Fore
SplineSet
356.37642385 1270.32097253 m 1
 359.3203125 1267.66894531 l 1
 384.6776229 1295.81660318 l 1
 412.815429688 1321.16503906 l 1
 410.164334788 1324.10790203 l 1
 426.251953125 1341.96582031 l 1
 255.522715119 1495.7687114 l 1
 101.715820312 1666.50292969 l 1
 83.8574091348 1650.41486732 l 1
 80.9140625 1653.06640625 l 1
 55.5614207694 1624.92393079 l 1
 27.4189453125 1599.57128906 l 1
 30.0704800858 1596.62793781 l 1
 13.982421875 1578.76953125 l 1
 184.716328025 1424.96243482 l 1
 338.518554688 1254.23339844 l 1
 356.37642385 1270.32097253 l 1
150.73046875 0 m 1
 288.5 0 l 1
 288.5 970 l 1
 150.73046875 970 l 1
 150.73046875 0 l 1
EndSplineSet
Validated: 524297
EndChar

StartChar: iacute
Encoding: 237 237 174
Width: 600
GlyphClass: 2
Flags: HW
LayerCount: 2
Fore
SplineSet
55.5567521003 1295.81660318 m 1
 80.9140625 1267.66894531 l 1
 83.8579511498 1270.32097253 l 1
 101.715820312 1254.23339844 l 1
 255.518046975 1424.96243482 l 1
 426.251953125 1578.76953125 l 1
 410.163894914 1596.62793781 l 1
 412.815429688 1599.57128906 l 1
 384.672954231 1624.92393079 l 1
 359.3203125 1653.06640625 l 1
 356.376965865 1650.41486732 l 1
 338.518554688 1666.50292969 l 1
 184.711659881 1495.7687114 l 1
 13.982421875 1341.96582031 l 1
 30.0700402119 1324.10790203 l 1
 27.4189453125 1321.16503906 l 1
 55.5567521003 1295.81660318 l 1
150.73046875 0 m 1
 288.5 0 l 1
 288.5 970 l 1
 150.73046875 970 l 1
 150.73046875 0 l 1
EndSplineSet
Validated: 524297
EndChar

StartChar: icircumflex
Encoding: 238 238 175
Width: 888
GlyphClass: 2
Flags: HW
LayerCount: 2
Fore
SplineSet
426.470703125 1258.49804688 m 1
 453.528645833 1277.96549479 480.586588542 1297.43294271 507.64453125 1316.90039062 c 1
 502.634294855 1323.86410446 l 1
 518.24609375 1336.98046875 l 1
 343.842788146 1544.56798437 l 1
 302.093392589 1602.59541143 260.343851344 1660.6226928 218.594726562 1718.65039062 c 1
 176.846264683 1660.62372134 135.097585944 1602.59726891 93.3489817416 1544.57074195 c 1
 -81.056640625 1336.98046875 l 1
 -65.4442453525 1323.86360341 l 1
 -70.4541015625 1316.90039062 l 1
 -43.3961588542 1297.43294271 -16.3382161458 1277.96549479 10.7197265625 1258.49804688 c 1
 172.332200161 1483.12347174 l 1
 218.594726562 1538.18847656 l 1
 294.019788847 1451.09140343 356.988660328 1351.53813949 426.470703125 1258.49804688 c 1
150.73046875 0 m 1
 288.5 0 l 1
 288.5 970 l 1
 150.73046875 970 l 1
 150.73046875 0 l 1
EndSplineSet
Validated: 524297
EndChar

StartChar: idieresis
Encoding: 239 239 176
Width: 736
GlyphClass: 2
Flags: HW
LayerCount: 2
Fore
SplineSet
448.270507812 1601.31152344 m 1
 310.788085938 1601.31152344 l 1
 310.788085938 1340.20898438 l 1
 448.270507812 1340.20898438 l 1
 448.270507812 1601.31152344 l 1
128.270507812 1601.31152344 m 1
 -9.2119140625 1601.31152344 l 1
 -9.2119140625 1340.20898438 l 1
 128.270507812 1340.20898438 l 1
 128.270507812 1601.31152344 l 1
150.73046875 0 m 1
 288.5 0 l 1
 288.5 970 l 1
 150.73046875 970 l 1
 150.73046875 0 l 1
EndSplineSet
Validated: 524297
EndChar

StartChar: eth
Encoding: 240 240 177
Width: 1048
GlyphClass: 2
Flags: HW
LayerCount: 2
Fore
SplineSet
752 472 m 0
 752 659.647902472 660.39266686 784 488 784 c 0
 403 784 339 749 296 680 c 0
 253 611 232 541 232 472 c 0
 232 365 259 285 312 232 c 0
 365 179 424 152 488 152 c 0
 687.898713317 152 752 267.358018909 752 472 c 0
496 928 m 0
 598.643913939 928 711.547672455 881.424980794 760 824 c 1
 755 957 733 1061 696 1136 c 1
 224 976 l 1
 176 1104 l 1
 608 1248 l 1
 555 1301 485 1349 400 1392 c 1
 480 1512 l 1
 581 1464 677 1395 768 1304 c 1
 976 1376 l 1
 1024 1248 l 1
 848 1184 l 1
 912 1061 944 869 944 608 c 0
 944 400 904 247 824 148 c 0
 744 49 637 0 504 0 c 1
 365 -5 260 41 188 140 c 0
 116 239 80 349 80 472 c 0
 80 637 120 755 200 824 c 0
 280 893 379 928 496 928 c 0
EndSplineSet
Validated: 524321
EndChar

StartChar: ntilde
Encoding: 241 241 178
Width: 1024
GlyphClass: 2
Flags: HW
LayerCount: 2
Fore
SplineSet
696 688 m 2
 696 788.190716347 662.982544607 816 560 816 c 0
 517 816 480 805 448 784 c 0
 416 763 376 723 328 664 c 1
 328 0 l 1
 160 0 l 1
 160 960 l 1
 328 960 l 1
 328 824 l 1
 355 867 384 900 416 924 c 0
 448 948 493 960 552 960 c 2
 648 960 l 2
 794.110770734 960 864 862.869968043 864 712 c 2
 864 0 l 1
 696 0 l 1
 696 688 l 2
104 1272 m 1
 104 1424 l 1
 195 1504 269 1544 328 1544 c 0
 381 1544 429 1525 472 1488 c 2
 584 1392 l 2
 616 1365 656 1352 704 1352 c 0
 752 1352 824 1397 920 1488 c 1
 920 1336 l 1
 835 1256 763 1216 704 1216 c 0
 645 1216 595 1235 552 1272 c 2
 440 1368 l 2
 408 1395 371 1408 328 1408 c 0
 280 1408 205 1363 104 1272 c 1
EndSplineSet
Validated: 524289
EndChar

StartChar: ograve
Encoding: 242 242 179
Width: 1040
GlyphClass: 2
Flags: HMW
HStem: -6.53027 86.5293 850 120<514.188 555.943 470.025 594.291> 870 80<514.425 555.943 555.943 625.845 514.425 632.798>
VStem: 126.085 132.666<337.099 618.132> 158.751 67.334<348.231 610.555 348.231 643.886> 767.85 132.421<337.166 617.892 337.166 630.007> 800.271 67.5791<347.98 610.716>
LayerCount: 2
Fore
SplineSet
512.448242188 -19.9990234375 m 0
 780.028320312 -21.455078125 900.270507812 195.892578125 900.270507812 478.438476562 c 0
 900.270507812 757.344726562 792.836914062 970 555.943359375 970 c 2
 470.025390625 970 l 1
 233.586914062 966.706054688 126.084960938 757.825195312 126.084960938 478.438476562 c 0
 126.084960938 195.759765625 246.295898438 -18.5517578125 512.448242188 -19.9990234375 c 0
514.188476562 850 m 0
 674.392578125 850 767.849609375 781.692382812 767.849609375 478.321289062 c 0
 767.849609375 174.541015625 669.5703125 93.4697265625 514.306640625 93.4697265625 c 0
 356.543945312 93.4697265625 258.750976562 174.645507812 258.750976562 478.321289062 c 0
 258.750976562 779.643554688 361.544921875 850.724609375 514.188476562 850 c 0
632.853962913 1270.32097253 m 1
 635.797851562 1267.66894531 l 1
 661.155161962 1295.81660318 l 1
 689.29296875 1321.16503906 l 1
 686.641873851 1324.10790203 l 1
 702.729492188 1341.96582031 l 1
 532.000254181 1495.7687114 l 1
 378.193359375 1666.50292969 l 1
 360.334948197 1650.41486732 l 1
 357.391601562 1653.06640625 l 1
 332.038959832 1624.92393079 l 1
 303.896484375 1599.57128906 l 1
 306.548019148 1596.62793781 l 1
 290.459960938 1578.76953125 l 1
 461.193867088 1424.96243482 l 1
 614.99609375 1254.23339844 l 1
 632.853962913 1270.32097253 l 1
EndSplineSet
Validated: 8912937
EndChar

StartChar: oacute
Encoding: 243 243 180
Width: 1040
GlyphClass: 2
Flags: HMW
HStem: -6.53027 86.5293 850 120<514.188 555.943 470.025 594.291> 870 80<514.425 555.943 555.943 625.845 514.425 632.798>
VStem: 126.085 132.666<337.099 618.132> 158.751 67.334<348.231 610.555 348.231 643.886> 767.85 132.421<337.166 617.892 337.166 630.007> 800.271 67.5791<347.98 610.716>
LayerCount: 2
Fore
SplineSet
512.448242188 -19.9990234375 m 0
 780.028320312 -21.455078125 900.270507812 195.892578125 900.270507812 478.438476562 c 0
 900.270507812 757.344726562 792.836914062 970 555.943359375 970 c 2
 470.025390625 970 l 1
 233.586914062 966.706054688 126.084960938 757.825195312 126.084960938 478.438476562 c 0
 126.084960938 195.759765625 246.295898438 -18.5517578125 512.448242188 -19.9990234375 c 0
514.188476562 850 m 0
 674.392578125 850 767.849609375 781.692382812 767.849609375 478.321289062 c 0
 767.849609375 174.541015625 669.5703125 93.4697265625 514.306640625 93.4697265625 c 0
 356.543945312 93.4697265625 258.750976562 174.645507812 258.750976562 478.321289062 c 0
 258.750976562 779.643554688 361.544921875 850.724609375 514.188476562 850 c 0
332.034291163 1295.81660318 m 1
 357.391601562 1267.66894531 l 1
 360.335490212 1270.32097253 l 1
 378.193359375 1254.23339844 l 1
 531.995586037 1424.96243482 l 1
 702.729492188 1578.76953125 l 1
 686.641433977 1596.62793781 l 1
 689.29296875 1599.57128906 l 1
 661.150493293 1624.92393079 l 1
 635.797851562 1653.06640625 l 1
 632.854504928 1650.41486732 l 1
 614.99609375 1666.50292969 l 1
 461.189198944 1495.7687114 l 1
 290.459960938 1341.96582031 l 1
 306.547579274 1324.10790203 l 1
 303.896484375 1321.16503906 l 1
 332.034291163 1295.81660318 l 1
EndSplineSet
Validated: 8912937
EndChar

StartChar: ocircumflex
Encoding: 244 244 181
Width: 1040
GlyphClass: 2
Flags: HMW
HStem: -6.53027 86.5293 850 120<514.188 555.943 470.025 594.291> 870 80<514.425 555.943 555.943 625.845 514.425 632.798>
VStem: 126.085 132.666<337.099 618.132> 158.751 67.334<348.231 610.555 348.231 643.886> 767.85 132.421<337.166 617.892 337.166 630.007> 800.271 67.5791<347.98 610.716>
LayerCount: 2
Fore
SplineSet
690.470703125 1258.49804688 m 1
 717.528645833 1277.96549479 744.586588542 1297.43294271 771.64453125 1316.90039062 c 1
 766.634294855 1323.86410446 l 1
 782.24609375 1336.98046875 l 1
 607.842788146 1544.56798437 l 1
 566.093392589 1602.59541143 524.343851344 1660.6226928 482.594726562 1718.65039062 c 1
 440.846264683 1660.62372134 399.097585944 1602.59726891 357.348981742 1544.57074195 c 1
 182.943359375 1336.98046875 l 1
 198.555754648 1323.86360341 l 1
 193.545898438 1316.90039062 l 1
 220.603841146 1297.43294271 247.661783854 1277.96549479 274.719726562 1258.49804688 c 1
 436.332200161 1483.12347174 l 1
 482.594726562 1538.18847656 l 1
 558.019788847 1451.09140343 620.988660328 1351.53813949 690.470703125 1258.49804688 c 1
512.448242188 -19.9990234375 m 0
 780.028320312 -21.455078125 900.270507812 195.892578125 900.270507812 478.438476562 c 0
 900.270507812 757.344726562 792.836914062 970 555.943359375 970 c 2
 470.025390625 970 l 1
 233.586914062 966.706054688 126.084960938 757.825195312 126.084960938 478.438476562 c 0
 126.084960938 195.759765625 246.295898438 -18.5517578125 512.448242188 -19.9990234375 c 0
514.188476562 850 m 0
 674.392578125 850 767.849609375 781.692382812 767.849609375 478.321289062 c 0
 767.849609375 174.541015625 669.5703125 93.4697265625 514.306640625 93.4697265625 c 0
 356.543945312 93.4697265625 258.750976562 174.645507812 258.750976562 478.321289062 c 0
 258.750976562 779.643554688 361.544921875 850.724609375 514.188476562 850 c 0
EndSplineSet
Validated: 8912937
EndChar

StartChar: otilde
Encoding: 245 245 182
Width: 1040
GlyphClass: 2
Flags: HW
LayerCount: 2
Fore
SplineSet
792 504 m 2
 792 684.186706587 738.166650367 824 576 824 c 2
 456 824 l 2
 397 824 349 799 312 748 c 0
 275 697 256 616 256 504 c 2
 256 480 l 2
 256 352 273 263 308 212 c 0
 343 161 392 136 456 136 c 2
 576 136 l 2
 733.255690962 136 792 300.959891722 792 480 c 2
 792 504 l 2
104 1272 m 1
 104 1424 l 1
 195 1504 269 1544 328 1544 c 0
 387 1544 437 1525 480 1488 c 2
 592 1392 l 2
 624 1365 664 1352 712 1352 c 0
 760 1352 835 1397 936 1488 c 1
 936 1336 l 1
 845 1256 771 1216 712 1216 c 0
 653 1216 603 1235 560 1272 c 2
 448 1368 l 2
 416 1395 376 1408 328 1408 c 0
 280 1408 205 1363 104 1272 c 1
456 0 m 2
 178.102585109 0 80 187.247059182 80 480 c 2
 80 504 l 2
 80 762.137040312 207.083585754 960 456 960 c 2
 576 960 l 2
 709 960 808 917 872 832 c 0
 936 747 968 637 968 504 c 2
 968 480 l 2
 968 200.436926582 846.592799092 0 576 0 c 2
 456 0 l 2
EndSplineSet
Validated: 524289
EndChar

StartChar: odieresis
Encoding: 246 246 183
Width: 1040
GlyphClass: 2
Flags: HMW
HStem: -6.53027 86.5293 850 120<514.188 555.943 470.025 594.291> 870 80<514.425 555.943 555.943 625.845 514.425 632.798>
VStem: 126.085 132.666<337.099 618.132> 158.751 67.334<348.231 610.555 348.231 643.886> 767.85 132.421<337.166 617.892 337.166 630.007> 800.271 67.5791<347.98 610.716>
LayerCount: 2
Fore
SplineSet
512.448242188 -19.9990234375 m 0
 780.028320312 -21.455078125 900.270507812 195.892578125 900.270507812 478.438476562 c 0
 900.270507812 757.344726562 792.836914062 970 555.943359375 970 c 2
 470.025390625 970 l 1
 233.586914062 966.706054688 126.084960938 757.825195312 126.084960938 478.438476562 c 0
 126.084960938 195.759765625 246.295898438 -18.5517578125 512.448242188 -19.9990234375 c 0
514.188476562 850 m 0
 674.392578125 850 767.849609375 781.692382812 767.849609375 478.321289062 c 0
 767.849609375 174.541015625 669.5703125 93.4697265625 514.306640625 93.4697265625 c 0
 356.543945312 93.4697265625 258.750976562 174.645507812 258.750976562 478.321289062 c 0
 258.750976562 779.643554688 361.544921875 850.724609375 514.188476562 850 c 0
738.627929688 1601.31152344 m 1
 601.145507812 1601.31152344 l 1
 601.145507812 1340.20898438 l 1
 738.627929688 1340.20898438 l 1
 738.627929688 1601.31152344 l 1
418.627929688 1601.31152344 m 1
 281.145507812 1601.31152344 l 1
 281.145507812 1340.20898438 l 1
 418.627929688 1340.20898438 l 1
 418.627929688 1601.31152344 l 1
EndSplineSet
Validated: 8912937
EndChar

StartChar: divide
Encoding: 247 247 184
Width: 2048
GlyphClass: 2
Flags: HW
LayerCount: 2
Fore
SplineSet
904 1216 m 0
 904 1296 944 1336 1024 1336 c 0
 1099 1336 1136 1296 1136 1216 c 0
 1136 1136 1099 1096 1024 1096 c 0
 944 1096 904 1136 904 1216 c 0
904 344 m 0
 904 424 944 464 1024 464 c 0
 1104 464 1144 424 1144 344 c 0
 1144 264 1104 224 1024 224 c 0
 944 224 904 264 904 344 c 0
312 712 m 1
 312 840 l 1
 1712 840 l 1
 1712 712 l 1
 312 712 l 1
EndSplineSet
Validated: 1
EndChar

StartChar: oslash
Encoding: 248 248 185
Width: 1040
GlyphClass: 2
Flags: HW
LayerCount: 2
Fore
SplineSet
360 168 m 1
 413 131 467 112 520 112 c 0
 589 112 653 141 712 200 c 0
 771 259 800 349 800 472 c 0
 800 584 771 672 712 736 c 1
 360 168 l 1
240 464 m 0
 240 373 259 301 296 248 c 1
 640 784 l 1
 603 805 563 816 520 816 c 0
 451 816 387 787 328 728 c 0
 269 669 240 581 240 464 c 0
56 472 m 0
 56 595 99 707 184 808 c 0
 269 909 381 960 520 960 c 0
 595 960 661 947 720 920 c 1
 840 1128 l 1
 928 1072 l 1
 800 864 l 1
 928 763 992 629 992 464 c 0
 992 331 948 220 860 132 c 0
 772 44 659 0 520 0 c 0
 429 0 357 19 304 56 c 1
 176 -128 l 1
 96 -72 l 1
 224 112 l 1
 112 213 56 333 56 472 c 0
EndSplineSet
Validated: 1
EndChar

StartChar: ugrave
Encoding: 249 249 186
Width: 1024
GlyphClass: 2
Flags: HMW
HStem: -20 114.571<387.552 540.02 387.552 580.106> 9.7041 55.1641<362.11 532.844 362.11 579.095>
VStem: 164.461 138.048<219.1 970 306.478 970 306.478 970> 201.282 64.4053<256.456 306.478 306.478 970> 760.838 62.9941<239.19 855.575 855.575 970>
LayerCount: 2
Fore
SplineSet
618.264648438 1267.99804688 m 1
 645.189907758 1285.04772245 672.115360667 1302.09720444 699.041015625 1319.14648438 c 1
 693.908777452 1324.84355277 l 1
 712.821289062 1339.60058594 l 1
 541.925183002 1493.55375362 l 1
 387.940429688 1664.48535156 l 1
 361.01548054 1647.43504029 334.090032097 1630.38522832 307.1640625 1613.3359375 c 1
 312.296309196 1607.63887575 l 1
 293.383789062 1592.88183594 l 1
 464.279942572 1438.92910877 l 1
 618.264648438 1267.99804688 l 1
722.60546875 250.020781172 m 1
 672.898209939 182.909865558 589.374528027 94.5712888543 462.407226562 94.5712890625 c 0
 312.696289062 94.5712890625 302.508789062 195.216796875 302.508789062 306.477539062 c 2
 302.508789062 970 l 1
 164.4609375 970 l 1
 164.4609375 251.556640625 l 2
 164.4609375 186.643554688 185.911132812 -20 442.642578125 -20 c 0
 572.178703543 -20 672.066470087 47.1101450331 741.487900637 118.090630039 c 1
 751.112713511 59.7469205723 760.002086401 5.66071434651 760.837890625 -3.0263671875 c 1
 794.580078125 -3.0263671875 828.322265625 -3.0263671875 862.064453125 -3.0263671875 c 1
 862.064453125 970 l 1
 722.60546875 970 l 1
 722.60546875 250.020781172 l 1
EndSplineSet
Validated: 8912905
EndChar

StartChar: uacute
Encoding: 250 250 187
Width: 1024
GlyphClass: 2
Flags: HMW
HStem: -20 114.571<387.552 540.02 387.552 580.106> 9.7041 55.1641<362.11 532.844 362.11 579.095>
VStem: 164.461 138.048<219.1 970 306.478 970 306.478 970> 201.282 64.4053<256.456 306.478 306.478 970> 760.838 62.9941<239.19 855.575 855.575 970>
LayerCount: 2
Fore
SplineSet
307.1640625 1319.14648438 m 1
 334.089714633 1302.09720161 361.015173192 1285.04772528 387.940429688 1267.99804688 c 1
 541.925135553 1438.92910877 l 1
 712.821289062 1592.88183594 l 1
 693.908768929 1607.63887575 l 1
 699.041015625 1613.3359375 l 1
 672.115053314 1630.38523561 645.189590298 1647.43503301 618.264648438 1664.48535156 c 1
 464.279895123 1493.55375362 l 1
 293.383789062 1339.60058594 l 1
 312.296300673 1324.84355277 l 1
 307.1640625 1319.14648438 l 1
722.60546875 250.020781172 m 1
 672.898209939 182.909865558 589.374528027 94.5712888543 462.407226562 94.5712890625 c 0
 312.696289062 94.5712890625 302.508789062 195.216796875 302.508789062 306.477539062 c 2
 302.508789062 970 l 1
 164.4609375 970 l 1
 164.4609375 251.556640625 l 2
 164.4609375 186.643554688 185.911132812 -20 442.642578125 -20 c 0
 572.178703543 -20 672.066470087 47.1101450331 741.487900637 118.090630039 c 1
 751.112713511 59.7469205723 760.002086401 5.66071434651 760.837890625 -3.0263671875 c 1
 794.580078125 -3.0263671875 828.322265625 -3.0263671875 862.064453125 -3.0263671875 c 1
 862.064453125 970 l 1
 722.60546875 970 l 1
 722.60546875 250.020781172 l 1
EndSplineSet
Validated: 8912905
EndChar

